<svg version="1.1" xmlns="http://www.w3.org/2000/svg" xmlns:xlink="http://www.w3.org/1999/xlink" width="1150" height="1089"><defs/><g><g/><g/><g/><g/><g/><g/><g/><g/><g/><g/><g/><g/><g/><g/><g/><g/><g><rect fill="white" stroke="none" x="0" y="0" width="1150" height="1089"/></g><g><text fill="black" stroke="none" font-family="sans-serif" font-size="16.5pt" font-style="normal" font-weight="normal" text-decoration="normal" x="367.7522334001744" y="24.50280495" text-anchor="start" dominant-baseline="alphabetic">Load Component and Ports Into the Model</text></g><g/><g><path fill="none" stroke="black" paint-order="fill stroke markers" d=" M 120.8912972305 95.887643371 L 120.8912972305 1089.0680040109999" stroke-miterlimit="10" stroke-width="1.3612669416666667" stroke-dasharray="12.565541,5.445067766666667"/><path fill="none" stroke="black" paint-order="fill stroke markers" d=" M 315.6738916915 95.887643371 L 315.6738916915 1089.0680040109999" stroke-miterlimit="10" stroke-width="1.3612669416666667" stroke-dasharray="12.565541,5.445067766666667"/><path fill="none" stroke="black" paint-order="fill stroke markers" d=" M 568.2921710081666 95.887643371 L 568.2921710081666 1089.0680040109999" stroke-miterlimit="10" stroke-width="1.3612669416666667" stroke-dasharray="12.565541,5.445067766666667"/><path fill="none" stroke="black" paint-order="fill stroke markers" d=" M 786.0780519748333 95.887643371 L 786.0780519748333 1089.0680040109999" stroke-miterlimit="10" stroke-width="1.3612669416666667" stroke-dasharray="12.565541,5.445067766666667"/><path fill="none" stroke="black" paint-order="fill stroke markers" d=" M 904.8606464358334 95.887643371 L 904.8606464358334 1089.0680040109999" stroke-miterlimit="10" stroke-width="1.3612669416666667" stroke-dasharray="12.565541,5.445067766666667"/><path fill="none" stroke="black" paint-order="fill stroke markers" d=" M 1052.1432408968333 95.887643371 L 1052.1432408968333 1089.0680040109999" stroke-miterlimit="10" stroke-width="1.3612669416666667" stroke-dasharray="12.565541,5.445067766666667"/></g><g><path fill="none" stroke="none"/><g><path fill="white" stroke="black" paint-order="fill stroke markers" d=" M 8.167601649999995 51.782594461 L 233.614992811 51.782594461 L 233.614992811 95.887643371 L 8.167601649999995 95.887643371 L 8.167601649999995 51.782594461 Z" stroke-miterlimit="10" stroke-width="2.613632528" stroke-dasharray=""/></g><g><g/><text fill="black" stroke="none" font-family="sans-serif" font-size="11pt" font-style="normal" font-weight="normal" text-decoration="normal" x="25.8912972305" y="79.55244007099999" text-anchor="start" dominant-baseline="alphabetic">ComponentDragDropHandler</text></g><path fill="none" stroke="none"/><g><path fill="white" stroke="black" paint-order="fill stroke markers" d=" M 249.95019611099997 51.782594461 L 381.397587272 51.782594461 L 381.397587272 95.887643371 L 249.95019611099997 95.887643371 L 249.95019611099997 51.782594461 Z" stroke-miterlimit="10" stroke-width="2.613632528" stroke-dasharray=""/></g><g><g/><text fill="black" stroke="none" font-family="sans-serif" font-size="11pt" font-style="normal" font-weight="normal" text-decoration="normal" x="267.6738916915" y="79.55244007099999" text-anchor="start" dominant-baseline="alphabetic">ComponentUtil</text></g><path fill="none" stroke="none"/><g><path fill="white" stroke="black" paint-order="fill stroke markers" d=" M 528.0684754276666 51.782594461 L 608.5158665886667 51.782594461 L 608.5158665886667 95.887643371 L 528.0684754276666 95.887643371 L 528.0684754276666 51.782594461 Z" stroke-miterlimit="10" stroke-width="2.613632528" stroke-dasharray=""/></g><g><g/><text fill="black" stroke="none" font-family="sans-serif" font-size="11pt" font-style="normal" font-weight="normal" text-decoration="normal" x="545.7921710081666" y="79.55244007099999" text-anchor="start" dominant-baseline="alphabetic">SvgUtil</text></g><path fill="none" stroke="none"/><g><path fill="white" stroke="black" paint-order="fill stroke markers" d=" M 739.3543563943333 51.782594461 L 832.8017475553333 51.782594461 L 832.8017475553333 95.887643371 L 739.3543563943333 95.887643371 L 739.3543563943333 51.782594461 Z" stroke-miterlimit="10" stroke-width="2.613632528" stroke-dasharray=""/></g><g><g/><text fill="black" stroke="none" font-family="sans-serif" font-size="11pt" font-style="normal" font-weight="normal" text-decoration="normal" x="757.0780519748333" y="79.55244007099999" text-anchor="start" dominant-baseline="alphabetic">PortData</text></g><path fill="none" stroke="none"/><g><path fill="white" stroke="black" paint-order="fill stroke markers" d=" M 849.1369508553333 51.782594461 L 960.5843420163334 51.782594461 L 960.5843420163334 95.887643371 L 849.1369508553333 95.887643371 L 849.1369508553333 51.782594461 Z" stroke-miterlimit="10" stroke-width="2.613632528" stroke-dasharray=""/></g><g><g/><text fill="black" stroke="none" font-family="sans-serif" font-size="11pt" font-style="normal" font-weight="normal" text-decoration="normal" x="866.8606464358334" y="79.55244007099999" text-anchor="start" dominant-baseline="alphabetic">Component</text></g><path fill="none" stroke="none"/><g><path fill="white" stroke="black" paint-order="fill stroke markers" d=" M 976.9195453163333 51.782594461 L 1127.3669364773332 51.782594461 L 1127.3669364773332 95.887643371 L 976.9195453163333 95.887643371 L 976.9195453163333 51.782594461 Z" stroke-miterlimit="10" stroke-width="2.613632528" stroke-dasharray=""/></g><g><g/><text fill="black" stroke="none" font-family="sans-serif" font-size="11pt" font-style="normal" font-weight="normal" text-decoration="normal" x="994.6432408968333" y="79.55244007099999" text-anchor="start" dominant-baseline="alphabetic">TrackablePosition</text></g></g><g><path fill="white" stroke="black" paint-order="fill stroke markers" d=" M 307.5062900415 104.05524502099999 L 323.8414933415 104.05524502099999 L 323.8414933415 1031.894792461 L 307.5062900415 1031.894792461 L 307.5062900415 104.05524502099999" stroke-miterlimit="10" stroke-width="1.3612669416666667" stroke-dasharray=""/><path fill="white" stroke="black" paint-order="fill stroke markers" d=" M 112.7236955805 104.05524502099999 L 129.0588988805 104.05524502099999 L 129.0588988805 1072.7328007109998 L 112.7236955805 1072.7328007109998 L 112.7236955805 104.05524502099999" stroke-miterlimit="10" stroke-width="1.3612669416666667" stroke-dasharray=""/><path fill="white" stroke="black" paint-order="fill stroke markers" d=" M 560.1245693581666 289.459802476 L 576.4597726581667 289.459802476 L 576.4597726581667 697.023124811 L 560.1245693581666 697.023124811 L 560.1245693581666 289.459802476" stroke-miterlimit="10" stroke-width="1.3612669416666667" stroke-dasharray=""/><path fill="white" stroke="black" paint-order="fill stroke markers" d=" M 568.2921710081666 398.905664586 L 584.6273743081667 398.905664586 L 584.6273743081667 639.033153096 L 568.2921710081666 639.033153096 L 568.2921710081666 398.905664586" stroke-miterlimit="10" stroke-width="1.3612669416666667" stroke-dasharray=""/><path fill="white" stroke="black" paint-order="fill stroke markers" d=" M 576.4597726581666 398.905664586 L 592.7949759581667 398.905664586 L 592.7949759581667 639.033153096 L 576.4597726581666 639.033153096 L 576.4597726581666 398.905664586" stroke-miterlimit="10" stroke-width="1.3612669416666667" stroke-dasharray=""/><path fill="white" stroke="black" paint-order="fill stroke markers" d=" M 777.9104503248333 583.493461876 L 794.2456536248334 583.493461876 L 794.2456536248334 621.881189631 L 777.9104503248333 621.881189631 L 777.9104503248333 583.493461876" stroke-miterlimit="10" stroke-width="1.3612669416666667" stroke-dasharray=""/><path fill="white" stroke="black" paint-order="fill stroke markers" d=" M 584.6273743081666 639.033153096 L 600.9625776081667 639.033153096 L 600.9625776081667 658.635397056 L 584.6273743081666 658.635397056 L 584.6273743081666 639.033153096" stroke-miterlimit="10" stroke-width="1.3612669416666667" stroke-dasharray=""/><path fill="white" stroke="black" paint-order="fill stroke markers" d=" M 777.9104503248333 639.033153096 L 794.2456536248334 639.033153096 L 794.2456536248334 639.033153096 L 777.9104503248333 639.033153096 L 777.9104503248333 639.033153096" stroke-miterlimit="10" stroke-width="1.3612669416666667" stroke-dasharray=""/><path fill="white" stroke="black" paint-order="fill stroke markers" d=" M 896.6930447858333 715.808608606 L 913.0282480858334 715.808608606 L 913.0282480858334 993.507064706 L 896.6930447858333 993.507064706 L 896.6930447858333 715.808608606" stroke-miterlimit="10" stroke-width="1.3612669416666667" stroke-dasharray=""/><path fill="white" stroke="black" paint-order="fill stroke markers" d=" M 1043.9756392468332 882.427682266 L 1060.3108425468333 882.427682266 L 1060.3108425468333 920.815410021 L 1043.9756392468332 920.815410021 L 1043.9756392468332 882.427682266" stroke-miterlimit="10" stroke-width="1.3612669416666667" stroke-dasharray=""/><g><g><rect fill="white" stroke="none" x="154.83231396600002" y="121.20720848599998" width="126.90056099" height="21.23576429"/></g><text fill="black" stroke="none" font-family="sans-serif" font-size="11pt" font-style="normal" font-weight="normal" text-decoration="normal" x="157.282594461" y="135.908891456" text-anchor="start" dominant-baseline="alphabetic">componentFactory</text></g><g><path fill="none" stroke="black" paint-order="fill stroke markers" d=" M 129.0588988805 142.44297277599998 L 304.7837561581667 142.44297277599998" stroke-miterlimit="10" stroke-width="1.3612669416666667" stroke-dasharray=""/><g transform="translate(307.5062900415,142.44297277599998) translate(-307.5062900415,-142.44297277599998)"><path fill="black" stroke="none" paint-order="stroke fill markers" d=" M 293.8936206248333 135.63663806766664 L 307.5062900415 142.44297277599998 L 293.8936206248333 149.24930748433331 Z"/></g></g><g><g><rect fill="white" stroke="none" x="343.17148391316664" y="196.34914366599997" width="194.90056099" height="21.23576429"/></g><text fill="black" stroke="none" font-family="sans-serif" font-size="11pt" font-style="normal" font-weight="normal" text-decoration="normal" x="345.62176440816665" y="211.05082663599995" text-anchor="start" dominant-baseline="alphabetic">componentmap.get(identifier)</text></g><g><path fill="none" stroke="black" paint-order="fill stroke markers" d=" M 323.8414933415 217.584907956 L 389.1823065415 217.584907956 L 389.1823065415 233.92011125599998 L 326.5640272248333 233.92011125599998" stroke-miterlimit="10" stroke-width="1.3612669416666667" stroke-dasharray=""/><g transform="translate(323.8414933415,233.92011125599998) translate(-323.8414933415,-233.92011125599998)"><path fill="black" stroke="none" paint-order="stroke fill markers" d=" M 337.45416275816666 227.11377654766665 L 323.8414933415 233.92011125599998 L 337.45416275816666 240.72644596433332 Z"/></g></g><g><g><rect fill="white" stroke="none" x="360.53275085483324" y="268.224038186" width="162.90056099" height="21.23576429"/></g><text fill="black" stroke="none" font-family="sans-serif" font-size="11pt" font-style="normal" font-weight="normal" text-decoration="normal" x="362.98303134983325" y="282.92572115599995" text-anchor="start" dominant-baseline="alphabetic">GetComponentMetadata</text></g><g><path fill="none" stroke="black" paint-order="fill stroke markers" d=" M 323.8414933415 289.459802476 L 557.4020354748333 289.459802476" stroke-miterlimit="10" stroke-width="1.3612669416666667" stroke-dasharray=""/><g transform="translate(560.1245693581666,289.459802476) translate(-560.1245693581666,-289.459802476)"><path fill="black" stroke="none" paint-order="stroke fill markers" d=" M 546.5118999414999 282.65346776766665 L 560.1245693581666 289.459802476 L 546.5118999414999 296.26613718433333 Z"/></g></g><g><g><rect fill="white" stroke="none" x="595.7897632298334" y="306.611765941" width="151.90056099" height="21.23576429"/></g><text fill="black" stroke="none" font-family="sans-serif" font-size="11pt" font-style="normal" font-weight="normal" text-decoration="normal" x="598.2400437248334" y="321.31344891099997" text-anchor="start" dominant-baseline="alphabetic">GetComponentSvgFile</text></g><g><path fill="none" stroke="black" paint-order="fill stroke markers" d=" M 576.4597726581667 327.847530231 L 641.8005858581666 327.847530231 L 641.8005858581666 344.182733531 L 579.1823065415 344.182733531" stroke-miterlimit="10" stroke-width="1.3612669416666667" stroke-dasharray=""/><g transform="translate(576.4597726581667,344.182733531) translate(-576.4597726581667,-344.182733531)"><path fill="black" stroke="none" paint-order="stroke fill markers" d=" M 590.0724420748334 337.37639882266666 L 576.4597726581667 344.182733531 L 590.0724420748334 350.98906823933333 Z"/></g></g><g><g><rect fill="white" stroke="none" x="612.1249665298334" y="361.334696996" width="95.90056099" height="21.23576429"/></g><text fill="black" stroke="none" font-family="sans-serif" font-size="11pt" font-style="normal" font-weight="normal" text-decoration="normal" x="614.5752470248334" y="376.03637996599997" text-anchor="start" dominant-baseline="alphabetic">LoadMetadata</text></g><g><path fill="none" stroke="black" paint-order="fill stroke markers" d=" M 576.4597726581667 382.570461286 L 658.1357891581666 382.570461286 L 658.1357891581666 398.905664586 L 595.5175098415 398.905664586" stroke-miterlimit="10" stroke-width="1.3612669416666667" stroke-dasharray=""/><g transform="translate(592.7949759581667,398.905664586) translate(-592.7949759581667,-398.905664586)"><path fill="black" stroke="none" paint-order="stroke fill markers" d=" M 606.4076453748334 392.09932987766666 L 592.7949759581667 398.905664586 L 606.4076453748334 405.71199929433334 Z"/></g></g><g><g><rect fill="white" stroke="none" x="612.1249665298334" y="452.811835476" width="94.90056099" height="21.23576429"/></g><text fill="black" stroke="none" font-family="sans-serif" font-size="11pt" font-style="normal" font-weight="normal" text-decoration="normal" x="614.5752470248334" y="467.513518446" text-anchor="start" dominant-baseline="alphabetic">LoadPortData</text></g><g><path fill="none" stroke="black" paint-order="fill stroke markers" d=" M 592.7949759581667 474.047599766 L 658.1357891581666 474.047599766 L 658.1357891581666 490.382803066 L 595.5175098415 490.382803066" stroke-miterlimit="10" stroke-width="1.3612669416666667" stroke-dasharray=""/><g transform="translate(592.7949759581667,490.382803066) translate(-592.7949759581667,-490.382803066)"><path fill="black" stroke="none" paint-order="stroke fill markers" d=" M 606.4076453748334 483.57646835766667 L 592.7949759581667 490.382803066 L 606.4076453748334 497.18913777433335 Z"/></g></g><g><g><rect fill="white" stroke="none" x="612.1249665298334" y="507.53476653099995" width="130.90056099" height="21.23576429"/></g><text fill="black" stroke="none" font-family="sans-serif" font-size="11pt" font-style="normal" font-weight="normal" text-decoration="normal" x="614.5752470248334" y="522.2364495009999" text-anchor="start" dominant-baseline="alphabetic">GetNodesWithTags</text></g><g><path fill="none" stroke="black" paint-order="fill stroke markers" d=" M 592.7949759581667 528.770530821 L 658.1357891581666 528.770530821 L 658.1357891581666 545.105734121 L 595.5175098415 545.105734121" stroke-miterlimit="10" stroke-width="1.3612669416666667" stroke-dasharray=""/><g transform="translate(592.7949759581667,545.105734121) translate(-592.7949759581667,-545.105734121)"><path fill="black" stroke="none" paint-order="stroke fill markers" d=" M 606.4076453748334 538.2993994126666 L 592.7949759581667 545.105734121 L 606.4076453748334 551.9120688293333 Z"/></g></g><g><g><rect fill="white" stroke="none" x="644.4024326465" y="562.257697586" width="81.90056099" height="21.23576429"/></g><text fill="black" stroke="none" font-family="sans-serif" font-size="11pt" font-style="normal" font-weight="normal" text-decoration="normal" x="646.8527131415" y="576.9593805559999" text-anchor="start" dominant-baseline="alphabetic">&lt;&lt;create&gt;&gt;</text></g><g><path fill="none" stroke="black" paint-order="fill stroke markers" d=" M 592.7949759581667 583.493461876 L 775.1879164415 583.493461876" stroke-miterlimit="10" stroke-width="1.3612669416666667" stroke-dasharray=""/><g transform="translate(777.9104503248333,583.493461876) translate(-777.9104503248333,-583.493461876)"><path fill="black" stroke="none" paint-order="stroke fill markers" d=" M 764.2977809081666 576.6871271676666 L 777.9104503248333 583.493461876 L 764.2977809081666 590.2997965843333 Z"/></g></g><g><g><rect fill="white" stroke="none" x="682.9024326465" y="600.645425341" width="4.90056099" height="21.23576429"/></g><text fill="black" stroke="none" font-family="sans-serif" font-size="11pt" font-style="normal" font-weight="normal" text-decoration="normal" x="685.3527131415" y="615.3471083109999" text-anchor="start" dominant-baseline="alphabetic"></text></g><g><path fill="none" stroke="black" paint-order="fill stroke markers" d=" M 777.9104503248333 621.881189631 L 595.5175098415 621.881189631" stroke-miterlimit="10" stroke-width="1.3612669416666667" stroke-dasharray="6.53408132"/><g transform="translate(592.7949759581667,621.881189631) translate(-592.7949759581667,-621.881189631)"><path fill="black" stroke="none" paint-order="stroke fill markers" d=" M 606.4076453748334 615.0748549226666 L 592.7949759581667 621.881189631 L 606.4076453748334 628.6875243393333 Z"/></g></g><g><g><rect fill="white" stroke="none" x="439.53275085483324" y="656.185116561" width="4.90056099" height="21.23576429"/></g><text fill="black" stroke="none" font-family="sans-serif" font-size="11pt" font-style="normal" font-weight="normal" text-decoration="normal" x="441.98303134983325" y="670.886799531" text-anchor="start" dominant-baseline="alphabetic"></text></g><g><path fill="none" stroke="black" paint-order="fill stroke markers" d=" M 560.1245693581666 677.420880851 L 326.5640272248333 677.420880851" stroke-miterlimit="10" stroke-width="1.3612669416666667" stroke-dasharray="6.53408132"/><g transform="translate(323.8414933415,677.420880851) translate(-323.8414933415,-677.420880851)"><path fill="black" stroke="none" paint-order="stroke fill markers" d=" M 337.45416275816666 670.6145461426667 L 323.8414933415 677.420880851 L 337.45416275816666 684.2272155593333 Z"/></g></g><g><g><rect fill="white" stroke="none" x="581.3169885686666" y="694.572844316" width="57.90056099" height="21.23576429"/></g><text fill="black" stroke="none" font-family="sans-serif" font-size="11pt" font-style="normal" font-weight="normal" text-decoration="normal" x="583.7672690636666" y="709.274527286" text-anchor="start" dominant-baseline="alphabetic">initPorts</text></g><g><path fill="none" stroke="black" paint-order="fill stroke markers" d=" M 323.8414933415 715.808608606 L 893.9705109025 715.808608606" stroke-miterlimit="10" stroke-width="1.3612669416666667" stroke-dasharray=""/><g transform="translate(896.6930447858333,715.808608606) translate(-896.6930447858333,-715.808608606)"><path fill="black" stroke="none" paint-order="stroke fill markers" d=" M 883.0803753691666 709.0022738976667 L 896.6930447858333 715.808608606 L 883.0803753691666 722.6149433143333 Z"/></g></g><g><g><rect fill="white" stroke="none" x="932.3582386575001" y="769.714779496" width="51.90056099" height="21.23576429"/></g><text fill="black" stroke="none" font-family="sans-serif" font-size="11pt" font-style="normal" font-weight="normal" text-decoration="normal" x="934.8085191525001" y="784.416462466" text-anchor="start" dominant-baseline="alphabetic">getPort</text></g><g><path fill="none" stroke="black" paint-order="fill stroke markers" d=" M 913.0282480858334 790.950543786 L 978.3690612858334 790.950543786 L 978.3690612858334 807.285747086 L 915.7507819691667 807.285747086" stroke-miterlimit="10" stroke-width="1.3612669416666667" stroke-dasharray=""/><g transform="translate(913.0282480858334,807.285747086) translate(-913.0282480858334,-807.285747086)"><path fill="black" stroke="none" paint-order="stroke fill markers" d=" M 926.6409175025001 800.4794123776667 L 913.0282480858334 807.285747086 L 926.6409175025001 814.0920817943334 Z"/></g></g><g><g><rect fill="white" stroke="none" x="939.0516631713333" y="861.191917976" width="78.90056099" height="21.23576429"/></g><text fill="black" stroke="none" font-family="sans-serif" font-size="11pt" font-style="normal" font-weight="normal" text-decoration="normal" x="941.5019436663333" y="875.893600946" text-anchor="start" dominant-baseline="alphabetic">offsetClone</text></g><g><path fill="none" stroke="black" paint-order="fill stroke markers" d=" M 913.0282480858334 882.427682266 L 1041.2531053634998 882.427682266" stroke-miterlimit="10" stroke-width="1.3612669416666667" stroke-dasharray=""/><g transform="translate(1043.9756392468332,882.427682266) translate(-1043.9756392468332,-882.427682266)"><path fill="black" stroke="none" paint-order="stroke fill markers" d=" M 1030.3629698301665 875.6213475576667 L 1043.9756392468332 882.427682266 L 1030.3629698301665 889.2340169743334 Z"/></g></g><g><g><rect fill="white" stroke="none" x="976.0516631713333" y="899.579645731" width="4.90056099" height="21.23576429"/></g><text fill="black" stroke="none" font-family="sans-serif" font-size="11pt" font-style="normal" font-weight="normal" text-decoration="normal" x="978.5019436663333" y="914.281328701" text-anchor="start" dominant-baseline="alphabetic"></text></g><g><path fill="none" stroke="black" paint-order="fill stroke markers" d=" M 1043.9756392468332 920.815410021 L 915.7507819691667 920.815410021" stroke-miterlimit="10" stroke-width="1.3612669416666667" stroke-dasharray="6.53408132"/><g transform="translate(913.0282480858334,920.815410021) translate(-913.0282480858334,-920.815410021)"><path fill="black" stroke="none" paint-order="stroke fill markers" d=" M 926.6409175025001 914.0090753126667 L 913.0282480858334 920.815410021 L 926.6409175025001 927.6217447293334 Z"/></g></g><g><g><rect fill="white" stroke="none" x="607.8169885686666" y="972.271300416" width="4.90056099" height="21.23576429"/></g><text fill="black" stroke="none" font-family="sans-serif" font-size="11pt" font-style="normal" font-weight="normal" text-decoration="normal" x="610.2672690636666" y="986.972983386" text-anchor="start" dominant-baseline="alphabetic"></text></g><g><path fill="none" stroke="black" paint-order="fill stroke markers" d=" M 896.6930447858333 993.507064706 L 326.5640272248333 993.507064706" stroke-miterlimit="10" stroke-width="1.3612669416666667" stroke-dasharray="6.53408132"/><g transform="translate(323.8414933415,993.507064706) translate(-323.8414933415,-993.507064706)"><path fill="black" stroke="none" paint-order="stroke fill markers" d=" M 337.45416275816666 986.7007299976667 L 323.8414933415 993.507064706 L 337.45416275816666 1000.3133994143334 Z"/></g></g><g><g><rect fill="white" stroke="none" x="152.83231396600002" y="1010.6590281709999" width="130.90056099" height="21.23576429"/></g><text fill="black" stroke="none" font-family="sans-serif" font-size="11pt" font-style="normal" font-weight="normal" text-decoration="normal" x="155.282594461" y="1025.360711141" text-anchor="start" dominant-baseline="alphabetic">return [Component]</text></g><g><path fill="none" stroke="black" paint-order="fill stroke markers" d=" M 307.5062900415 1031.894792461 L 131.78143276383335 1031.894792461" stroke-miterlimit="10" stroke-width="1.3612669416666667" stroke-dasharray="6.53408132"/><g transform="translate(129.0588988805,1031.894792461) translate(-129.0588988805,-1031.894792461)"><path fill="black" stroke="none" paint-order="stroke fill markers" d=" M 142.6715682971667 1025.0884577526667 L 129.0588988805 1031.894792461 L 142.6715682971667 1038.7011271693332 Z"/></g></g><g><g/><path fill="none" stroke="black" paint-order="fill stroke markers" d=" M 258.50068014149997 159.59493624099997 L 543.7893660581667 159.59493624099997 L 543.7893660581667 251.07207472099998 L 258.50068014149997 251.07207472099998 L 258.50068014149997 159.59493624099997 Z" stroke-miterlimit="10" stroke-width="2.3336004714285714" stroke-dasharray=""/><path fill="white" stroke="black" paint-order="fill stroke markers" d=" M 258.50068014149997 159.59493624099997 L 258.50068014149997 179.19718020099998 L 501.17108674149995 179.19718020099998 L 510.97220872149995 169.39605822099998 L 510.97220872149995 159.59493624099997 L 258.50068014149997 159.59493624099997" stroke-miterlimit="10" stroke-width="2.3336004714285714" stroke-dasharray=""/><text fill="black" stroke="none" font-family="sans-serif" font-size="8.8pt" font-style="normal" font-weight="bold" text-decoration="normal" x="274.83588344149996" y="172.66309888099997" text-anchor="start" dominant-baseline="alphabetic">Create Component through reflection</text></g><g><g/><path fill="none" stroke="black" paint-order="fill stroke markers" d=" M 486.61615450816663 416.057628051 L 843.2512635248333 416.057628051 L 843.2512635248333 639.033153096 L 486.61615450816663 639.033153096 L 486.61615450816663 416.057628051 Z" stroke-miterlimit="10" stroke-width="2.3336004714285714" stroke-dasharray=""/><path fill="white" stroke="black" paint-order="fill stroke markers" d=" M 486.61615450816663 416.057628051 L 486.61615450816663 435.659872011 L 833.2865611081667 435.659872011 L 843.0876830881666 425.858750031 L 843.0876830881666 416.057628051 L 486.61615450816663 416.057628051" stroke-miterlimit="10" stroke-width="2.3336004714285714" stroke-dasharray=""/><text fill="black" stroke="none" font-family="sans-serif" font-size="8.8pt" font-style="normal" font-weight="bold" text-decoration="normal" x="502.9513578081666" y="429.125790691" text-anchor="start" dominant-baseline="alphabetic">Iterate Once for the Input- and once for the Output ports</text></g><g><g/><path fill="none" stroke="black" paint-order="fill stroke markers" d=" M 823.1846299358333 732.960572071 L 1125.6516557468333 732.960572071 L 1125.6516557468333 955.119336951 L 823.1846299358333 955.119336951 L 823.1846299358333 732.960572071 Z" stroke-miterlimit="10" stroke-width="2.3336004714285714" stroke-dasharray=""/><path fill="white" stroke="black" paint-order="fill stroke markers" d=" M 823.1846299358333 732.960572071 L 823.1846299358333 752.562816031 L 879.8550365358333 752.562816031 L 889.6561585158332 742.761694051 L 889.6561585158332 732.960572071 L 823.1846299358333 732.960572071" stroke-miterlimit="10" stroke-width="2.3336004714285714" stroke-dasharray=""/><text fill="black" stroke="none" font-family="sans-serif" font-size="8.8pt" font-style="normal" font-weight="bold" text-decoration="normal" x="839.5198332358333" y="746.028734711" text-anchor="start" dominant-baseline="alphabetic">loop</text><text fill="black" stroke="none" font-family="sans-serif" font-size="8.8pt" font-style="normal" font-weight="bold" text-decoration="normal" x="905.9913618158332" y="746.028734711" text-anchor="start" dominant-baseline="alphabetic">[For all Ports in metadata]</text></g><g><g/><path fill="none" stroke="black" paint-order="fill stroke markers" d=" M 839.5198332358333 824.437710551 L 1109.3164524468332 824.437710551 L 1109.3164524468332 937.967373486 L 839.5198332358333 937.967373486 L 839.5198332358333 824.437710551 Z" stroke-miterlimit="10" stroke-width="2.3336004714285714" stroke-dasharray=""/><path fill="white" stroke="black" paint-order="fill stroke markers" d=" M 839.5198332358333 824.437710551 L 839.5198332358333 844.039954511 L 1062.1902398358334 844.039954511 L 1071.9913618158334 834.238832531 L 1071.9913618158334 824.437710551 L 839.5198332358333 824.437710551" stroke-miterlimit="10" stroke-width="2.3336004714285714" stroke-dasharray=""/><text fill="black" stroke="none" font-family="sans-serif" font-size="8.8pt" font-style="normal" font-weight="bold" text-decoration="normal" x="855.8550365358333" y="837.505873191" text-anchor="start" dominant-baseline="alphabetic">Follows component with an offset</text></g></g><g/><g/><g/><g/><g/><g/></g></svg>