<svg version="1.1" xmlns="http://www.w3.org/2000/svg" xmlns:xlink="http://www.w3.org/1999/xlink" width="2252" height="1508"><defs/><g><g/><g/><g/><g/><g/><g/><g/><g/><g/><g/><g/><g/><g/><g/><g/><g/><g/><g/><g/><g/><g/><g/><g/><g/><g/><g/><g/><g/><g/><g><rect fill="white" stroke="none" x="0" y="0" width="2252" height="1508"/></g><g><text fill="black" stroke="none" font-family="sans-serif" font-size="16.5pt" font-style="normal" font-weight="normal" text-decoration="normal" x="912.6095734835833" y="24.50280495" text-anchor="start" dominant-baseline="alphabetic">Spawning a component onto the workspace</text></g><g/><g><path fill="none" stroke="black" paint-order="fill stroke markers" d=" M 120.8912972305 95.887643371 L 120.8912972305 1508.0659686559995" stroke-miterlimit="10" stroke-width="1.3612669416666667" stroke-dasharray="12.565541,5.445067766666667"/><path fill="none" stroke="black" paint-order="fill stroke markers" d=" M 524.3002730705 95.887643371 L 524.3002730705 1508.0659686559995" stroke-miterlimit="10" stroke-width="1.3612669416666667" stroke-dasharray="12.565541,5.445067766666667"/><path fill="none" stroke="black" paint-order="fill stroke markers" d=" M 695.1960185038333 95.887643371 L 695.1960185038333 1508.0659686559995" stroke-miterlimit="10" stroke-width="1.3612669416666667" stroke-dasharray="12.565541,5.445067766666667"/><path fill="none" stroke="black" paint-order="fill stroke markers" d=" M 1127.8142978205 95.887643371 L 1127.8142978205 1508.0659686559995" stroke-miterlimit="10" stroke-width="1.3612669416666667" stroke-dasharray="12.565541,5.445067766666667"/><path fill="none" stroke="black" paint-order="fill stroke markers" d=" M 1333.3908753105002 95.887643371 L 1333.3908753105002 1508.0659686559995" stroke-miterlimit="10" stroke-width="1.3612669416666667" stroke-dasharray="12.565541,5.445067766666667"/><path fill="none" stroke="black" paint-order="fill stroke markers" d=" M 1475.5063496771668 95.887643371 L 1475.5063496771668 1508.0659686559995" stroke-miterlimit="10" stroke-width="1.3612669416666667" stroke-dasharray="12.565541,5.445067766666667"/><path fill="none" stroke="black" paint-order="fill stroke markers" d=" M 1671.5696967605002 95.887643371 L 1671.5696967605002 1508.0659686559995" stroke-miterlimit="10" stroke-width="1.3612669416666667" stroke-dasharray="12.565541,5.445067766666667"/><path fill="none" stroke="black" paint-order="fill stroke markers" d=" M 2057.9786726005 95.887643371 L 2057.9786726005 1508.0659686559995" stroke-miterlimit="10" stroke-width="1.3612669416666667" stroke-dasharray="12.565541,5.445067766666667"/></g><g><path fill="none" stroke="none"/><g><path fill="white" stroke="black" paint-order="fill stroke markers" d=" M 8.167601649999995 51.782594461 L 233.614992811 51.782594461 L 233.614992811 95.887643371 L 8.167601649999995 95.887643371 L 8.167601649999995 51.782594461 Z" stroke-miterlimit="10" stroke-width="2.613632528" stroke-dasharray=""/></g><g><g/><text fill="black" stroke="none" font-family="sans-serif" font-size="11pt" font-style="normal" font-weight="normal" text-decoration="normal" x="25.8912972305" y="79.55244007099999" text-anchor="start" dominant-baseline="alphabetic">ComponentDragDropHandler</text></g><path fill="none" stroke="none"/><g><path fill="white" stroke="black" paint-order="fill stroke markers" d=" M 475.57657749 51.782594461 L 573.023968651 51.782594461 L 573.023968651 95.887643371 L 475.57657749 95.887643371 L 475.57657749 51.782594461 Z" stroke-miterlimit="10" stroke-width="2.613632528" stroke-dasharray=""/></g><g><g/><text fill="black" stroke="none" font-family="sans-serif" font-size="11pt" font-style="normal" font-weight="normal" text-decoration="normal" x="493.3002730705" y="79.55244007099999" text-anchor="start" dominant-baseline="alphabetic">Simulator</text></g><path fill="none" stroke="none"/><g><path fill="white" stroke="black" paint-order="fill stroke markers" d=" M 656.4723229233333 51.782594461 L 733.9197140843334 51.782594461 L 733.9197140843334 95.887643371 L 656.4723229233333 95.887643371 L 656.4723229233333 51.782594461 Z" stroke-miterlimit="10" stroke-width="2.613632528" stroke-dasharray=""/></g><g><g/><text fill="black" stroke="none" font-family="sans-serif" font-size="11pt" font-style="normal" font-weight="normal" text-decoration="normal" x="674.1960185038333" y="79.55244007099999" text-anchor="start" dominant-baseline="alphabetic">Circuit</text></g><path fill="none" stroke="none"/><g><path fill="white" stroke="black" paint-order="fill stroke markers" d=" M 1091.5906022400002 51.782594461 L 1164.0379934010002 51.782594461 L 1164.0379934010002 95.887643371 L 1091.5906022400002 95.887643371 L 1091.5906022400002 51.782594461 Z" stroke-miterlimit="10" stroke-width="2.613632528" stroke-dasharray=""/></g><g><g/><text fill="black" stroke="none" font-family="sans-serif" font-size="11pt" font-style="normal" font-weight="normal" text-decoration="normal" x="1109.3142978205" y="79.55244007099999" text-anchor="start" dominant-baseline="alphabetic">Event</text></g><path fill="none" stroke="none"/><g><path fill="white" stroke="black" paint-order="fill stroke markers" d=" M 1279.1671797300003 51.782594461 L 1387.6145708910003 51.782594461 L 1387.6145708910003 95.887643371 L 1279.1671797300003 95.887643371 L 1279.1671797300003 51.782594461 Z" stroke-miterlimit="10" stroke-width="2.613632528" stroke-dasharray=""/></g><g><g/><text fill="black" stroke="none" font-family="sans-serif" font-size="11pt" font-style="normal" font-weight="normal" text-decoration="normal" x="1296.8908753105002" y="79.55244007099999" text-anchor="start" dominant-baseline="alphabetic">CircuitView</text></g><path fill="none" stroke="none"/><g><path fill="white" stroke="black" paint-order="fill stroke markers" d=" M 1404.2826540966669 51.782594461 L 1546.730045257667 51.782594461 L 1546.730045257667 95.887643371 L 1404.2826540966669 95.887643371 L 1404.2826540966669 51.782594461 Z" stroke-miterlimit="10" stroke-width="2.613632528" stroke-dasharray=""/></g><g><g/><text fill="black" stroke="none" font-family="sans-serif" font-size="11pt" font-style="normal" font-weight="normal" text-decoration="normal" x="1422.0063496771668" y="79.55244007099999" text-anchor="start" dominant-baseline="alphabetic">ComponentView</text></g><path fill="none" stroke="none"/><g><path fill="white" stroke="black" paint-order="fill stroke markers" d=" M 1631.3460011800003 51.782594461 L 1711.7933923410003 51.782594461 L 1711.7933923410003 95.887643371 L 1631.3460011800003 95.887643371 L 1631.3460011800003 51.782594461 Z" stroke-miterlimit="10" stroke-width="2.613632528" stroke-dasharray=""/></g><g><g/><text fill="black" stroke="none" font-family="sans-serif" font-size="11pt" font-style="normal" font-weight="normal" text-decoration="normal" x="1649.0696967605002" y="79.55244007099999" text-anchor="start" dominant-baseline="alphabetic">SvgUtil</text></g><path fill="none" stroke="none"/><g><path fill="white" stroke="black" paint-order="fill stroke markers" d=" M 1928.25497702 51.782594461 L 2187.702368181 51.782594461 L 2187.702368181 95.887643371 L 1928.25497702 95.887643371 L 1928.25497702 51.782594461 Z" stroke-miterlimit="10" stroke-width="2.613632528" stroke-dasharray=""/></g><g><g/><text fill="black" stroke="none" font-family="sans-serif" font-size="11pt" font-style="normal" font-weight="normal" text-decoration="normal" x="1945.9786726005" y="79.55244007099999" text-anchor="start" dominant-baseline="alphabetic">CssToComponentMethodReflector</text></g></g><g><path fill="white" stroke="black" paint-order="fill stroke markers" d=" M 112.7236955805 104.05524502099999 L 129.0588988805 104.05524502099999 L 129.0588988805 1491.7307653559994 L 112.7236955805 1491.7307653559994 L 112.7236955805 104.05524502099999" stroke-miterlimit="10" stroke-width="1.3612669416666667" stroke-dasharray=""/><path fill="white" stroke="black" paint-order="fill stroke markers" d=" M 1119.6466961705 197.16590383099998 L 1135.9818994705001 197.16590383099998 L 1135.9818994705001 235.553631586 L 1119.6466961705 235.553631586 L 1119.6466961705 197.16590383099998" stroke-miterlimit="10" stroke-width="1.3612669416666667" stroke-dasharray=""/><path fill="white" stroke="black" paint-order="fill stroke markers" d=" M 687.0284168538333 235.553631586 L 703.3636201538334 235.553631586 L 703.3636201538334 568.791778906 L 687.0284168538333 568.791778906 L 687.0284168538333 235.553631586" stroke-miterlimit="10" stroke-width="1.3612669416666667" stroke-dasharray=""/><path fill="white" stroke="black" paint-order="fill stroke markers" d=" M 516.1326714205 365.418497821 L 532.4678747205 365.418497821 L 532.4678747205 403.80622557600003 L 516.1326714205 403.80622557600003 L 516.1326714205 365.418497821" stroke-miterlimit="10" stroke-width="1.3612669416666667" stroke-dasharray=""/><path fill="white" stroke="black" paint-order="fill stroke markers" d=" M 1119.6466961705 568.791778906 L 1135.9818994705001 568.791778906 L 1135.9818994705001 1450.8927571059996 L 1119.6466961705 1450.8927571059996 L 1119.6466961705 568.791778906" stroke-miterlimit="10" stroke-width="1.3612669416666667" stroke-dasharray=""/><path fill="white" stroke="black" paint-order="fill stroke markers" d=" M 1325.2232736605001 607.179506661 L 1341.5584769605002 607.179506661 L 1341.5584769605002 1412.5050293509996 L 1325.2232736605001 1412.5050293509996 L 1325.2232736605001 607.179506661" stroke-miterlimit="10" stroke-width="1.3612669416666667" stroke-dasharray=""/><path fill="white" stroke="black" paint-order="fill stroke markers" d=" M 1467.3387480271667 645.567234416 L 1483.6739513271668 645.567234416 L 1483.6739513271668 1319.3943705409997 L 1467.3387480271667 1319.3943705409997 L 1467.3387480271667 645.567234416" stroke-miterlimit="10" stroke-width="1.3612669416666667" stroke-dasharray=""/><path fill="white" stroke="black" paint-order="fill stroke markers" d=" M 1663.4020951105 683.954962171 L 1679.7372984105002 683.954962171 L 1679.7372984105002 777.065620981 L 1663.4020951105 777.065620981 L 1663.4020951105 683.954962171" stroke-miterlimit="10" stroke-width="1.3612669416666667" stroke-dasharray=""/><path fill="white" stroke="black" paint-order="fill stroke markers" d=" M 2049.8110709505 870.1762797910001 L 2066.1462742505 870.1762797910001 L 2066.1462742505 1040.062394111 L 2049.8110709505 1040.062394111 L 2049.8110709505 870.1762797910001" stroke-miterlimit="10" stroke-width="1.3612669416666667" stroke-dasharray=""/><path fill="white" stroke="black" paint-order="fill stroke markers" d=" M 1127.8142978205 963.2869386010001 L 1144.1495011205002 963.2869386010001 L 1144.1495011205002 1001.6746663560001 L 1127.8142978205 1001.6746663560001 L 1127.8142978205 963.2869386010001" stroke-miterlimit="10" stroke-width="1.3612669416666667" stroke-dasharray=""/><path fill="white" stroke="black" paint-order="fill stroke markers" d=" M 1475.5063496771668 1094.785325166 L 1491.8415529771669 1094.785325166 L 1491.8415529771669 1226.2837117309998 L 1475.5063496771668 1226.2837117309998 L 1475.5063496771668 1094.785325166" stroke-miterlimit="10" stroke-width="1.3612669416666667" stroke-dasharray=""/><path fill="white" stroke="black" paint-order="fill stroke markers" d=" M 1127.8142978205 1133.173052921 L 1144.1495011205002 1133.173052921 L 1144.1495011205002 1226.2837117309998 L 1127.8142978205 1226.2837117309998 L 1127.8142978205 1133.173052921" stroke-miterlimit="10" stroke-width="1.3612669416666667" stroke-dasharray=""/><path fill="white" stroke="black" paint-order="fill stroke markers" d=" M 129.0588988805 139.99269228099996 L 137.2265005305 139.99269228099996 M 137.2265005305 121.20720848599997 L 493.26338680050003 121.20720848599997 L 507.9650697705 135.90889145599996 L 507.9650697705 158.77817607599997 L 137.2265005305 158.77817607599997 L 137.2265005305 121.20720848599997 M 493.26338680050003 121.20720848599997 L 493.26338680050003 135.90889145599996 L 507.9650697705 135.90889145599996" stroke-miterlimit="10" stroke-width="1.3612669416666667" stroke-dasharray=""/><g><text fill="black" stroke="none" font-family="sans-serif" font-size="11pt" font-style="normal" font-weight="normal" text-decoration="normal" x="160.09578515049998" y="144.07649310599996" text-anchor="start" dominant-baseline="alphabetic">Load Component and Ports Into the Model (Ref. 1)</text></g><g><g><rect fill="white" stroke="none" x="510.4025170305" y="175.930139541" width="227.90056099" height="21.23576429"/></g><text fill="black" stroke="none" font-family="sans-serif" font-size="11pt" font-style="normal" font-weight="normal" text-decoration="normal" x="512.8527975255" y="190.63182251099997" text-anchor="start" dominant-baseline="alphabetic">notifyListeners [onAddComponent]</text></g><g><path fill="none" stroke="black" paint-order="fill stroke markers" d=" M 129.0588988805 197.16590383099998 L 1116.9241622871666 197.16590383099998" stroke-miterlimit="10" stroke-width="1.3612669416666667" stroke-dasharray=""/><g transform="translate(1119.6466961705,197.16590383099998) translate(-1119.6466961705,-197.16590383099998)"><path fill="black" stroke="none" paint-order="stroke fill markers" d=" M 1106.0340267538334 190.35956912266664 L 1119.6466961705 197.16590383099998 L 1106.0340267538334 203.97223853933332 Z"/></g></g><g><g><rect fill="white" stroke="none" x="859.0548776671667" y="214.317867296" width="104.90056099" height="21.23576429"/></g><text fill="black" stroke="none" font-family="sans-serif" font-size="11pt" font-style="normal" font-weight="normal" text-decoration="normal" x="861.5051581621667" y="229.01955026599998" text-anchor="start" dominant-baseline="alphabetic">addComponent</text></g><g><path fill="none" stroke="black" paint-order="fill stroke markers" d=" M 1119.6466961705 235.553631586 L 706.0861540371667 235.553631586" stroke-miterlimit="10" stroke-width="1.3612669416666667" stroke-dasharray=""/><g transform="translate(703.3636201538334,235.553631586) translate(-703.3636201538334,-235.553631586)"><path fill="black" stroke="none" paint-order="stroke fill markers" d=" M 716.9762895705001 228.74729687766666 L 703.3636201538334 235.553631586 L 716.9762895705001 242.35996629433333 Z"/></g></g><g><g><rect fill="white" stroke="none" x="722.6936107255001" y="289.459802476" width="374.90056099" height="21.23576429"/></g><text fill="black" stroke="none" font-family="sans-serif" font-size="11pt" font-style="normal" font-weight="normal" text-decoration="normal" x="725.1438912205001" y="304.161485446" text-anchor="start" dominant-baseline="alphabetic">addListenerWithOwner(simulator::addEvent, component)</text></g><g><path fill="none" stroke="black" paint-order="fill stroke markers" d=" M 703.3636201538334 310.695566766 L 768.7044333538333 310.695566766 L 768.7044333538333 327.030770066 L 706.0861540371667 327.030770066" stroke-miterlimit="10" stroke-width="1.3612669416666667" stroke-dasharray=""/><g transform="translate(703.3636201538334,327.030770066) translate(-703.3636201538334,-327.030770066)"><path fill="black" stroke="none" paint-order="stroke fill markers" d=" M 716.9762895705001 320.22443535766666 L 703.3636201538334 327.030770066 L 716.9762895705001 333.83710477433334 Z"/></g></g><g><g><rect fill="white" stroke="none" x="551.7978652921666" y="344.182733531" width="115.90056099" height="21.23576429"/></g><text fill="black" stroke="none" font-family="sans-serif" font-size="11pt" font-style="normal" font-weight="normal" text-decoration="normal" x="554.2481457871667" y="358.884416501" text-anchor="start" dominant-baseline="alphabetic">addEvents(initial)</text></g><g><path fill="none" stroke="black" paint-order="fill stroke markers" d=" M 687.0284168538333 365.418497821 L 535.1904086038334 365.418497821" stroke-miterlimit="10" stroke-width="1.3612669416666667" stroke-dasharray=""/><g transform="translate(532.4678747205,365.418497821) translate(-532.4678747205,-365.418497821)"><path fill="black" stroke="none" paint-order="stroke fill markers" d=" M 546.0805441371667 358.6121631126667 L 532.4678747205 365.418497821 L 546.0805441371667 372.22483252933336 Z"/></g></g><g><g><rect fill="white" stroke="none" x="607.2978652921666" y="382.570461286" width="4.90056099" height="21.23576429"/></g><text fill="black" stroke="none" font-family="sans-serif" font-size="11pt" font-style="normal" font-weight="normal" text-decoration="normal" x="609.7481457871667" y="397.272144256" text-anchor="start" dominant-baseline="alphabetic"></text></g><g><path fill="none" stroke="black" paint-order="fill stroke markers" d=" M 532.4678747205 403.80622557600003 L 684.3058829705 403.80622557600003" stroke-miterlimit="10" stroke-width="1.3612669416666667" stroke-dasharray="6.53408132"/><g transform="translate(687.0284168538333,403.80622557600003) translate(-687.0284168538333,-403.80622557600003)"><path fill="black" stroke="none" paint-order="stroke fill markers" d=" M 673.4157474371666 396.9998908676667 L 687.0284168538333 403.80622557600003 L 673.4157474371666 410.61256028433337 Z"/></g></g><g><g><rect fill="white" stroke="none" x="722.6936107255001" y="438.110152506" width="274.90056099" height="21.23576429"/></g><text fill="black" stroke="none" font-family="sans-serif" font-size="11pt" font-style="normal" font-weight="normal" text-decoration="normal" x="725.1438912205001" y="452.811835476" text-anchor="start" dominant-baseline="alphabetic">component.setEventScheduler(simulator)</text></g><g><path fill="none" stroke="black" paint-order="fill stroke markers" d=" M 703.3636201538334 459.34591679600004 L 768.7044333538333 459.34591679600004 L 768.7044333538333 475.68112009600003 L 706.0861540371667 475.68112009600003" stroke-miterlimit="10" stroke-width="1.3612669416666667" stroke-dasharray=""/><g transform="translate(703.3636201538334,475.68112009600003) translate(-703.3636201538334,-475.68112009600003)"><path fill="black" stroke="none" paint-order="stroke fill markers" d=" M 716.9762895705001 468.8747853876667 L 703.3636201538334 475.68112009600003 L 716.9762895705001 482.48745480433337 Z"/></g></g><g><g><rect fill="white" stroke="none" x="722.6936107255001" y="492.83308356099997" width="207.90056099" height="21.23576429"/></g><text fill="black" stroke="none" font-family="sans-serif" font-size="11pt" font-style="normal" font-weight="normal" text-decoration="normal" x="725.1438912205001" y="507.53476653099995" text-anchor="start" dominant-baseline="alphabetic">removeOnDestroy(component)</text></g><g><path fill="none" stroke="black" paint-order="fill stroke markers" d=" M 703.3636201538334 514.068847851 L 768.7044333538333 514.068847851 L 768.7044333538333 530.404051151 L 706.0861540371667 530.404051151" stroke-miterlimit="10" stroke-width="1.3612669416666667" stroke-dasharray=""/><g transform="translate(703.3636201538334,530.404051151) translate(-703.3636201538334,-530.404051151)"><path fill="black" stroke="none" paint-order="stroke fill markers" d=" M 716.9762895705001 523.5977164426666 L 703.3636201538334 530.404051151 L 716.9762895705001 537.2103858593333 Z"/></g></g><g><g><rect fill="white" stroke="none" x="838.5548776671667" y="547.556014616" width="145.90056099" height="21.23576429"/></g><text fill="black" stroke="none" font-family="sans-serif" font-size="11pt" font-style="normal" font-weight="normal" text-decoration="normal" x="841.0051581621667" y="562.257697586" text-anchor="start" dominant-baseline="alphabetic">onComponentsAdded</text></g><g><path fill="none" stroke="black" paint-order="fill stroke markers" d=" M 703.3636201538334 568.791778906 L 1116.9241622871666 568.791778906" stroke-miterlimit="10" stroke-width="1.3612669416666667" stroke-dasharray=""/><g transform="translate(1119.6466961705,568.791778906) translate(-1119.6466961705,-568.791778906)"><path fill="black" stroke="none" paint-order="stroke fill markers" d=" M 1106.0340267538334 561.9854441976667 L 1119.6466961705 568.791778906 L 1106.0340267538334 575.5981136143333 Z"/></g></g><g><g><rect fill="white" stroke="none" x="1178.1523060705001" y="585.943742371" width="104.90056099" height="21.23576429"/></g><text fill="black" stroke="none" font-family="sans-serif" font-size="11pt" font-style="normal" font-weight="normal" text-decoration="normal" x="1180.6025865655001" y="600.645425341" text-anchor="start" dominant-baseline="alphabetic">addComponent</text></g><g><path fill="none" stroke="black" paint-order="fill stroke markers" d=" M 1135.9818994705001 607.179506661 L 1322.5007397771667 607.179506661" stroke-miterlimit="10" stroke-width="1.3612669416666667" stroke-dasharray=""/><g transform="translate(1325.2232736605001,607.179506661) translate(-1325.2232736605001,-607.179506661)"><path fill="black" stroke="none" paint-order="stroke fill markers" d=" M 1311.6106042438334 600.3731719526667 L 1325.2232736605001 607.179506661 L 1311.6106042438334 613.9858413693333 Z"/></g></g><g><g><rect fill="white" stroke="none" x="1363.4983319988335" y="624.331470126" width="81.90056099" height="21.23576429"/></g><text fill="black" stroke="none" font-family="sans-serif" font-size="11pt" font-style="normal" font-weight="normal" text-decoration="normal" x="1365.9486124938335" y="639.033153096" text-anchor="start" dominant-baseline="alphabetic">&lt;&lt;create&gt;&gt;</text></g><g><path fill="none" stroke="black" paint-order="fill stroke markers" d=" M 1341.5584769605002 645.567234416 L 1464.6162141438333 645.567234416" stroke-miterlimit="10" stroke-width="1.3612669416666667" stroke-dasharray=""/><g transform="translate(1467.3387480271667,645.567234416) translate(-1467.3387480271667,-645.567234416)"><path fill="black" stroke="none" paint-order="stroke fill markers" d=" M 1453.7260786105 638.7608997076667 L 1467.3387480271667 645.567234416 L 1453.7260786105 652.3735691243334 Z"/></g></g><g><g><rect fill="white" stroke="none" x="1507.0877427238336" y="662.719197881" width="132.90056099" height="21.23576429"/></g><text fill="black" stroke="none" font-family="sans-serif" font-size="11pt" font-style="normal" font-weight="normal" text-decoration="normal" x="1509.5380232188336" y="677.420880851" text-anchor="start" dominant-baseline="alphabetic">loadComponentSvg</text></g><g><path fill="none" stroke="black" paint-order="fill stroke markers" d=" M 1483.6739513271668 683.954962171 L 1660.6795612271667 683.954962171" stroke-miterlimit="10" stroke-width="1.3612669416666667" stroke-dasharray=""/><g transform="translate(1663.4020951105,683.954962171) translate(-1663.4020951105,-683.954962171)"><path fill="black" stroke="none" paint-order="stroke fill markers" d=" M 1649.7894256938334 677.1486274626667 L 1663.4020951105 683.954962171 L 1649.7894256938334 690.7612968793334 Z"/></g></g><path fill="white" stroke="black" paint-order="fill stroke markers" d=" M 1679.7372984105002 719.892409431 L 1687.9049000605003 719.892409431 M 1687.9049000605003 701.106925636 L 2026.9417863305002 701.106925636 L 2041.6434693005003 715.808608606 L 2041.6434693005003 738.677893226 L 1687.9049000605003 738.677893226 L 1687.9049000605003 701.106925636 M 2026.9417863305002 701.106925636 L 2026.9417863305002 715.808608606 L 2041.6434693005003 715.808608606" stroke-miterlimit="10" stroke-width="1.3612669416666667" stroke-dasharray=""/><g><text fill="black" stroke="none" font-family="sans-serif" font-size="11pt" font-style="normal" font-weight="normal" text-decoration="normal" x="1710.7741846805002" y="723.9762102560001" text-anchor="start" dominant-baseline="alphabetic">loads Svg as fxml objects using external Library</text></g><g><g><rect fill="white" stroke="none" x="1509.0877427238336" y="755.829856691" width="128.90056099" height="21.23576429"/></g><text fill="black" stroke="none" font-family="sans-serif" font-size="11pt" font-style="normal" font-weight="normal" text-decoration="normal" x="1511.5380232188336" y="770.531539661" text-anchor="start" dominant-baseline="alphabetic">return [svgContent]</text></g><g><path fill="none" stroke="black" paint-order="fill stroke markers" d=" M 1663.4020951105 777.065620981 L 1486.3964852105003 777.065620981" stroke-miterlimit="10" stroke-width="1.3612669416666667" stroke-dasharray="6.53408132"/><g transform="translate(1483.6739513271668,777.065620981) translate(-1483.6739513271668,-777.065620981)"><path fill="black" stroke="none" paint-order="stroke fill markers" d=" M 1497.2866207438335 770.2592862726667 L 1483.6739513271668 777.065620981 L 1497.2866207438335 783.8719556893334 Z"/></g></g><g><g><rect fill="white" stroke="none" x="1503.0039418988335" y="794.217584446" width="97.90056099" height="21.23576429"/></g><text fill="black" stroke="none" font-family="sans-serif" font-size="11pt" font-style="normal" font-weight="normal" text-decoration="normal" x="1505.4542223938336" y="808.919267416" text-anchor="start" dominant-baseline="alphabetic">initTransforms</text></g><g><path fill="none" stroke="black" paint-order="fill stroke markers" d=" M 1483.6739513271668 815.4533487360001 L 1549.0147645271668 815.4533487360001 L 1549.0147645271668 831.788552036 L 1486.3964852105003 831.788552036" stroke-miterlimit="10" stroke-width="1.3612669416666667" stroke-dasharray=""/><g transform="translate(1483.6739513271668,831.788552036) translate(-1483.6739513271668,-831.788552036)"><path fill="black" stroke="none" paint-order="stroke fill markers" d=" M 1497.2866207438335 824.9822173276667 L 1483.6739513271668 831.788552036 L 1497.2866207438335 838.5948867443334 Z"/></g></g><g><g><rect fill="white" stroke="none" x="1689.7922306438334" y="848.940515501" width="153.90056099" height="21.23576429"/></g><text fill="black" stroke="none" font-family="sans-serif" font-size="11pt" font-style="normal" font-weight="normal" text-decoration="normal" x="1692.2425111388334" y="863.642198471" text-anchor="start" dominant-baseline="alphabetic">initComponentMethods</text></g><g><path fill="none" stroke="black" paint-order="fill stroke markers" d=" M 1483.6739513271668 870.1762797910001 L 2047.0885370671665 870.1762797910001" stroke-miterlimit="10" stroke-width="1.3612669416666667" stroke-dasharray=""/><g transform="translate(2049.8110709505,870.1762797910001) translate(-2049.8110709505,-870.1762797910001)"><path fill="black" stroke="none" paint-order="stroke fill markers" d=" M 2036.1984015338332 863.3699450826667 L 2049.8110709505 870.1762797910001 L 2036.1984015338332 876.9826144993334 Z"/></g></g><g><g><rect fill="white" stroke="none" x="2085.4762648221667" y="887.3282432560001" width="160.90056099" height="21.23576429"/></g><text fill="black" stroke="none" font-family="sans-serif" font-size="11pt" font-style="normal" font-weight="normal" text-decoration="normal" x="2087.9265453171665" y="902.029926226" text-anchor="start" dominant-baseline="alphabetic">createSvgStyleModifiers</text></g><g><path fill="none" stroke="black" paint-order="fill stroke markers" d=" M 2066.1462742505 908.5640075460001 L 2131.4870874505 908.5640075460001 L 2131.4870874505 924.8992108460001 L 2068.868808133833 924.8992108460001" stroke-miterlimit="10" stroke-width="1.3612669416666667" stroke-dasharray=""/><g transform="translate(2066.1462742505,924.8992108460001) translate(-2066.1462742505,-924.8992108460001)"><path fill="black" stroke="none" paint-order="stroke fill markers" d=" M 2079.7589436671665 918.0928761376667 L 2066.1462742505 924.8992108460001 L 2079.7589436671665 931.7055455543334 Z"/></g></g><g><g><rect fill="white" stroke="none" x="1462.5300055405" y="942.0511743110001" width="268.90056099" height="21.23576429"/></g><text fill="black" stroke="none" font-family="sans-serif" font-size="11pt" font-style="normal" font-weight="normal" text-decoration="normal" x="1464.9802860355" y="956.752857281" text-anchor="start" dominant-baseline="alphabetic">onUpdateStyle.addListener(styleModifier)</text></g><g><path fill="none" stroke="black" paint-order="fill stroke markers" d=" M 2049.8110709505 963.2869386010001 L 1146.8720350038336 963.2869386010001" stroke-miterlimit="10" stroke-width="1.3612669416666667" stroke-dasharray=""/><g transform="translate(1144.1495011205002,963.2869386010001) translate(-1144.1495011205002,-963.2869386010001)"><path fill="black" stroke="none" paint-order="stroke fill markers" d=" M 1157.7621705371669 956.4806038926667 L 1144.1495011205002 963.2869386010001 L 1157.7621705371669 970.0932733093334 Z"/></g></g><g><g><rect fill="white" stroke="none" x="1594.5300055405" y="980.4389020660001" width="4.90056099" height="21.23576429"/></g><text fill="black" stroke="none" font-family="sans-serif" font-size="11pt" font-style="normal" font-weight="normal" text-decoration="normal" x="1596.9802860355" y="995.1405850360001" text-anchor="start" dominant-baseline="alphabetic"></text></g><g><path fill="none" stroke="black" paint-order="fill stroke markers" d=" M 1144.1495011205002 1001.6746663560001 L 2047.0885370671665 1001.6746663560001" stroke-miterlimit="10" stroke-width="1.3612669416666667" stroke-dasharray="6.53408132"/><g transform="translate(2049.8110709505,1001.6746663560001) translate(-2049.8110709505,-1001.6746663560001)"><path fill="black" stroke="none" paint-order="stroke fill markers" d=" M 2036.1984015338332 994.8683316476668 L 2049.8110709505 1001.6746663560001 L 2036.1984015338332 1008.4810010643334 Z"/></g></g><g><g><rect fill="white" stroke="none" x="1764.2922306438334" y="1018.826629821" width="4.90056099" height="21.23576429"/></g><text fill="black" stroke="none" font-family="sans-serif" font-size="11pt" font-style="normal" font-weight="normal" text-decoration="normal" x="1766.7425111388334" y="1033.528312791" text-anchor="start" dominant-baseline="alphabetic"></text></g><g><path fill="none" stroke="black" paint-order="fill stroke markers" d=" M 2049.8110709505 1040.062394111 L 1486.3964852105003 1040.062394111" stroke-miterlimit="10" stroke-width="1.3612669416666667" stroke-dasharray="6.53408132"/><g transform="translate(1483.6739513271668,1040.062394111) translate(-1483.6739513271668,-1040.062394111)"><path fill="black" stroke="none" paint-order="stroke fill markers" d=" M 1497.2866207438335 1033.2560594026668 L 1483.6739513271668 1040.062394111 L 1497.2866207438335 1046.8687288193332 Z"/></g></g><g><g><rect fill="white" stroke="none" x="1511.1715435488336" y="1057.2143575759999" width="121.90056099" height="21.23576429"/></g><text fill="black" stroke="none" font-family="sans-serif" font-size="11pt" font-style="normal" font-weight="normal" text-decoration="normal" x="1513.6218240438336" y="1071.916040546" text-anchor="start" dominant-baseline="alphabetic">updateVisualState</text></g><g><path fill="none" stroke="black" paint-order="fill stroke markers" d=" M 1483.6739513271668 1078.4501218659998 L 1557.1823661771668 1078.4501218659998 L 1557.1823661771668 1094.785325166 L 1494.5640868605003 1094.785325166" stroke-miterlimit="10" stroke-width="1.3612669416666667" stroke-dasharray=""/><g transform="translate(1491.8415529771669,1094.785325166) translate(-1491.8415529771669,-1094.785325166)"><path fill="black" stroke="none" paint-order="stroke fill markers" d=" M 1505.4542223938336 1087.9789904576667 L 1491.8415529771669 1094.785325166 L 1505.4542223938336 1101.5916598743331 Z"/></g></g><g><g><rect fill="white" stroke="none" x="1203.3776449038335" y="1111.937288631" width="212.90056099" height="21.23576429"/></g><text fill="black" stroke="none" font-family="sans-serif" font-size="11pt" font-style="normal" font-weight="normal" text-decoration="normal" x="1205.8279253988335" y="1126.638971601" text-anchor="start" dominant-baseline="alphabetic">notifyListeners [onUpdateStyles]</text></g><g><path fill="none" stroke="black" paint-order="fill stroke markers" d=" M 1475.5063496771668 1133.173052921 L 1146.8720350038336 1133.173052921" stroke-miterlimit="10" stroke-width="1.3612669416666667" stroke-dasharray=""/><g transform="translate(1144.1495011205002,1133.173052921) translate(-1144.1495011205002,-1133.173052921)"><path fill="black" stroke="none" paint-order="stroke fill markers" d=" M 1157.7621705371669 1126.3667182126667 L 1144.1495011205002 1133.173052921 L 1157.7621705371669 1139.9793876293331 Z"/></g></g><path fill="white" stroke="black" paint-order="fill stroke markers" d=" M 1144.1495011205002 1169.110500181 L 1152.3171027705002 1169.110500181 M 1152.3171027705002 1150.3250163859998 L 1302.3539890405002 1150.3250163859998 L 1317.0556720105003 1165.0266993559999 L 1317.0556720105003 1187.8959839759998 L 1152.3171027705002 1187.8959839759998 L 1152.3171027705002 1150.3250163859998 M 1302.3539890405002 1150.3250163859998 L 1302.3539890405002 1165.0266993559999 L 1317.0556720105003 1165.0266993559999" stroke-miterlimit="10" stroke-width="1.3612669416666667" stroke-dasharray=""/><g><text fill="black" stroke="none" font-family="sans-serif" font-size="11pt" font-style="normal" font-weight="normal" text-decoration="normal" x="1175.1863873905002" y="1173.194301006" text-anchor="start" dominant-baseline="alphabetic">run style modifiers</text></g><g><g><rect fill="white" stroke="none" x="1307.3776449038335" y="1205.047947441" width="4.90056099" height="21.23576429"/></g><text fill="black" stroke="none" font-family="sans-serif" font-size="11pt" font-style="normal" font-weight="normal" text-decoration="normal" x="1309.8279253988335" y="1219.749630411" text-anchor="start" dominant-baseline="alphabetic"></text></g><g><path fill="none" stroke="black" paint-order="fill stroke markers" d=" M 1144.1495011205002 1226.2837117309998 L 1472.7838157938334 1226.2837117309998" stroke-miterlimit="10" stroke-width="1.3612669416666667" stroke-dasharray="6.53408132"/><g transform="translate(1475.5063496771668,1226.2837117309998) translate(-1475.5063496771668,-1226.2837117309998)"><path fill="black" stroke="none" paint-order="stroke fill markers" d=" M 1461.8936802605 1219.4773770226666 L 1475.5063496771668 1226.2837117309998 L 1461.8936802605 1233.090046439333 Z"/></g></g><g><g><rect fill="white" stroke="none" x="1503.0039418988335" y="1243.4356751959997" width="100.90056099" height="21.23576429"/></g><text fill="black" stroke="none" font-family="sans-serif" font-size="11pt" font-style="normal" font-weight="normal" text-decoration="normal" x="1505.4542223938336" y="1258.1373581659998" text-anchor="start" dominant-baseline="alphabetic">updatePosition</text></g><g><path fill="none" stroke="black" paint-order="fill stroke markers" d=" M 1483.6739513271668 1264.6714394859996 L 1549.0147645271668 1264.6714394859996 L 1549.0147645271668 1281.0066427859997 L 1486.3964852105003 1281.0066427859997" stroke-miterlimit="10" stroke-width="1.3612669416666667" stroke-dasharray=""/><g transform="translate(1483.6739513271668,1281.0066427859997) translate(-1483.6739513271668,-1281.0066427859997)"><path fill="black" stroke="none" paint-order="stroke fill markers" d=" M 1497.2866207438335 1274.2003080776665 L 1483.6739513271668 1281.0066427859997 L 1497.2866207438335 1287.812977494333 Z"/></g></g><g><g><rect fill="white" stroke="none" x="1401.9983319988335" y="1298.1586062509998" width="4.90056099" height="21.23576429"/></g><text fill="black" stroke="none" font-family="sans-serif" font-size="11pt" font-style="normal" font-weight="normal" text-decoration="normal" x="1404.4486124938335" y="1312.860289221" text-anchor="start" dominant-baseline="alphabetic"></text></g><g><path fill="none" stroke="black" paint-order="fill stroke markers" d=" M 1467.3387480271667 1319.3943705409997 L 1344.2810108438337 1319.3943705409997" stroke-miterlimit="10" stroke-width="1.3612669416666667" stroke-dasharray="6.53408132"/><g transform="translate(1341.5584769605002,1319.3943705409997) translate(-1341.5584769605002,-1319.3943705409997)"><path fill="black" stroke="none" paint-order="stroke fill markers" d=" M 1355.171146377167 1312.5880358326665 L 1341.5584769605002 1319.3943705409997 L 1355.171146377167 1326.200705249333 Z"/></g></g><g><g><rect fill="white" stroke="none" x="1360.888467532167" y="1336.5463340059996" width="85.90056099" height="21.23576429"/></g><text fill="black" stroke="none" font-family="sans-serif" font-size="11pt" font-style="normal" font-weight="normal" text-decoration="normal" x="1363.338748027167" y="1351.2480169759997" text-anchor="start" dominant-baseline="alphabetic">addSubView</text></g><g><path fill="none" stroke="black" paint-order="fill stroke markers" d=" M 1341.5584769605002 1357.7820982959995 L 1406.8992901605002 1357.7820982959995 L 1406.8992901605002 1374.1173015959996 L 1344.2810108438337 1374.1173015959996" stroke-miterlimit="10" stroke-width="1.3612669416666667" stroke-dasharray=""/><g transform="translate(1341.5584769605002,1374.1173015959996) translate(-1341.5584769605002,-1374.1173015959996)"><path fill="black" stroke="none" paint-order="stroke fill markers" d=" M 1355.171146377167 1367.3109668876664 L 1341.5584769605002 1374.1173015959996 L 1355.171146377167 1380.9236363043328 Z"/></g></g><g><g><rect fill="white" stroke="none" x="1228.1523060705001" y="1391.2692650609997" width="4.90056099" height="21.23576429"/></g><text fill="black" stroke="none" font-family="sans-serif" font-size="11pt" font-style="normal" font-weight="normal" text-decoration="normal" x="1230.6025865655001" y="1405.9709480309998" text-anchor="start" dominant-baseline="alphabetic"></text></g><g><path fill="none" stroke="black" paint-order="fill stroke markers" d=" M 1325.2232736605001 1412.5050293509996 L 1138.7044333538336 1412.5050293509996" stroke-miterlimit="10" stroke-width="1.3612669416666667" stroke-dasharray="6.53408132"/><g transform="translate(1135.9818994705001,1412.5050293509996) translate(-1135.9818994705001,-1412.5050293509996)"><path fill="black" stroke="none" paint-order="stroke fill markers" d=" M 1149.5945688871668 1405.6986946426664 L 1135.9818994705001 1412.5050293509996 L 1149.5945688871668 1419.3113640593328 Z"/></g></g><g><g><rect fill="white" stroke="none" x="621.9025170305" y="1429.6569928159997" width="4.90056099" height="21.23576429"/></g><text fill="black" stroke="none" font-family="sans-serif" font-size="11pt" font-style="normal" font-weight="normal" text-decoration="normal" x="624.3527975255" y="1444.3586757859998" text-anchor="start" dominant-baseline="alphabetic"></text></g><g><path fill="none" stroke="black" paint-order="fill stroke markers" d=" M 1119.6466961705 1450.8927571059996 L 131.78143276383335 1450.8927571059996" stroke-miterlimit="10" stroke-width="1.3612669416666667" stroke-dasharray="6.53408132"/><g transform="translate(129.0588988805,1450.8927571059996) translate(-129.0588988805,-1450.8927571059996)"><path fill="black" stroke="none" paint-order="stroke fill markers" d=" M 142.6715682971667 1444.0864223976664 L 129.0588988805 1450.8927571059996 L 142.6715682971667 1457.6990918143329 Z"/></g></g><g><g/><path fill="none" stroke="black" paint-order="fill stroke markers" d=" M 458.9594598705 252.705595051 L 1103.3114928705 252.705595051 L 1103.3114928705 420.958189041 L 458.9594598705 420.958189041 L 458.9594598705 252.705595051 Z" stroke-miterlimit="10" stroke-width="2.3336004714285714" stroke-dasharray=""/><path fill="white" stroke="black" paint-order="fill stroke markers" d=" M 458.9594598705 252.705595051 L 458.9594598705 272.307839011 L 509.62986647049996 272.307839011 L 519.4309884505 262.506717031 L 519.4309884505 252.705595051 L 458.9594598705 252.705595051" stroke-miterlimit="10" stroke-width="2.3336004714285714" stroke-dasharray=""/><text fill="black" stroke="none" font-family="sans-serif" font-size="8.8pt" font-style="normal" font-weight="bold" text-decoration="normal" x="475.2946631705" y="265.773757691" text-anchor="start" dominant-baseline="alphabetic">opt</text><text fill="black" stroke="none" font-family="sans-serif" font-size="8.8pt" font-style="normal" font-weight="bold" text-decoration="normal" x="535.7661917505" y="265.773757691" text-anchor="start" dominant-baseline="alphabetic">[isDynamicComponent?]</text></g></g><g/><g/><g/><g/><g/><g/><g/><g/></g></svg>