<svg version="1.1" xmlns="http://www.w3.org/2000/svg" xmlns:xlink="http://www.w3.org/1999/xlink" width="2431" height="1693"><defs/><g><g/><g/><g/><g/><g/><g/><g/><g/><g/><g/><g/><g/><g/><g/><g/><g/><g/><g/><g/><g/><g/><g/><g/><g/><g/><g/><g/><g/><g/><g/><g/><g/><g><rect fill="white" stroke="none" x="0" y="0" width="2431" height="1693"/></g><g><text fill="black" stroke="none" font-family="sans-serif" font-size="16.5pt" font-style="normal" font-weight="normal" text-decoration="normal" x="1002.4447767835834" y="24.50280495" text-anchor="start" dominant-baseline="alphabetic">Spawning a component onto the workspace</text></g><g/><g><path fill="none" stroke="black" paint-order="fill stroke markers" d=" M 120.8912972305 95.887643371 L 120.8912972305 1693.4705261109996" stroke-miterlimit="10" stroke-width="1.3612669416666667" stroke-dasharray="12.565541,5.445067766666667"/><path fill="none" stroke="black" paint-order="fill stroke markers" d=" M 524.3002730705 95.887643371 L 524.3002730705 1693.4705261109996" stroke-miterlimit="10" stroke-width="1.3612669416666667" stroke-dasharray="12.565541,5.445067766666667"/><path fill="none" stroke="black" paint-order="fill stroke markers" d=" M 695.1960185038333 95.887643371 L 695.1960185038333 1693.4705261109996" stroke-miterlimit="10" stroke-width="1.3612669416666667" stroke-dasharray="12.565541,5.445067766666667"/><path fill="none" stroke="black" paint-order="fill stroke markers" d=" M 1127.8142978205 95.887643371 L 1127.8142978205 1693.4705261109996" stroke-miterlimit="10" stroke-width="1.3612669416666667" stroke-dasharray="12.565541,5.445067766666667"/><path fill="none" stroke="black" paint-order="fill stroke markers" d=" M 1333.3908753105002 95.887643371 L 1333.3908753105002 1693.4705261109996" stroke-miterlimit="10" stroke-width="1.3612669416666667" stroke-dasharray="12.565541,5.445067766666667"/><path fill="none" stroke="black" paint-order="fill stroke markers" d=" M 1577.6739513271668 95.887643371 L 1577.6739513271668 1693.4705261109996" stroke-miterlimit="10" stroke-width="1.3612669416666667" stroke-dasharray="12.565541,5.445067766666667"/><path fill="none" stroke="black" paint-order="fill stroke markers" d=" M 1749.1246289938335 95.887643371 L 1749.1246289938335 1693.4705261109996" stroke-miterlimit="10" stroke-width="1.3612669416666667" stroke-dasharray="12.565541,5.445067766666667"/><path fill="none" stroke="black" paint-order="fill stroke markers" d=" M 1851.2401033605001 95.887643371 L 1851.2401033605001 1693.4705261109996" stroke-miterlimit="10" stroke-width="1.3612669416666667" stroke-dasharray="12.565541,5.445067766666667"/><path fill="none" stroke="black" paint-order="fill stroke markers" d=" M 2237.6490792005 95.887643371 L 2237.6490792005 1693.4705261109996" stroke-miterlimit="10" stroke-width="1.3612669416666667" stroke-dasharray="12.565541,5.445067766666667"/></g><g><path fill="none" stroke="none"/><g><path fill="white" stroke="black" paint-order="fill stroke markers" d=" M 8.167601649999995 51.782594461 L 233.614992811 51.782594461 L 233.614992811 95.887643371 L 8.167601649999995 95.887643371 L 8.167601649999995 51.782594461 Z" stroke-miterlimit="10" stroke-width="2.613632528" stroke-dasharray=""/></g><g><g/><text fill="black" stroke="none" font-family="sans-serif" font-size="11pt" font-style="normal" font-weight="normal" text-decoration="normal" x="25.8912972305" y="79.55244007099999" text-anchor="start" dominant-baseline="alphabetic">ComponentDragDropHandler</text></g><path fill="none" stroke="none"/><g><path fill="white" stroke="black" paint-order="fill stroke markers" d=" M 475.57657749 51.782594461 L 573.023968651 51.782594461 L 573.023968651 95.887643371 L 475.57657749 95.887643371 L 475.57657749 51.782594461 Z" stroke-miterlimit="10" stroke-width="2.613632528" stroke-dasharray=""/></g><g><g/><text fill="black" stroke="none" font-family="sans-serif" font-size="11pt" font-style="normal" font-weight="normal" text-decoration="normal" x="493.3002730705" y="79.55244007099999" text-anchor="start" dominant-baseline="alphabetic">Simulator</text></g><path fill="none" stroke="none"/><g><path fill="white" stroke="black" paint-order="fill stroke markers" d=" M 656.4723229233333 51.782594461 L 733.9197140843334 51.782594461 L 733.9197140843334 95.887643371 L 656.4723229233333 95.887643371 L 656.4723229233333 51.782594461 Z" stroke-miterlimit="10" stroke-width="2.613632528" stroke-dasharray=""/></g><g><g/><text fill="black" stroke="none" font-family="sans-serif" font-size="11pt" font-style="normal" font-weight="normal" text-decoration="normal" x="674.1960185038333" y="79.55244007099999" text-anchor="start" dominant-baseline="alphabetic">Circuit</text></g><path fill="none" stroke="none"/><g><path fill="white" stroke="black" paint-order="fill stroke markers" d=" M 1091.5906022400002 51.782594461 L 1164.0379934010002 51.782594461 L 1164.0379934010002 95.887643371 L 1091.5906022400002 95.887643371 L 1091.5906022400002 51.782594461 Z" stroke-miterlimit="10" stroke-width="2.613632528" stroke-dasharray=""/></g><g><g/><text fill="black" stroke="none" font-family="sans-serif" font-size="11pt" font-style="normal" font-weight="normal" text-decoration="normal" x="1109.3142978205" y="79.55244007099999" text-anchor="start" dominant-baseline="alphabetic">Event</text></g><path fill="none" stroke="none"/><g><path fill="white" stroke="black" paint-order="fill stroke markers" d=" M 1279.1671797300003 51.782594461 L 1387.6145708910003 51.782594461 L 1387.6145708910003 95.887643371 L 1279.1671797300003 95.887643371 L 1279.1671797300003 51.782594461 Z" stroke-miterlimit="10" stroke-width="2.613632528" stroke-dasharray=""/></g><g><g/><text fill="black" stroke="none" font-family="sans-serif" font-size="11pt" font-style="normal" font-weight="normal" text-decoration="normal" x="1296.8908753105002" y="79.55244007099999" text-anchor="start" dominant-baseline="alphabetic">CircuitView</text></g><path fill="none" stroke="none"/><g><path fill="white" stroke="black" paint-order="fill stroke markers" d=" M 1506.450255746667 51.782594461 L 1648.897646907667 51.782594461 L 1648.897646907667 95.887643371 L 1506.450255746667 95.887643371 L 1506.450255746667 51.782594461 Z" stroke-miterlimit="10" stroke-width="2.613632528" stroke-dasharray=""/></g><g><g/><text fill="black" stroke="none" font-family="sans-serif" font-size="11pt" font-style="normal" font-weight="normal" text-decoration="normal" x="1524.1739513271668" y="79.55244007099999" text-anchor="start" dominant-baseline="alphabetic">ComponentView</text></g><path fill="none" stroke="none"/><g><path fill="white" stroke="black" paint-order="fill stroke markers" d=" M 1705.4009334133336 51.782594461 L 1792.8483245743337 51.782594461 L 1792.8483245743337 95.887643371 L 1705.4009334133336 95.887643371 L 1705.4009334133336 51.782594461 Z" stroke-miterlimit="10" stroke-width="2.613632528" stroke-dasharray=""/></g><g><g/><text fill="black" stroke="none" font-family="sans-serif" font-size="11pt" font-style="normal" font-weight="normal" text-decoration="normal" x="1723.1246289938335" y="79.55244007099999" text-anchor="start" dominant-baseline="alphabetic">FxmlUtil</text></g><path fill="none" stroke="none"/><g><path fill="white" stroke="black" paint-order="fill stroke markers" d=" M 1811.0164077800002 51.782594461 L 1891.4637989410003 51.782594461 L 1891.4637989410003 95.887643371 L 1811.0164077800002 95.887643371 L 1811.0164077800002 51.782594461 Z" stroke-miterlimit="10" stroke-width="2.613632528" stroke-dasharray=""/></g><g><g/><text fill="black" stroke="none" font-family="sans-serif" font-size="11pt" font-style="normal" font-weight="normal" text-decoration="normal" x="1828.7401033605001" y="79.55244007099999" text-anchor="start" dominant-baseline="alphabetic">SvgUtil</text></g><path fill="none" stroke="none"/><g><path fill="white" stroke="black" paint-order="fill stroke markers" d=" M 2107.92538362 51.782594461 L 2367.372774781 51.782594461 L 2367.372774781 95.887643371 L 2107.92538362 95.887643371 L 2107.92538362 51.782594461 Z" stroke-miterlimit="10" stroke-width="2.613632528" stroke-dasharray=""/></g><g><g/><text fill="black" stroke="none" font-family="sans-serif" font-size="11pt" font-style="normal" font-weight="normal" text-decoration="normal" x="2125.6490792005" y="79.55244007099999" text-anchor="start" dominant-baseline="alphabetic">CssToComponentMethodReflector</text></g></g><g><path fill="white" stroke="black" paint-order="fill stroke markers" d=" M 112.7236955805 104.05524502099999 L 129.0588988805 104.05524502099999 L 129.0588988805 1677.1353228109995 L 112.7236955805 1677.1353228109995 L 112.7236955805 104.05524502099999" stroke-miterlimit="10" stroke-width="1.3612669416666667" stroke-dasharray=""/><path fill="white" stroke="black" paint-order="fill stroke markers" d=" M 1119.6466961705 197.16590383099998 L 1135.9818994705001 197.16590383099998 L 1135.9818994705001 235.553631586 L 1119.6466961705 235.553631586 L 1119.6466961705 197.16590383099998" stroke-miterlimit="10" stroke-width="1.3612669416666667" stroke-dasharray=""/><path fill="white" stroke="black" paint-order="fill stroke markers" d=" M 687.0284168538333 235.553631586 L 703.3636201538334 235.553631586 L 703.3636201538334 568.791778906 L 687.0284168538333 568.791778906 L 687.0284168538333 235.553631586" stroke-miterlimit="10" stroke-width="1.3612669416666667" stroke-dasharray=""/><path fill="white" stroke="black" paint-order="fill stroke markers" d=" M 516.1326714205 365.418497821 L 532.4678747205 365.418497821 L 532.4678747205 403.80622557600003 L 516.1326714205 403.80622557600003 L 516.1326714205 365.418497821" stroke-miterlimit="10" stroke-width="1.3612669416666667" stroke-dasharray=""/><path fill="white" stroke="black" paint-order="fill stroke markers" d=" M 1119.6466961705 568.791778906 L 1135.9818994705001 568.791778906 L 1135.9818994705001 1636.2973145609997 L 1119.6466961705 1636.2973145609997 L 1119.6466961705 568.791778906" stroke-miterlimit="10" stroke-width="1.3612669416666667" stroke-dasharray=""/><path fill="white" stroke="black" paint-order="fill stroke markers" d=" M 1325.2232736605001 607.179506661 L 1341.5584769605002 607.179506661 L 1341.5584769605002 1597.9095868059997 L 1325.2232736605001 1597.9095868059997 L 1325.2232736605001 607.179506661" stroke-miterlimit="10" stroke-width="1.3612669416666667" stroke-dasharray=""/><path fill="white" stroke="black" paint-order="fill stroke markers" d=" M 1569.5063496771668 645.567234416 L 1585.8415529771669 645.567234416 L 1585.8415529771669 1504.7989279959997 L 1569.5063496771668 1504.7989279959997 L 1569.5063496771668 645.567234416" stroke-miterlimit="10" stroke-width="1.3612669416666667" stroke-dasharray=""/><path fill="white" stroke="black" paint-order="fill stroke markers" d=" M 1740.9570273438335 683.954962171 L 1757.2922306438336 683.954962171 L 1757.2922306438336 722.342689926 L 1740.9570273438335 722.342689926 L 1740.9570273438335 683.954962171" stroke-miterlimit="10" stroke-width="1.3612669416666667" stroke-dasharray=""/><path fill="white" stroke="black" paint-order="fill stroke markers" d=" M 1843.0725017105 760.7304176810001 L 1859.4077050105002 760.7304176810001 L 1859.4077050105002 853.8410764910001 L 1843.0725017105 853.8410764910001 L 1843.0725017105 760.7304176810001" stroke-miterlimit="10" stroke-width="1.3612669416666667" stroke-dasharray=""/><path fill="white" stroke="black" paint-order="fill stroke markers" d=" M 2229.4814775505 1055.580837246 L 2245.8166808505002 1055.580837246 L 2245.8166808505002 1225.466951566 L 2229.4814775505 1225.466951566 L 2229.4814775505 1055.580837246" stroke-miterlimit="10" stroke-width="1.3612669416666667" stroke-dasharray=""/><path fill="white" stroke="black" paint-order="fill stroke markers" d=" M 1127.8142978205 1148.691496056 L 1144.1495011205002 1148.691496056 L 1144.1495011205002 1187.079223811 L 1127.8142978205 1187.079223811 L 1127.8142978205 1148.691496056" stroke-miterlimit="10" stroke-width="1.3612669416666667" stroke-dasharray=""/><path fill="white" stroke="black" paint-order="fill stroke markers" d=" M 1577.6739513271668 1280.189882621 L 1594.009154627167 1280.189882621 L 1594.009154627167 1411.6882691859998 L 1577.6739513271668 1411.6882691859998 L 1577.6739513271668 1280.189882621" stroke-miterlimit="10" stroke-width="1.3612669416666667" stroke-dasharray=""/><path fill="white" stroke="black" paint-order="fill stroke markers" d=" M 1127.8142978205 1318.577610376 L 1144.1495011205002 1318.577610376 L 1144.1495011205002 1411.6882691859998 L 1127.8142978205 1411.6882691859998 L 1127.8142978205 1318.577610376" stroke-miterlimit="10" stroke-width="1.3612669416666667" stroke-dasharray=""/><path fill="white" stroke="black" paint-order="fill stroke markers" d=" M 129.0588988805 139.99269228099996 L 137.2265005305 139.99269228099996 M 137.2265005305 121.20720848599997 L 493.26338680050003 121.20720848599997 L 507.9650697705 135.90889145599996 L 507.9650697705 158.77817607599997 L 137.2265005305 158.77817607599997 L 137.2265005305 121.20720848599997 M 493.26338680050003 121.20720848599997 L 493.26338680050003 135.90889145599996 L 507.9650697705 135.90889145599996" stroke-miterlimit="10" stroke-width="1.3612669416666667" stroke-dasharray=""/><g><text fill="black" stroke="none" font-family="sans-serif" font-size="11pt" font-style="normal" font-weight="normal" text-decoration="normal" x="160.09578515049998" y="144.07649310599996" text-anchor="start" dominant-baseline="alphabetic">Load Component and Ports Into the Model (Ref. 1)</text></g><g><g><rect fill="white" stroke="none" x="510.4025170305" y="175.930139541" width="227.90056099" height="21.23576429"/></g><text fill="black" stroke="none" font-family="sans-serif" font-size="11pt" font-style="normal" font-weight="normal" text-decoration="normal" x="512.8527975255" y="190.63182251099997" text-anchor="start" dominant-baseline="alphabetic">notifyListeners [onAddComponent]</text></g><g><path fill="none" stroke="black" paint-order="fill stroke markers" d=" M 129.0588988805 197.16590383099998 L 1116.9241622871666 197.16590383099998" stroke-miterlimit="10" stroke-width="1.3612669416666667" stroke-dasharray=""/><g transform="translate(1119.6466961705,197.16590383099998) translate(-1119.6466961705,-197.16590383099998)"><path fill="black" stroke="none" paint-order="stroke fill markers" d=" M 1106.0340267538334 190.35956912266664 L 1119.6466961705 197.16590383099998 L 1106.0340267538334 203.97223853933332 Z"/></g></g><g><g><rect fill="white" stroke="none" x="859.0548776671667" y="214.317867296" width="104.90056099" height="21.23576429"/></g><text fill="black" stroke="none" font-family="sans-serif" font-size="11pt" font-style="normal" font-weight="normal" text-decoration="normal" x="861.5051581621667" y="229.01955026599998" text-anchor="start" dominant-baseline="alphabetic">addComponent</text></g><g><path fill="none" stroke="black" paint-order="fill stroke markers" d=" M 1119.6466961705 235.553631586 L 706.0861540371667 235.553631586" stroke-miterlimit="10" stroke-width="1.3612669416666667" stroke-dasharray=""/><g transform="translate(703.3636201538334,235.553631586) translate(-703.3636201538334,-235.553631586)"><path fill="black" stroke="none" paint-order="stroke fill markers" d=" M 716.9762895705001 228.74729687766666 L 703.3636201538334 235.553631586 L 716.9762895705001 242.35996629433333 Z"/></g></g><g><g><rect fill="white" stroke="none" x="722.6936107255001" y="289.459802476" width="374.90056099" height="21.23576429"/></g><text fill="black" stroke="none" font-family="sans-serif" font-size="11pt" font-style="normal" font-weight="normal" text-decoration="normal" x="725.1438912205001" y="304.161485446" text-anchor="start" dominant-baseline="alphabetic">addListenerWithOwner(simulator::addEvent, component)</text></g><g><path fill="none" stroke="black" paint-order="fill stroke markers" d=" M 703.3636201538334 310.695566766 L 768.7044333538333 310.695566766 L 768.7044333538333 327.030770066 L 706.0861540371667 327.030770066" stroke-miterlimit="10" stroke-width="1.3612669416666667" stroke-dasharray=""/><g transform="translate(703.3636201538334,327.030770066) translate(-703.3636201538334,-327.030770066)"><path fill="black" stroke="none" paint-order="stroke fill markers" d=" M 716.9762895705001 320.22443535766666 L 703.3636201538334 327.030770066 L 716.9762895705001 333.83710477433334 Z"/></g></g><g><g><rect fill="white" stroke="none" x="551.7978652921666" y="344.182733531" width="115.90056099" height="21.23576429"/></g><text fill="black" stroke="none" font-family="sans-serif" font-size="11pt" font-style="normal" font-weight="normal" text-decoration="normal" x="554.2481457871667" y="358.884416501" text-anchor="start" dominant-baseline="alphabetic">addEvents(initial)</text></g><g><path fill="none" stroke="black" paint-order="fill stroke markers" d=" M 687.0284168538333 365.418497821 L 535.1904086038334 365.418497821" stroke-miterlimit="10" stroke-width="1.3612669416666667" stroke-dasharray=""/><g transform="translate(532.4678747205,365.418497821) translate(-532.4678747205,-365.418497821)"><path fill="black" stroke="none" paint-order="stroke fill markers" d=" M 546.0805441371667 358.6121631126667 L 532.4678747205 365.418497821 L 546.0805441371667 372.22483252933336 Z"/></g></g><g><g><rect fill="white" stroke="none" x="607.2978652921666" y="382.570461286" width="4.90056099" height="21.23576429"/></g><text fill="black" stroke="none" font-family="sans-serif" font-size="11pt" font-style="normal" font-weight="normal" text-decoration="normal" x="609.7481457871667" y="397.272144256" text-anchor="start" dominant-baseline="alphabetic"></text></g><g><path fill="none" stroke="black" paint-order="fill stroke markers" d=" M 532.4678747205 403.80622557600003 L 684.3058829705 403.80622557600003" stroke-miterlimit="10" stroke-width="1.3612669416666667" stroke-dasharray="6.53408132"/><g transform="translate(687.0284168538333,403.80622557600003) translate(-687.0284168538333,-403.80622557600003)"><path fill="black" stroke="none" paint-order="stroke fill markers" d=" M 673.4157474371666 396.9998908676667 L 687.0284168538333 403.80622557600003 L 673.4157474371666 410.61256028433337 Z"/></g></g><g><g><rect fill="white" stroke="none" x="722.6936107255001" y="438.110152506" width="274.90056099" height="21.23576429"/></g><text fill="black" stroke="none" font-family="sans-serif" font-size="11pt" font-style="normal" font-weight="normal" text-decoration="normal" x="725.1438912205001" y="452.811835476" text-anchor="start" dominant-baseline="alphabetic">component.setEventScheduler(simulator)</text></g><g><path fill="none" stroke="black" paint-order="fill stroke markers" d=" M 703.3636201538334 459.34591679600004 L 768.7044333538333 459.34591679600004 L 768.7044333538333 475.68112009600003 L 706.0861540371667 475.68112009600003" stroke-miterlimit="10" stroke-width="1.3612669416666667" stroke-dasharray=""/><g transform="translate(703.3636201538334,475.68112009600003) translate(-703.3636201538334,-475.68112009600003)"><path fill="black" stroke="none" paint-order="stroke fill markers" d=" M 716.9762895705001 468.8747853876667 L 703.3636201538334 475.68112009600003 L 716.9762895705001 482.48745480433337 Z"/></g></g><g><g><rect fill="white" stroke="none" x="722.6936107255001" y="492.83308356099997" width="207.90056099" height="21.23576429"/></g><text fill="black" stroke="none" font-family="sans-serif" font-size="11pt" font-style="normal" font-weight="normal" text-decoration="normal" x="725.1438912205001" y="507.53476653099995" text-anchor="start" dominant-baseline="alphabetic">removeOnDestroy(component)</text></g><g><path fill="none" stroke="black" paint-order="fill stroke markers" d=" M 703.3636201538334 514.068847851 L 768.7044333538333 514.068847851 L 768.7044333538333 530.404051151 L 706.0861540371667 530.404051151" stroke-miterlimit="10" stroke-width="1.3612669416666667" stroke-dasharray=""/><g transform="translate(703.3636201538334,530.404051151) translate(-703.3636201538334,-530.404051151)"><path fill="black" stroke="none" paint-order="stroke fill markers" d=" M 716.9762895705001 523.5977164426666 L 703.3636201538334 530.404051151 L 716.9762895705001 537.2103858593333 Z"/></g></g><g><g><rect fill="white" stroke="none" x="836.5548776671667" y="547.556014616" width="149.90056099" height="21.23576429"/></g><text fill="black" stroke="none" font-family="sans-serif" font-size="11pt" font-style="normal" font-weight="normal" text-decoration="normal" x="839.0051581621667" y="562.257697586" text-anchor="start" dominant-baseline="alphabetic">OnComponentsAdded</text></g><g><path fill="none" stroke="black" paint-order="fill stroke markers" d=" M 703.3636201538334 568.791778906 L 1116.9241622871666 568.791778906" stroke-miterlimit="10" stroke-width="1.3612669416666667" stroke-dasharray=""/><g transform="translate(1119.6466961705,568.791778906) translate(-1119.6466961705,-568.791778906)"><path fill="black" stroke="none" paint-order="stroke fill markers" d=" M 1106.0340267538334 561.9854441976667 L 1119.6466961705 568.791778906 L 1106.0340267538334 575.5981136143333 Z"/></g></g><g><g><rect fill="white" stroke="none" x="1177.6523060705001" y="585.943742371" width="105.90056099" height="21.23576429"/></g><text fill="black" stroke="none" font-family="sans-serif" font-size="11pt" font-style="normal" font-weight="normal" text-decoration="normal" x="1180.1025865655001" y="600.645425341" text-anchor="start" dominant-baseline="alphabetic">AddComponent</text></g><g><path fill="none" stroke="black" paint-order="fill stroke markers" d=" M 1135.9818994705001 607.179506661 L 1322.5007397771667 607.179506661" stroke-miterlimit="10" stroke-width="1.3612669416666667" stroke-dasharray=""/><g transform="translate(1325.2232736605001,607.179506661) translate(-1325.2232736605001,-607.179506661)"><path fill="black" stroke="none" paint-order="stroke fill markers" d=" M 1311.6106042438334 600.3731719526667 L 1325.2232736605001 607.179506661 L 1311.6106042438334 613.9858413693333 Z"/></g></g><g><g><rect fill="white" stroke="none" x="1414.5821328238335" y="624.331470126" width="81.90056099" height="21.23576429"/></g><text fill="black" stroke="none" font-family="sans-serif" font-size="11pt" font-style="normal" font-weight="normal" text-decoration="normal" x="1417.0324133188335" y="639.033153096" text-anchor="start" dominant-baseline="alphabetic">&lt;&lt;create&gt;&gt;</text></g><g><path fill="none" stroke="black" paint-order="fill stroke markers" d=" M 1341.5584769605002 645.567234416 L 1566.7838157938334 645.567234416" stroke-miterlimit="10" stroke-width="1.3612669416666667" stroke-dasharray=""/><g transform="translate(1569.5063496771668,645.567234416) translate(-1569.5063496771668,-645.567234416)"><path fill="black" stroke="none" paint-order="stroke fill markers" d=" M 1555.8936802605 638.7608997076667 L 1569.5063496771668 645.567234416 L 1555.8936802605 652.3735691243334 Z"/></g></g><g><g><rect fill="white" stroke="none" x="1624.9490096655002" y="662.719197881" width="76.90056099" height="21.23576429"/></g><text fill="black" stroke="none" font-family="sans-serif" font-size="11pt" font-style="normal" font-weight="normal" text-decoration="normal" x="1627.3992901605002" y="677.420880851" text-anchor="start" dominant-baseline="alphabetic">attachFxml</text></g><g><path fill="none" stroke="black" paint-order="fill stroke markers" d=" M 1585.8415529771669 683.954962171 L 1738.2344934605 683.954962171" stroke-miterlimit="10" stroke-width="1.3612669416666667" stroke-dasharray=""/><g transform="translate(1740.9570273438335,683.954962171) translate(-1740.9570273438335,-683.954962171)"><path fill="black" stroke="none" paint-order="stroke fill markers" d=" M 1727.3443579271668 677.1486274626667 L 1740.9570273438335 683.954962171 L 1727.3443579271668 690.7612968793334 Z"/></g></g><g><g><rect fill="white" stroke="none" x="1660.9490096655002" y="701.106925636" width="4.90056099" height="21.23576429"/></g><text fill="black" stroke="none" font-family="sans-serif" font-size="11pt" font-style="normal" font-weight="normal" text-decoration="normal" x="1663.3992901605002" y="715.808608606" text-anchor="start" dominant-baseline="alphabetic"></text></g><g><path fill="none" stroke="black" paint-order="fill stroke markers" d=" M 1740.9570273438335 722.342689926 L 1588.5640868605003 722.342689926" stroke-miterlimit="10" stroke-width="1.3612669416666667" stroke-dasharray="6.53408132"/><g transform="translate(1585.8415529771669,722.342689926) translate(-1585.8415529771669,-722.342689926)"><path fill="black" stroke="none" paint-order="stroke fill markers" d=" M 1599.4542223938336 715.5363552176667 L 1585.8415529771669 722.342689926 L 1599.4542223938336 729.1490246343334 Z"/></g></g><g><g><rect fill="white" stroke="none" x="1648.0067468488335" y="739.494653391" width="132.90056099" height="21.23576429"/></g><text fill="black" stroke="none" font-family="sans-serif" font-size="11pt" font-style="normal" font-weight="normal" text-decoration="normal" x="1650.4570273438335" y="754.196336361" text-anchor="start" dominant-baseline="alphabetic">loadComponentSvg</text></g><g><path fill="none" stroke="black" paint-order="fill stroke markers" d=" M 1585.8415529771669 760.7304176810001 L 1840.3499678271667 760.7304176810001" stroke-miterlimit="10" stroke-width="1.3612669416666667" stroke-dasharray=""/><g transform="translate(1843.0725017105,760.7304176810001) translate(-1843.0725017105,-760.7304176810001)"><path fill="black" stroke="none" paint-order="stroke fill markers" d=" M 1829.4598322938334 753.9240829726667 L 1843.0725017105 760.7304176810001 L 1829.4598322938334 767.5367523893334 Z"/></g></g><path fill="white" stroke="black" paint-order="fill stroke markers" d=" M 1859.4077050105002 796.6678649410001 L 1867.5753066605002 796.6678649410001 M 1867.5753066605002 777.8823811460001 L 2206.6121929305 777.8823811460001 L 2221.3138759005 792.584064116 L 2221.3138759005 815.4533487360001 L 1867.5753066605002 815.4533487360001 L 1867.5753066605002 777.8823811460001 M 2206.6121929305 777.8823811460001 L 2206.6121929305 792.584064116 L 2221.3138759005 792.584064116" stroke-miterlimit="10" stroke-width="1.3612669416666667" stroke-dasharray=""/><g><text fill="black" stroke="none" font-family="sans-serif" font-size="11pt" font-style="normal" font-weight="normal" text-decoration="normal" x="1890.4445912805002" y="800.7516657660001" text-anchor="start" dominant-baseline="alphabetic">loads Svg as fxml objects using external Library</text></g><g><g><rect fill="white" stroke="none" x="1650.0067468488335" y="832.6053122010001" width="128.90056099" height="21.23576429"/></g><text fill="black" stroke="none" font-family="sans-serif" font-size="11pt" font-style="normal" font-weight="normal" text-decoration="normal" x="1652.4570273438335" y="847.306995171" text-anchor="start" dominant-baseline="alphabetic">return [svgContent]</text></g><g><path fill="none" stroke="black" paint-order="fill stroke markers" d=" M 1843.0725017105 853.8410764910001 L 1588.5640868605003 853.8410764910001" stroke-miterlimit="10" stroke-width="1.3612669416666667" stroke-dasharray="6.53408132"/><g transform="translate(1585.8415529771669,853.8410764910001) translate(-1585.8415529771669,-853.8410764910001)"><path fill="black" stroke="none" paint-order="stroke fill markers" d=" M 1599.4542223938336 847.0347417826667 L 1585.8415529771669 853.8410764910001 L 1599.4542223938336 860.6474111993334 Z"/></g></g><g><g><rect fill="white" stroke="none" x="1605.1715435488336" y="907.7472473810001" width="102.90056099" height="21.23576429"/></g><text fill="black" stroke="none" font-family="sans-serif" font-size="11pt" font-style="normal" font-weight="normal" text-decoration="normal" x="1607.6218240438336" y="922.4489303510001" text-anchor="start" dominant-baseline="alphabetic">setDefaultStyle</text></g><g><path fill="none" stroke="black" paint-order="fill stroke markers" d=" M 1585.8415529771669 928.9830116710001 L 1651.1823661771668 928.9830116710001 L 1651.1823661771668 945.3182149710001 L 1588.5640868605003 945.3182149710001" stroke-miterlimit="10" stroke-width="1.3612669416666667" stroke-dasharray=""/><g transform="translate(1585.8415529771669,945.3182149710001) translate(-1585.8415529771669,-945.3182149710001)"><path fill="black" stroke="none" paint-order="stroke fill markers" d=" M 1599.4542223938336 938.5118802626668 L 1585.8415529771669 945.3182149710001 L 1599.4542223938336 952.1245496793334 Z"/></g></g><g><g><rect fill="white" stroke="none" x="1605.1715435488336" y="979.6221419010001" width="97.90056099" height="21.23576429"/></g><text fill="black" stroke="none" font-family="sans-serif" font-size="11pt" font-style="normal" font-weight="normal" text-decoration="normal" x="1607.6218240438336" y="994.323824871" text-anchor="start" dominant-baseline="alphabetic">initTransforms</text></g><g><path fill="none" stroke="black" paint-order="fill stroke markers" d=" M 1585.8415529771669 1000.8579061910001 L 1651.1823661771668 1000.8579061910001 L 1651.1823661771668 1017.1931094910001 L 1588.5640868605003 1017.1931094910001" stroke-miterlimit="10" stroke-width="1.3612669416666667" stroke-dasharray=""/><g transform="translate(1585.8415529771669,1017.1931094910001) translate(-1585.8415529771669,-1017.1931094910001)"><path fill="black" stroke="none" paint-order="stroke fill markers" d=" M 1599.4542223938336 1010.3867747826667 L 1585.8415529771669 1017.1931094910001 L 1599.4542223938336 1023.9994441993334 Z"/></g></g><g><g><rect fill="white" stroke="none" x="1830.7112347688335" y="1034.3450729560002" width="153.90056099" height="21.23576429"/></g><text fill="black" stroke="none" font-family="sans-serif" font-size="11pt" font-style="normal" font-weight="normal" text-decoration="normal" x="1833.1615152638335" y="1049.0467559260003" text-anchor="start" dominant-baseline="alphabetic">initComponentMethods</text></g><g><path fill="none" stroke="black" paint-order="fill stroke markers" d=" M 1585.8415529771669 1055.580837246 L 2226.758943667167 1055.580837246" stroke-miterlimit="10" stroke-width="1.3612669416666667" stroke-dasharray=""/><g transform="translate(2229.4814775505,1055.580837246) translate(-2229.4814775505,-1055.580837246)"><path fill="black" stroke="none" paint-order="stroke fill markers" d=" M 2215.8688081338337 1048.7745025376669 L 2229.4814775505 1055.580837246 L 2215.8688081338337 1062.3871719543333 Z"/></g></g><g><g><rect fill="white" stroke="none" x="2265.146671422167" y="1072.732800711" width="160.90056099" height="21.23576429"/></g><text fill="black" stroke="none" font-family="sans-serif" font-size="11pt" font-style="normal" font-weight="normal" text-decoration="normal" x="2267.5969519171667" y="1087.434483681" text-anchor="start" dominant-baseline="alphabetic">createSvgStyleModifiers</text></g><g><path fill="none" stroke="black" paint-order="fill stroke markers" d=" M 2245.8166808505002 1093.968565001 L 2311.1574940505 1093.968565001 L 2311.1574940505 1110.303768301 L 2248.5392147338334 1110.303768301" stroke-miterlimit="10" stroke-width="1.3612669416666667" stroke-dasharray=""/><g transform="translate(2245.8166808505002,1110.303768301) translate(-2245.8166808505002,-1110.303768301)"><path fill="black" stroke="none" paint-order="stroke fill markers" d=" M 2259.4293502671667 1103.4974335926668 L 2245.8166808505002 1110.303768301 L 2259.4293502671667 1117.1101030093332 Z"/></g></g><g><g><rect fill="white" stroke="none" x="1552.3652088405001" y="1127.455731766" width="268.90056099" height="21.23576429"/></g><text fill="black" stroke="none" font-family="sans-serif" font-size="11pt" font-style="normal" font-weight="normal" text-decoration="normal" x="1554.8154893355002" y="1142.1574147360002" text-anchor="start" dominant-baseline="alphabetic">onUpdateStyle.addListener(styleModifier)</text></g><g><path fill="none" stroke="black" paint-order="fill stroke markers" d=" M 2229.4814775505 1148.691496056 L 1146.8720350038336 1148.691496056" stroke-miterlimit="10" stroke-width="1.3612669416666667" stroke-dasharray=""/><g transform="translate(1144.1495011205002,1148.691496056) translate(-1144.1495011205002,-1148.691496056)"><path fill="black" stroke="none" paint-order="stroke fill markers" d=" M 1157.7621705371669 1141.8851613476668 L 1144.1495011205002 1148.691496056 L 1157.7621705371669 1155.4978307643332 Z"/></g></g><g><g><rect fill="white" stroke="none" x="1684.3652088405001" y="1165.843459521" width="4.90056099" height="21.23576429"/></g><text fill="black" stroke="none" font-family="sans-serif" font-size="11pt" font-style="normal" font-weight="normal" text-decoration="normal" x="1686.8154893355002" y="1180.5451424910002" text-anchor="start" dominant-baseline="alphabetic"></text></g><g><path fill="none" stroke="black" paint-order="fill stroke markers" d=" M 1144.1495011205002 1187.079223811 L 2226.758943667167 1187.079223811" stroke-miterlimit="10" stroke-width="1.3612669416666667" stroke-dasharray="6.53408132"/><g transform="translate(2229.4814775505,1187.079223811) translate(-2229.4814775505,-1187.079223811)"><path fill="black" stroke="none" paint-order="stroke fill markers" d=" M 2215.8688081338337 1180.2728891026668 L 2229.4814775505 1187.079223811 L 2215.8688081338337 1193.8855585193332 Z"/></g></g><g><g><rect fill="white" stroke="none" x="1905.2112347688335" y="1204.2311872760001" width="4.90056099" height="21.23576429"/></g><text fill="black" stroke="none" font-family="sans-serif" font-size="11pt" font-style="normal" font-weight="normal" text-decoration="normal" x="1907.6615152638335" y="1218.9328702460002" text-anchor="start" dominant-baseline="alphabetic"></text></g><g><path fill="none" stroke="black" paint-order="fill stroke markers" d=" M 2229.4814775505 1225.466951566 L 1588.5640868605003 1225.466951566" stroke-miterlimit="10" stroke-width="1.3612669416666667" stroke-dasharray="6.53408132"/><g transform="translate(1585.8415529771669,1225.466951566) translate(-1585.8415529771669,-1225.466951566)"><path fill="black" stroke="none" paint-order="stroke fill markers" d=" M 1599.4542223938336 1218.6606168576668 L 1585.8415529771669 1225.466951566 L 1599.4542223938336 1232.2732862743333 Z"/></g></g><g><g><rect fill="white" stroke="none" x="1613.3391451988336" y="1242.618915031" width="121.90056099" height="21.23576429"/></g><text fill="black" stroke="none" font-family="sans-serif" font-size="11pt" font-style="normal" font-weight="normal" text-decoration="normal" x="1615.7894256938337" y="1257.320598001" text-anchor="start" dominant-baseline="alphabetic">updateVisualState</text></g><g><path fill="none" stroke="black" paint-order="fill stroke markers" d=" M 1585.8415529771669 1263.8546793209998 L 1659.349967827167 1263.8546793209998 L 1659.349967827167 1280.189882621 L 1596.7316885105004 1280.189882621" stroke-miterlimit="10" stroke-width="1.3612669416666667" stroke-dasharray=""/><g transform="translate(1594.009154627167,1280.189882621) translate(-1594.009154627167,-1280.189882621)"><path fill="black" stroke="none" paint-order="stroke fill markers" d=" M 1607.6218240438336 1273.3835479126667 L 1594.009154627167 1280.189882621 L 1607.6218240438336 1286.9962173293331 Z"/></g></g><g><g><rect fill="white" stroke="none" x="1254.4614457288335" y="1297.341846086" width="212.90056099" height="21.23576429"/></g><text fill="black" stroke="none" font-family="sans-serif" font-size="11pt" font-style="normal" font-weight="normal" text-decoration="normal" x="1256.9117262238335" y="1312.0435290560001" text-anchor="start" dominant-baseline="alphabetic">notifyListeners [onUpdateStyles]</text></g><g><path fill="none" stroke="black" paint-order="fill stroke markers" d=" M 1577.6739513271668 1318.577610376 L 1146.8720350038336 1318.577610376" stroke-miterlimit="10" stroke-width="1.3612669416666667" stroke-dasharray=""/><g transform="translate(1144.1495011205002,1318.577610376) translate(-1144.1495011205002,-1318.577610376)"><path fill="black" stroke="none" paint-order="stroke fill markers" d=" M 1157.7621705371669 1311.7712756676667 L 1144.1495011205002 1318.577610376 L 1157.7621705371669 1325.3839450843332 Z"/></g></g><path fill="white" stroke="black" paint-order="fill stroke markers" d=" M 1144.1495011205002 1354.515057636 L 1152.3171027705002 1354.515057636 M 1152.3171027705002 1335.7295738409998 L 1302.3539890405002 1335.7295738409998 L 1317.0556720105003 1350.431256811 L 1317.0556720105003 1373.3005414309998 L 1152.3171027705002 1373.3005414309998 L 1152.3171027705002 1335.7295738409998 M 1302.3539890405002 1335.7295738409998 L 1302.3539890405002 1350.431256811 L 1317.0556720105003 1350.431256811" stroke-miterlimit="10" stroke-width="1.3612669416666667" stroke-dasharray=""/><g><text fill="black" stroke="none" font-family="sans-serif" font-size="11pt" font-style="normal" font-weight="normal" text-decoration="normal" x="1175.1863873905002" y="1358.598858461" text-anchor="start" dominant-baseline="alphabetic">run style modifiers</text></g><g><g><rect fill="white" stroke="none" x="1358.4614457288335" y="1390.452504896" width="4.90056099" height="21.23576429"/></g><text fill="black" stroke="none" font-family="sans-serif" font-size="11pt" font-style="normal" font-weight="normal" text-decoration="normal" x="1360.9117262238335" y="1405.154187866" text-anchor="start" dominant-baseline="alphabetic"></text></g><g><path fill="none" stroke="black" paint-order="fill stroke markers" d=" M 1144.1495011205002 1411.6882691859998 L 1574.9514174438334 1411.6882691859998" stroke-miterlimit="10" stroke-width="1.3612669416666667" stroke-dasharray="6.53408132"/><g transform="translate(1577.6739513271668,1411.6882691859998) translate(-1577.6739513271668,-1411.6882691859998)"><path fill="black" stroke="none" paint-order="stroke fill markers" d=" M 1564.0612819105002 1404.8819344776666 L 1577.6739513271668 1411.6882691859998 L 1564.0612819105002 1418.494603894333 Z"/></g></g><g><g><rect fill="white" stroke="none" x="1605.1715435488336" y="1428.8402326509997" width="100.90056099" height="21.23576429"/></g><text fill="black" stroke="none" font-family="sans-serif" font-size="11pt" font-style="normal" font-weight="normal" text-decoration="normal" x="1607.6218240438336" y="1443.5419156209998" text-anchor="start" dominant-baseline="alphabetic">updatePosition</text></g><g><path fill="none" stroke="black" paint-order="fill stroke markers" d=" M 1585.8415529771669 1450.0759969409996 L 1651.1823661771668 1450.0759969409996 L 1651.1823661771668 1466.4112002409997 L 1588.5640868605003 1466.4112002409997" stroke-miterlimit="10" stroke-width="1.3612669416666667" stroke-dasharray=""/><g transform="translate(1585.8415529771669,1466.4112002409997) translate(-1585.8415529771669,-1466.4112002409997)"><path fill="black" stroke="none" paint-order="stroke fill markers" d=" M 1599.4542223938336 1459.6048655326665 L 1585.8415529771669 1466.4112002409997 L 1599.4542223938336 1473.217534949333 Z"/></g></g><g><g><rect fill="white" stroke="none" x="1453.0821328238335" y="1483.5631637059998" width="4.90056099" height="21.23576429"/></g><text fill="black" stroke="none" font-family="sans-serif" font-size="11pt" font-style="normal" font-weight="normal" text-decoration="normal" x="1455.5324133188335" y="1498.264846676" text-anchor="start" dominant-baseline="alphabetic"></text></g><g><path fill="none" stroke="black" paint-order="fill stroke markers" d=" M 1569.5063496771668 1504.7989279959997 L 1344.2810108438337 1504.7989279959997" stroke-miterlimit="10" stroke-width="1.3612669416666667" stroke-dasharray="6.53408132"/><g transform="translate(1341.5584769605002,1504.7989279959997) translate(-1341.5584769605002,-1504.7989279959997)"><path fill="black" stroke="none" paint-order="stroke fill markers" d=" M 1355.171146377167 1497.9925932876665 L 1341.5584769605002 1504.7989279959997 L 1355.171146377167 1511.605262704333 Z"/></g></g><g><g><rect fill="white" stroke="none" x="1360.888467532167" y="1521.9508914609996" width="202.90056099" height="21.23576429"/></g><text fill="black" stroke="none" font-family="sans-serif" font-size="11pt" font-style="normal" font-weight="normal" text-decoration="normal" x="1363.338748027167" y="1536.6525744309997" text-anchor="start" dominant-baseline="alphabetic">addSubView(componentPane)</text></g><g><path fill="none" stroke="black" paint-order="fill stroke markers" d=" M 1341.5584769605002 1543.1866557509995 L 1406.8992901605002 1543.1866557509995 L 1406.8992901605002 1559.5218590509996 L 1344.2810108438337 1559.5218590509996" stroke-miterlimit="10" stroke-width="1.3612669416666667" stroke-dasharray=""/><g transform="translate(1341.5584769605002,1559.5218590509996) translate(-1341.5584769605002,-1559.5218590509996)"><path fill="black" stroke="none" paint-order="stroke fill markers" d=" M 1355.171146377167 1552.7155243426664 L 1341.5584769605002 1559.5218590509996 L 1355.171146377167 1566.3281937593329 Z"/></g></g><g><g><rect fill="white" stroke="none" x="1228.1523060705001" y="1576.6738225159997" width="4.90056099" height="21.23576429"/></g><text fill="black" stroke="none" font-family="sans-serif" font-size="11pt" font-style="normal" font-weight="normal" text-decoration="normal" x="1230.6025865655001" y="1591.3755054859998" text-anchor="start" dominant-baseline="alphabetic"></text></g><g><path fill="none" stroke="black" paint-order="fill stroke markers" d=" M 1325.2232736605001 1597.9095868059997 L 1138.7044333538336 1597.9095868059997" stroke-miterlimit="10" stroke-width="1.3612669416666667" stroke-dasharray="6.53408132"/><g transform="translate(1135.9818994705001,1597.9095868059997) translate(-1135.9818994705001,-1597.9095868059997)"><path fill="black" stroke="none" paint-order="stroke fill markers" d=" M 1149.5945688871668 1591.1032520976664 L 1135.9818994705001 1597.9095868059997 L 1149.5945688871668 1604.7159215143329 Z"/></g></g><g><g><rect fill="white" stroke="none" x="621.9025170305" y="1615.0615502709998" width="4.90056099" height="21.23576429"/></g><text fill="black" stroke="none" font-family="sans-serif" font-size="11pt" font-style="normal" font-weight="normal" text-decoration="normal" x="624.3527975255" y="1629.7632332409999" text-anchor="start" dominant-baseline="alphabetic"></text></g><g><path fill="none" stroke="black" paint-order="fill stroke markers" d=" M 1119.6466961705 1636.2973145609997 L 131.78143276383335 1636.2973145609997" stroke-miterlimit="10" stroke-width="1.3612669416666667" stroke-dasharray="6.53408132"/><g transform="translate(129.0588988805,1636.2973145609997) translate(-129.0588988805,-1636.2973145609997)"><path fill="black" stroke="none" paint-order="stroke fill markers" d=" M 142.6715682971667 1629.4909798526664 L 129.0588988805 1636.2973145609997 L 142.6715682971667 1643.103649269333 Z"/></g></g><g><g/><path fill="none" stroke="black" paint-order="fill stroke markers" d=" M 458.9594598705 252.705595051 L 1103.3114928705 252.705595051 L 1103.3114928705 420.958189041 L 458.9594598705 420.958189041 L 458.9594598705 252.705595051 Z" stroke-miterlimit="10" stroke-width="2.3336004714285714" stroke-dasharray=""/><path fill="white" stroke="black" paint-order="fill stroke markers" d=" M 458.9594598705 252.705595051 L 458.9594598705 272.307839011 L 509.62986647049996 272.307839011 L 519.4309884505 262.506717031 L 519.4309884505 252.705595051 L 458.9594598705 252.705595051" stroke-miterlimit="10" stroke-width="2.3336004714285714" stroke-dasharray=""/><text fill="black" stroke="none" font-family="sans-serif" font-size="8.8pt" font-style="normal" font-weight="bold" text-decoration="normal" x="475.2946631705" y="265.773757691" text-anchor="start" dominant-baseline="alphabetic">opt</text><text fill="black" stroke="none" font-family="sans-serif" font-size="8.8pt" font-style="normal" font-weight="bold" text-decoration="normal" x="535.7661917505" y="265.773757691" text-anchor="start" dominant-baseline="alphabetic">[isDynamicEvent?]</text></g><g><g/><path fill="none" stroke="black" paint-order="fill stroke markers" d=" M 1520.500739777167 870.9930399560001 L 1713.7894256938334 870.9930399560001 L 1713.7894256938334 962.4701784360001 L 1520.500739777167 962.4701784360001 L 1520.500739777167 870.9930399560001 Z" stroke-miterlimit="10" stroke-width="2.3336004714285714" stroke-dasharray=""/><path fill="white" stroke="black" paint-order="fill stroke markers" d=" M 1520.500739777167 870.9930399560001 L 1520.500739777167 890.5952839160001 L 1577.171146377167 890.5952839160001 L 1586.972268357167 880.794161936 L 1586.972268357167 870.9930399560001 L 1520.500739777167 870.9930399560001" stroke-miterlimit="10" stroke-width="2.3336004714285714" stroke-dasharray=""/><text fill="black" stroke="none" font-family="sans-serif" font-size="8.8pt" font-style="normal" font-weight="bold" text-decoration="normal" x="1536.835943077167" y="884.061202596" text-anchor="start" dominant-baseline="alphabetic">loop</text><text fill="black" stroke="none" font-family="sans-serif" font-size="8.8pt" font-style="normal" font-weight="bold" text-decoration="normal" x="1603.307471657167" y="884.061202596" text-anchor="start" dominant-baseline="alphabetic">["component-body" nodes]</text></g></g><g/><g/><g/><g/><g/><g/><g/><g/><g/></g></svg>