<svg version="1.1" xmlns="http://www.w3.org/2000/svg" xmlns:xlink="http://www.w3.org/1999/xlink" width="2077" height="3516"><defs/><g><g/><g/><g/><g/><g/><g/><g/><g/><g/><g/><g/><g/><g/><g/><g/><g/><g/><g/><g/><g/><g/><g/><g/><g/><g/><g/><g/><g/><g/><g/><g/><g/><g/><g/><g/><g/><g/><g/><g/><g/><g/><g/><g/><g/><g/><g/><g/><g/><g/><g><rect fill="white" stroke="none" x="0" y="0" width="2077" height="3516"/></g><g><text fill="black" stroke="none" font-family="sans-serif" font-size="16.5pt" font-style="normal" font-weight="normal" text-decoration="normal" x="846.5222587939923" y="24.50280495" text-anchor="start" dominant-baseline="alphabetic">What happens when you click on a port</text></g><g/><g><path fill="none" stroke="black" paint-order="fill stroke markers" d=" M 92.3912972305 95.887643371 L 92.3912972305 3516.4792143909967" stroke-miterlimit="10" stroke-width="1.3612669416666667" stroke-dasharray="12.565541,5.445067766666667"/><path fill="none" stroke="black" paint-order="fill stroke markers" d=" M 539.1771781971667 95.887643371 L 539.1771781971667 3516.4792143909967" stroke-miterlimit="10" stroke-width="1.3612669416666667" stroke-dasharray="12.565541,5.445067766666667"/><path fill="none" stroke="black" paint-order="fill stroke markers" d=" M 779.0729236305 95.887643371 L 779.0729236305 3516.4792143909967" stroke-miterlimit="10" stroke-width="1.3612669416666667" stroke-dasharray="12.565541,5.445067766666667"/><path fill="none" stroke="black" paint-order="fill stroke markers" d=" M 989.6912029471666 95.887643371 L 989.6912029471666 3516.4792143909967" stroke-miterlimit="10" stroke-width="1.3612669416666667" stroke-dasharray="12.565541,5.445067766666667"/><path fill="none" stroke="black" paint-order="fill stroke markers" d=" M 1181.5869483805 95.887643371 L 1181.5869483805 3516.4792143909967" stroke-miterlimit="10" stroke-width="1.3612669416666667" stroke-dasharray="12.565541,5.445067766666667"/><path fill="none" stroke="black" paint-order="fill stroke markers" d=" M 1373.4826938138333 95.887643371 L 1373.4826938138333 3516.4792143909967" stroke-miterlimit="10" stroke-width="1.3612669416666667" stroke-dasharray="12.565541,5.445067766666667"/><path fill="none" stroke="black" paint-order="fill stroke markers" d=" M 1570.3784392471666 95.887643371 L 1570.3784392471666 3516.4792143909967" stroke-miterlimit="10" stroke-width="1.3612669416666667" stroke-dasharray="12.565541,5.445067766666667"/><path fill="none" stroke="black" paint-order="fill stroke markers" d=" M 1762.2741846805 95.887643371 L 1762.2741846805 3516.4792143909967" stroke-miterlimit="10" stroke-width="1.3612669416666667" stroke-dasharray="12.565541,5.445067766666667"/><path fill="none" stroke="black" paint-order="fill stroke markers" d=" M 1884.7882094305 95.887643371 L 1884.7882094305 3516.4792143909967" stroke-miterlimit="10" stroke-width="1.3612669416666667" stroke-dasharray="12.565541,5.445067766666667"/><path fill="none" stroke="black" paint-order="fill stroke markers" d=" M 1979.0708038915 95.887643371 L 1979.0708038915 3516.4792143909967" stroke-miterlimit="10" stroke-width="1.3612669416666667" stroke-dasharray="12.565541,5.445067766666667"/></g><g><path fill="none" stroke="none"/><g><path fill="white" stroke="black" paint-order="fill stroke markers" d=" M 8.167601649999995 51.782594461 L 176.614992811 51.782594461 L 176.614992811 95.887643371 L 8.167601649999995 95.887643371 L 8.167601649999995 51.782594461 Z" stroke-miterlimit="10" stroke-width="2.613632528" stroke-dasharray=""/></g><g><g/><text fill="black" stroke="none" font-family="sans-serif" font-size="11pt" font-style="normal" font-weight="normal" text-decoration="normal" x="25.8912972305" y="79.55244007099999" text-anchor="start" dominant-baseline="alphabetic">WokspaceController</text></g><path fill="none" stroke="none"/><g><path fill="white" stroke="black" paint-order="fill stroke markers" d=" M 456.45348261666663 51.782594461 L 621.9008737776667 51.782594461 L 621.9008737776667 95.887643371 L 456.45348261666663 95.887643371 L 456.45348261666663 51.782594461 Z" stroke-miterlimit="10" stroke-width="2.613632528" stroke-dasharray=""/></g><g><g/><text fill="black" stroke="none" font-family="sans-serif" font-size="11pt" font-style="normal" font-weight="normal" text-decoration="normal" x="474.17717819716665" y="79.55244007099999" text-anchor="start" dominant-baseline="alphabetic">ConnectionManager</text></g><path fill="none" stroke="none"/><g><path fill="white" stroke="black" paint-order="fill stroke markers" d=" M 745.84922805 51.782594461 L 812.296619211 51.782594461 L 812.296619211 95.887643371 L 745.84922805 95.887643371 L 745.84922805 51.782594461 Z" stroke-miterlimit="10" stroke-width="2.613632528" stroke-dasharray=""/></g><g><g/><text fill="black" stroke="none" font-family="sans-serif" font-size="11pt" font-style="normal" font-weight="normal" text-decoration="normal" x="763.5729236305" y="79.55244007099999" text-anchor="start" dominant-baseline="alphabetic">Wire</text></g><path fill="none" stroke="none"/><g><path fill="white" stroke="black" paint-order="fill stroke markers" d=" M 953.4675073666666 51.782594461 L 1025.9148985276665 51.782594461 L 1025.9148985276665 95.887643371 L 953.4675073666666 95.887643371 L 953.4675073666666 51.782594461 Z" stroke-miterlimit="10" stroke-width="2.613632528" stroke-dasharray=""/></g><g><g/><text fill="black" stroke="none" font-family="sans-serif" font-size="11pt" font-style="normal" font-weight="normal" text-decoration="normal" x="971.1912029471666" y="79.55244007099999" text-anchor="start" dominant-baseline="alphabetic">Event</text></g><path fill="none" stroke="none"/><g><path fill="white" stroke="black" paint-order="fill stroke markers" d=" M 1110.8632528 51.782594461 L 1252.310643961 51.782594461 L 1252.310643961 95.887643371 L 1110.8632528 95.887643371 L 1110.8632528 51.782594461 Z" stroke-miterlimit="10" stroke-width="2.613632528" stroke-dasharray=""/></g><g><g/><text fill="black" stroke="none" font-family="sans-serif" font-size="11pt" font-style="normal" font-weight="normal" text-decoration="normal" x="1128.5869483805" y="79.55244007099999" text-anchor="start" dominant-baseline="alphabetic">WorkspaceView</text></g><path fill="none" stroke="none"/><g><path fill="white" stroke="black" paint-order="fill stroke markers" d=" M 1319.2589982333334 51.782594461 L 1427.7063893943334 51.782594461 L 1427.7063893943334 95.887643371 L 1319.2589982333334 95.887643371 L 1319.2589982333334 51.782594461 Z" stroke-miterlimit="10" stroke-width="2.613632528" stroke-dasharray=""/></g><g><g/><text fill="black" stroke="none" font-family="sans-serif" font-size="11pt" font-style="normal" font-weight="normal" text-decoration="normal" x="1336.9826938138333" y="79.55244007099999" text-anchor="start" dominant-baseline="alphabetic">CircuitView</text></g><path fill="none" stroke="none"/><g><path fill="white" stroke="black" paint-order="fill stroke markers" d=" M 1499.1547436666667 51.782594461 L 1641.6021348276668 51.782594461 L 1641.6021348276668 95.887643371 L 1499.1547436666667 95.887643371 L 1499.1547436666667 51.782594461 Z" stroke-miterlimit="10" stroke-width="2.613632528" stroke-dasharray=""/></g><g><g/><text fill="black" stroke="none" font-family="sans-serif" font-size="11pt" font-style="normal" font-weight="normal" text-decoration="normal" x="1516.8784392471666" y="79.55244007099999" text-anchor="start" dominant-baseline="alphabetic">ComponentView</text></g><path fill="none" stroke="none"/><g><path fill="white" stroke="black" paint-order="fill stroke markers" d=" M 1715.5504891 51.782594461 L 1808.997880261 51.782594461 L 1808.997880261 95.887643371 L 1715.5504891 95.887643371 L 1715.5504891 51.782594461 Z" stroke-miterlimit="10" stroke-width="2.613632528" stroke-dasharray=""/></g><g><g/><text fill="black" stroke="none" font-family="sans-serif" font-size="11pt" font-style="normal" font-weight="normal" text-decoration="normal" x="1733.2741846805" y="79.55244007099999" text-anchor="start" dominant-baseline="alphabetic">PortView</text></g><path fill="none" stroke="none"/><g><path fill="white" stroke="black" paint-order="fill stroke markers" d=" M 1853.5645138500001 51.782594461 L 1916.0119050110002 51.782594461 L 1916.0119050110002 95.887643371 L 1853.5645138500001 95.887643371 L 1853.5645138500001 51.782594461 Z" stroke-miterlimit="10" stroke-width="2.613632528" stroke-dasharray=""/></g><g><g/><text fill="black" stroke="none" font-family="sans-serif" font-size="11pt" font-style="normal" font-weight="normal" text-decoration="normal" x="1871.2882094305" y="79.55244007099999" text-anchor="start" dominant-baseline="alphabetic">Port</text></g><path fill="none" stroke="none"/><g><path fill="white" stroke="black" paint-order="fill stroke markers" d=" M 1932.347108311 51.782594461 L 2025.794499472 51.782594461 L 2025.794499472 95.887643371 L 1932.347108311 95.887643371 L 1932.347108311 51.782594461 Z" stroke-miterlimit="10" stroke-width="2.613632528" stroke-dasharray=""/></g><g><g/><text fill="black" stroke="none" font-family="sans-serif" font-size="11pt" font-style="normal" font-weight="normal" text-decoration="normal" x="1950.0708038915" y="79.55244007099999" text-anchor="start" dominant-baseline="alphabetic">InputPort</text></g></g><g><path fill="white" stroke="black" paint-order="fill stroke markers" d=" M 531.0095765471666 411.15706706099996 L 547.3447798471667 411.15706706099996 L 547.3447798471667 3459.306002840997 L 531.0095765471666 3459.306002840997 L 531.0095765471666 411.15706706099996" stroke-miterlimit="10" stroke-width="1.3612669416666667" stroke-dasharray=""/><path fill="white" stroke="black" paint-order="fill stroke markers" d=" M 770.9053219804999 501.00068521099996 L 787.2405252805 501.00068521099996 L 787.2405252805 546.739254451 L 770.9053219804999 546.739254451 L 770.9053219804999 501.00068521099996" stroke-miterlimit="10" stroke-width="1.3612669416666667" stroke-dasharray=""/><path fill="white" stroke="black" paint-order="fill stroke markers" d=" M 1876.6206077805 592.4778236909999 L 1892.9558110805 592.4778236909999 L 1892.9558110805 638.2163929309999 L 1876.6206077805 638.2163929309999 L 1876.6206077805 592.4778236909999" stroke-miterlimit="10" stroke-width="1.3612669416666667" stroke-dasharray=""/><path fill="white" stroke="black" paint-order="fill stroke markers" d=" M 770.9053219804999 728.0600110809997 L 787.2405252805 728.0600110809997 L 787.2405252805 865.2757188009996 L 770.9053219804999 865.2757188009996 L 770.9053219804999 728.0600110809997" stroke-miterlimit="10" stroke-width="1.3612669416666667" stroke-dasharray=""/><path fill="white" stroke="black" paint-order="fill stroke markers" d=" M 1970.9032022415 773.7985803209997 L 1987.2384055415 773.7985803209997 L 1987.2384055415 819.5371495609996 L 1970.9032022415 819.5371495609996 L 1970.9032022415 773.7985803209997" stroke-miterlimit="10" stroke-width="1.3612669416666667" stroke-dasharray=""/><path fill="white" stroke="black" paint-order="fill stroke markers" d=" M 770.9053219804999 911.0142880409995 L 787.2405252805 911.0142880409995 L 787.2405252805 956.7528572809995 L 770.9053219804999 956.7528572809995 L 770.9053219804999 911.0142880409995" stroke-miterlimit="10" stroke-width="1.3612669416666667" stroke-dasharray=""/><path fill="white" stroke="black" paint-order="fill stroke markers" d=" M 770.9053219804999 1002.4914265209994 L 787.2405252805 1002.4914265209994 L 787.2405252805 1048.2299957609994 L 770.9053219804999 1048.2299957609994 L 770.9053219804999 1002.4914265209994" stroke-miterlimit="10" stroke-width="1.3612669416666667" stroke-dasharray=""/><path fill="white" stroke="black" paint-order="fill stroke markers" d=" M 981.5236012971666 1244.2524353609995 L 997.8588045971667 1244.2524353609995 L 997.8588045971667 1793.115266241 L 981.5236012971666 1793.115266241 L 981.5236012971666 1244.2524353609995" stroke-miterlimit="10" stroke-width="1.3612669416666667" stroke-dasharray=""/><path fill="white" stroke="black" paint-order="fill stroke markers" d=" M 1173.4193467305 1289.9910046009995 L 1189.7545500305 1289.9910046009995 L 1189.7545500305 1747.376697001 L 1173.4193467305 1747.376697001 L 1173.4193467305 1289.9910046009995" stroke-miterlimit="10" stroke-width="1.3612669416666667" stroke-dasharray=""/><path fill="white" stroke="black" paint-order="fill stroke markers" d=" M 1365.3150921638332 1335.7295738409996 L 1381.6502954638333 1335.7295738409996 L 1381.6502954638333 1701.6381277609999 L 1365.3150921638332 1701.6381277609999 L 1365.3150921638332 1335.7295738409996" stroke-miterlimit="10" stroke-width="1.3612669416666667" stroke-dasharray=""/><path fill="white" stroke="black" paint-order="fill stroke markers" d=" M 1562.2108375971666 1425.5731919909997 L 1578.5460408971667 1425.5731919909997 L 1578.5460408971667 1631.3967535709999 L 1562.2108375971666 1631.3967535709999 L 1562.2108375971666 1425.5731919909997" stroke-miterlimit="10" stroke-width="1.3612669416666667" stroke-dasharray=""/><path fill="white" stroke="black" paint-order="fill stroke markers" d=" M 1754.1065830305 1515.4168101409998 L 1770.4417863305 1515.4168101409998 L 1770.4417863305 1561.1553793809999 L 1754.1065830305 1561.1553793809999 L 1754.1065830305 1515.4168101409998" stroke-miterlimit="10" stroke-width="1.3612669416666667" stroke-dasharray=""/><path fill="white" stroke="black" paint-order="fill stroke markers" d=" M 770.9053219804999 1931.964494291 L 787.2405252805 1931.964494291 L 787.2405252805 2436.7222762609995 L 770.9053219804999 2436.7222762609995 L 770.9053219804999 1931.964494291" stroke-miterlimit="10" stroke-width="1.3612669416666667" stroke-dasharray=""/><path fill="white" stroke="black" paint-order="fill stroke markers" d=" M 1876.6206077805 1977.703063531 L 1892.9558110805 1977.703063531 L 1892.9558110805 2023.441632771 L 1876.6206077805 2023.441632771 L 1876.6206077805 1977.703063531" stroke-miterlimit="10" stroke-width="1.3612669416666667" stroke-dasharray=""/><path fill="white" stroke="black" paint-order="fill stroke markers" d=" M 770.9053219804999 2482.4608455009993 L 787.2405252805 2482.4608455009993 L 787.2405252805 2528.199414740999 L 770.9053219804999 2528.199414740999 L 770.9053219804999 2482.4608455009993" stroke-miterlimit="10" stroke-width="1.3612669416666667" stroke-dasharray=""/><path fill="white" stroke="black" paint-order="fill stroke markers" d=" M 770.9053219804999 2573.937983980999 L 787.2405252805 2573.937983980999 L 787.2405252805 2619.676553220999 L 770.9053219804999 2619.676553220999 L 770.9053219804999 2573.937983980999" stroke-miterlimit="10" stroke-width="1.3612669416666667" stroke-dasharray=""/><path fill="white" stroke="black" paint-order="fill stroke markers" d=" M 981.5236012971666 2815.6989928209982 L 997.8588045971667 2815.6989928209982 L 997.8588045971667 3364.5618237009967 L 981.5236012971666 3364.5618237009967 L 981.5236012971666 2815.6989928209982" stroke-miterlimit="10" stroke-width="1.3612669416666667" stroke-dasharray=""/><path fill="white" stroke="black" paint-order="fill stroke markers" d=" M 1173.4193467305 2861.437562060998 L 1189.7545500305 2861.437562060998 L 1189.7545500305 3318.823254460997 L 1173.4193467305 3318.823254460997 L 1173.4193467305 2861.437562060998" stroke-miterlimit="10" stroke-width="1.3612669416666667" stroke-dasharray=""/><path fill="white" stroke="black" paint-order="fill stroke markers" d=" M 1365.3150921638332 2907.176131300998 L 1381.6502954638333 2907.176131300998 L 1381.6502954638333 3273.084685220997 L 1365.3150921638332 3273.084685220997 L 1365.3150921638332 2907.176131300998" stroke-miterlimit="10" stroke-width="1.3612669416666667" stroke-dasharray=""/><path fill="white" stroke="black" paint-order="fill stroke markers" d=" M 1562.2108375971666 2997.0197494509976 L 1578.5460408971667 2997.0197494509976 L 1578.5460408971667 3202.843311030997 L 1562.2108375971666 3202.843311030997 L 1562.2108375971666 2997.0197494509976" stroke-miterlimit="10" stroke-width="1.3612669416666667" stroke-dasharray=""/><path fill="white" stroke="black" paint-order="fill stroke markers" d=" M 1754.1065830305 3086.863367600997 L 1770.4417863305 3086.863367600997 L 1770.4417863305 3132.601936840997 L 1754.1065830305 3132.601936840997 L 1754.1065830305 3086.863367600997" stroke-miterlimit="10" stroke-width="1.3612669416666667" stroke-dasharray=""/><g><g><rect fill="white" stroke="none" x="111.72128780216666" y="216.768147791" width="380.90056099" height="21.23576429"/></g><text fill="black" stroke="none" font-family="sans-serif" font-size="11pt" font-style="normal" font-weight="normal" text-decoration="normal" x="114.17156829716666" y="231.46983076099997" text-anchor="start" dominant-baseline="alphabetic">bind(onMouseClicked, connectionManager.connectToPort)</text></g><g><path fill="none" stroke="black" paint-order="fill stroke markers" d=" M 92.3912972305 238.00391208099998 L 157.7321104305 238.00391208099998 L 157.7321104305 254.33911538099997 L 95.11383111383333 254.33911538099997" stroke-miterlimit="10" stroke-width="1.3612669416666667" stroke-dasharray=""/><g transform="translate(92.3912972305,254.33911538099997) translate(-92.3912972305,-254.33911538099997)"><path fill="black" stroke="none" paint-order="stroke fill markers" d=" M 106.00396664716666 247.53278067266663 L 92.3912972305 254.33911538099997 L 106.00396664716666 261.1454500893333 Z"/></g></g><path fill="white" stroke="black" paint-order="fill stroke markers" d=" M 92.3912972305 346.63301402599996 L 100.5588988805 346.63301402599996 M 100.5588988805 327.84753023099995 L 266.59578515050003 327.84753023099995 L 281.2974681205 342.54921320099993 L 281.2974681205 365.41849782099996 L 100.5588988805 365.41849782099996 L 100.5588988805 327.84753023099995 M 266.59578515050003 327.84753023099995 L 266.59578515050003 342.54921320099993 L 281.2974681205 342.54921320099993" stroke-miterlimit="10" stroke-width="1.3612669416666667" stroke-dasharray=""/><g><text fill="black" stroke="none" font-family="sans-serif" font-size="11pt" font-style="normal" font-weight="normal" text-decoration="normal" x="123.42818350049998" y="350.7168148509999" text-anchor="start" dominant-baseline="alphabetic">User Clicks On Port!</text></g><g><g><rect fill="white" stroke="none" x="262.25015639383327" y="389.92130277099994" width="98.90056099" height="21.23576429"/></g><text fill="black" stroke="none" font-family="sans-serif" font-size="11pt" font-style="normal" font-weight="normal" text-decoration="normal" x="264.7004368888333" y="404.6229857409999" text-anchor="start" dominant-baseline="alphabetic">connectToPort</text></g><g><path fill="none" stroke="black" paint-order="fill stroke markers" d=" M 92.3912972305 411.15706706099996 L 528.2870426638333 411.15706706099996" stroke-miterlimit="10" stroke-width="1.3612669416666667" stroke-dasharray=""/><g transform="translate(531.0095765471666,411.15706706099996) translate(-531.0095765471666,-411.15706706099996)"><path fill="black" stroke="none" paint-order="stroke fill markers" d=" M 517.3969071304999 404.3507323526666 L 531.0095765471666 411.15706706099996 L 517.3969071304999 417.9634017693333 Z"/></g></g><g><g><rect fill="white" stroke="none" x="584.1747704188333" y="479.76492092099994" width="149.90056099" height="21.23576429"/></g><text fill="black" stroke="none" font-family="sans-serif" font-size="11pt" font-style="normal" font-weight="normal" text-decoration="normal" x="586.6250509138333" y="494.4666038909999" text-anchor="start" dominant-baseline="alphabetic">isAnyInputConnected?</text></g><g><path fill="none" stroke="black" paint-order="fill stroke markers" d=" M 547.3447798471667 501.00068521099996 L 768.1827880971666 501.00068521099996" stroke-miterlimit="10" stroke-width="1.3612669416666667" stroke-dasharray=""/><g transform="translate(770.9053219804999,501.00068521099996) translate(-770.9053219804999,-501.00068521099996)"><path fill="black" stroke="none" paint-order="stroke fill markers" d=" M 757.2926525638333 494.1943505026666 L 770.9053219804999 501.00068521099996 L 757.2926525638333 507.8070199193333 Z"/></g></g><g><g><rect fill="white" stroke="none" x="656.6747704188333" y="525.503490161" width="4.90056099" height="21.23576429"/></g><text fill="black" stroke="none" font-family="sans-serif" font-size="11pt" font-style="normal" font-weight="normal" text-decoration="normal" x="659.1250509138333" y="540.2051731309999" text-anchor="start" dominant-baseline="alphabetic"></text></g><g><path fill="none" stroke="black" paint-order="fill stroke markers" d=" M 770.9053219804999 546.739254451 L 550.0673137305 546.739254451" stroke-miterlimit="10" stroke-width="1.3612669416666667" stroke-dasharray="6.53408132"/><g transform="translate(547.3447798471667,546.739254451) translate(-547.3447798471667,-546.739254451)"><path fill="black" stroke="none" paint-order="stroke fill markers" d=" M 560.9574492638334 539.9329197426666 L 547.3447798471667 546.739254451 L 560.9574492638334 553.5455891593333 Z"/></g></g><g><g><rect fill="white" stroke="none" x="1164.5324133188335" y="571.2420594009999" width="94.90056099" height="21.23576429"/></g><text fill="black" stroke="none" font-family="sans-serif" font-size="11pt" font-style="normal" font-weight="normal" text-decoration="normal" x="1166.9826938138335" y="585.9437423709999" text-anchor="start" dominant-baseline="alphabetic">isConnected?</text></g><g><path fill="none" stroke="black" paint-order="fill stroke markers" d=" M 547.3447798471667 592.4778236909999 L 1873.8980738971666 592.4778236909999" stroke-miterlimit="10" stroke-width="1.3612669416666667" stroke-dasharray=""/><g transform="translate(1876.6206077805,592.4778236909999) translate(-1876.6206077805,-592.4778236909999)"><path fill="black" stroke="none" paint-order="stroke fill markers" d=" M 1863.0079383638333 585.6714889826666 L 1876.6206077805 592.4778236909999 L 1863.0079383638333 599.2841583993333 Z"/></g></g><g><g><rect fill="white" stroke="none" x="1209.5324133188335" y="616.9806286409998" width="4.90056099" height="21.23576429"/></g><text fill="black" stroke="none" font-family="sans-serif" font-size="11pt" font-style="normal" font-weight="normal" text-decoration="normal" x="1211.9826938138335" y="631.6823116109998" text-anchor="start" dominant-baseline="alphabetic"></text></g><g><path fill="none" stroke="black" paint-order="fill stroke markers" d=" M 1876.6206077805 638.2163929309999 L 550.0673137305 638.2163929309999" stroke-miterlimit="10" stroke-width="1.3612669416666667" stroke-dasharray="6.53408132"/><g transform="translate(547.3447798471667,638.2163929309999) translate(-547.3447798471667,-638.2163929309999)"><path fill="black" stroke="none" paint-order="stroke fill markers" d=" M 560.9574492638334 631.4100582226665 L 547.3447798471667 638.2163929309999 L 560.9574492638334 645.0227276393332 Z"/></g></g><g><g><rect fill="white" stroke="none" x="601.6747704188333" y="706.8242467909997" width="114.90056099" height="21.23576429"/></g><text fill="black" stroke="none" font-family="sans-serif" font-size="11pt" font-style="normal" font-weight="normal" text-decoration="normal" x="604.1250509138333" y="721.5259297609997" text-anchor="start" dominant-baseline="alphabetic">connectInputPort</text></g><g><path fill="none" stroke="black" paint-order="fill stroke markers" d=" M 547.3447798471667 728.0600110809997 L 768.1827880971666 728.0600110809997" stroke-miterlimit="10" stroke-width="1.3612669416666667" stroke-dasharray=""/><g transform="translate(770.9053219804999,728.0600110809997) translate(-770.9053219804999,-728.0600110809997)"><path fill="black" stroke="none" paint-order="stroke fill markers" d=" M 757.2926525638333 721.2536763726664 L 770.9053219804999 728.0600110809997 L 757.2926525638333 734.8663457893331 Z"/></g></g><g><g><rect fill="white" stroke="none" x="1309.6215832659998" y="752.5628160309997" width="138.90056099" height="21.23576429"/></g><text fill="black" stroke="none" font-family="sans-serif" font-size="11pt" font-style="normal" font-weight="normal" text-decoration="normal" x="1312.0718637609998" y="767.2644990009996" text-anchor="start" dominant-baseline="alphabetic">setStateSource(this)</text></g><g><path fill="none" stroke="black" paint-order="fill stroke markers" d=" M 787.2405252805 773.7985803209997 L 1968.1806683581665 773.7985803209997" stroke-miterlimit="10" stroke-width="1.3612669416666667" stroke-dasharray=""/><g transform="translate(1970.9032022415,773.7985803209997) translate(-1970.9032022415,-773.7985803209997)"><path fill="black" stroke="none" paint-order="stroke fill markers" d=" M 1957.2905328248332 766.9922456126664 L 1970.9032022415 773.7985803209997 L 1957.2905328248332 780.604915029333 Z"/></g></g><g><g><rect fill="white" stroke="none" x="1376.6215832659998" y="798.3013852709996" width="4.90056099" height="21.23576429"/></g><text fill="black" stroke="none" font-family="sans-serif" font-size="11pt" font-style="normal" font-weight="normal" text-decoration="normal" x="1379.0718637609998" y="813.0030682409996" text-anchor="start" dominant-baseline="alphabetic"></text></g><g><path fill="none" stroke="black" paint-order="fill stroke markers" d=" M 1970.9032022415 819.5371495609996 L 789.9630591638333 819.5371495609996" stroke-miterlimit="10" stroke-width="1.3612669416666667" stroke-dasharray="6.53408132"/><g transform="translate(787.2405252805,819.5371495609996) translate(-787.2405252805,-819.5371495609996)"><path fill="black" stroke="none" paint-order="stroke fill markers" d=" M 800.8531946971667 812.7308148526663 L 787.2405252805 819.5371495609996 L 800.8531946971667 826.343484269333 Z"/></g></g><g><g><rect fill="white" stroke="none" x="656.6747704188333" y="844.0399545109996" width="4.90056099" height="21.23576429"/></g><text fill="black" stroke="none" font-family="sans-serif" font-size="11pt" font-style="normal" font-weight="normal" text-decoration="normal" x="659.1250509138333" y="858.7416374809995" text-anchor="start" dominant-baseline="alphabetic"></text></g><g><path fill="none" stroke="black" paint-order="fill stroke markers" d=" M 770.9053219804999 865.2757188009996 L 550.0673137305 865.2757188009996" stroke-miterlimit="10" stroke-width="1.3612669416666667" stroke-dasharray="6.53408132"/><g transform="translate(547.3447798471667,865.2757188009996) translate(-547.3447798471667,-865.2757188009996)"><path fill="black" stroke="none" paint-order="stroke fill markers" d=" M 560.9574492638334 858.4693840926662 L 547.3447798471667 865.2757188009996 L 560.9574492638334 872.0820535093329 Z"/></g></g><g><g><rect fill="white" stroke="none" x="584.1747704188333" y="889.7785237509995" width="149.90056099" height="21.23576429"/></g><text fill="black" stroke="none" font-family="sans-serif" font-size="11pt" font-style="normal" font-weight="normal" text-decoration="normal" x="586.6250509138333" y="904.4802067209995" text-anchor="start" dominant-baseline="alphabetic">isAnyInputConnected?</text></g><g><path fill="none" stroke="black" paint-order="fill stroke markers" d=" M 547.3447798471667 911.0142880409995 L 768.1827880971666 911.0142880409995" stroke-miterlimit="10" stroke-width="1.3612669416666667" stroke-dasharray=""/><g transform="translate(770.9053219804999,911.0142880409995) translate(-770.9053219804999,-911.0142880409995)"><path fill="black" stroke="none" paint-order="stroke fill markers" d=" M 757.2926525638333 904.2079533326662 L 770.9053219804999 911.0142880409995 L 757.2926525638333 917.8206227493329 Z"/></g></g><g><g><rect fill="white" stroke="none" x="656.6747704188333" y="935.5170929909995" width="4.90056099" height="21.23576429"/></g><text fill="black" stroke="none" font-family="sans-serif" font-size="11pt" font-style="normal" font-weight="normal" text-decoration="normal" x="659.1250509138333" y="950.2187759609994" text-anchor="start" dominant-baseline="alphabetic"></text></g><g><path fill="none" stroke="black" paint-order="fill stroke markers" d=" M 770.9053219804999 956.7528572809995 L 550.0673137305 956.7528572809995" stroke-miterlimit="10" stroke-width="1.3612669416666667" stroke-dasharray="6.53408132"/><g transform="translate(547.3447798471667,956.7528572809995) translate(-547.3447798471667,-956.7528572809995)"><path fill="black" stroke="none" paint-order="stroke fill markers" d=" M 560.9574492638334 949.9465225726661 L 547.3447798471667 956.7528572809995 L 560.9574492638334 963.5591919893328 Z"/></g></g><g><g><rect fill="white" stroke="none" x="577.6747704188333" y="981.2556622309994" width="162.90056099" height="21.23576429"/></g><text fill="black" stroke="none" font-family="sans-serif" font-size="11pt" font-style="normal" font-weight="normal" text-decoration="normal" x="580.1250509138333" y="995.9573452009994" text-anchor="start" dominant-baseline="alphabetic">isAnyOutputConnected?</text></g><g><path fill="none" stroke="black" paint-order="fill stroke markers" d=" M 547.3447798471667 1002.4914265209994 L 768.1827880971666 1002.4914265209994" stroke-miterlimit="10" stroke-width="1.3612669416666667" stroke-dasharray=""/><g transform="translate(770.9053219804999,1002.4914265209994) translate(-770.9053219804999,-1002.4914265209994)"><path fill="black" stroke="none" paint-order="stroke fill markers" d=" M 757.2926525638333 995.6850918126661 L 770.9053219804999 1002.4914265209994 L 757.2926525638333 1009.2977612293328 Z"/></g></g><g><g><rect fill="white" stroke="none" x="656.6747704188333" y="1026.9942314709995" width="4.90056099" height="21.23576429"/></g><text fill="black" stroke="none" font-family="sans-serif" font-size="11pt" font-style="normal" font-weight="normal" text-decoration="normal" x="659.1250509138333" y="1041.6959144409996" text-anchor="start" dominant-baseline="alphabetic"></text></g><g><path fill="none" stroke="black" paint-order="fill stroke markers" d=" M 770.9053219804999 1048.2299957609994 L 550.0673137305 1048.2299957609994" stroke-miterlimit="10" stroke-width="1.3612669416666667" stroke-dasharray="6.53408132"/><g transform="translate(547.3447798471667,1048.2299957609994) translate(-547.3447798471667,-1048.2299957609994)"><path fill="black" stroke="none" paint-order="stroke fill markers" d=" M 560.9574492638334 1041.4236610526661 L 547.3447798471667 1048.2299957609994 L 560.9574492638334 1055.0363304693326 Z"/></g></g><g><g><rect fill="white" stroke="none" x="566.6747704188334" y="1116.8378496209994" width="113.90056099" height="21.23576429"/></g><text fill="black" stroke="none" font-family="sans-serif" font-size="11pt" font-style="normal" font-weight="normal" text-decoration="normal" x="569.1250509138334" y="1131.5395325909994" text-anchor="start" dominant-baseline="alphabetic">finishEditingWire</text></g><g><path fill="none" stroke="black" paint-order="fill stroke markers" d=" M 547.3447798471667 1138.0736139109993 L 612.6855930471667 1138.0736139109993 L 612.6855930471667 1154.4088172109994 L 550.0673137305 1154.4088172109994" stroke-miterlimit="10" stroke-width="1.3612669416666667" stroke-dasharray=""/><g transform="translate(547.3447798471667,1154.4088172109994) translate(-547.3447798471667,-1154.4088172109994)"><path fill="black" stroke="none" paint-order="stroke fill markers" d=" M 560.9574492638334 1147.6024825026661 L 547.3447798471667 1154.4088172109994 L 560.9574492638334 1161.2151519193326 Z"/></g></g><g><g><rect fill="white" stroke="none" x="593.4839100771667" y="1223.0166710709996" width="341.90056099" height="21.23576429"/></g><text fill="black" stroke="none" font-family="sans-serif" font-size="11pt" font-style="normal" font-weight="normal" text-decoration="normal" x="595.9341905721667" y="1237.7183540409997" text-anchor="start" dominant-baseline="alphabetic">notifyListeners  [onLookingForPortType](OutputPort)</text></g><g><path fill="none" stroke="black" paint-order="fill stroke markers" d=" M 547.3447798471667 1244.2524353609995 L 978.8010674138333 1244.2524353609995" stroke-miterlimit="10" stroke-width="1.3612669416666667" stroke-dasharray=""/><g transform="translate(981.5236012971666,1244.2524353609995) translate(-981.5236012971666,-1244.2524353609995)"><path fill="black" stroke="none" paint-order="stroke fill markers" d=" M 967.9109318804999 1237.4461006526662 L 981.5236012971666 1244.2524353609995 L 967.9109318804999 1251.0587700693327 Z"/></g></g><g><g><rect fill="white" stroke="none" x="1017.1887951688334" y="1268.7552403109996" width="136.90056099" height="21.23576429"/></g><text fill="black" stroke="none" font-family="sans-serif" font-size="11pt" font-style="normal" font-weight="normal" text-decoration="normal" x="1019.6390756638334" y="1283.4569232809997" text-anchor="start" dominant-baseline="alphabetic">highlightOutputPorts</text></g><g><path fill="none" stroke="black" paint-order="fill stroke markers" d=" M 997.8588045971667 1289.9910046009995 L 1170.6968128471665 1289.9910046009995" stroke-miterlimit="10" stroke-width="1.3612669416666667" stroke-dasharray=""/><g transform="translate(1173.4193467305,1289.9910046009995) translate(-1173.4193467305,-1289.9910046009995)"><path fill="black" stroke="none" paint-order="stroke fill markers" d=" M 1159.8066773138332 1283.1846698926663 L 1173.4193467305 1289.9910046009995 L 1159.8066773138332 1296.7973393093328 Z"/></g></g><g><g><rect fill="white" stroke="none" x="1209.0845406021665" y="1314.4938095509997" width="136.90056099" height="21.23576429"/></g><text fill="black" stroke="none" font-family="sans-serif" font-size="11pt" font-style="normal" font-weight="normal" text-decoration="normal" x="1211.5348210971665" y="1329.1954925209998" text-anchor="start" dominant-baseline="alphabetic">highlightOutputPorts</text></g><g><path fill="none" stroke="black" paint-order="fill stroke markers" d=" M 1189.7545500305 1335.7295738409996 L 1362.5925582804998 1335.7295738409996" stroke-miterlimit="10" stroke-width="1.3612669416666667" stroke-dasharray=""/><g transform="translate(1365.3150921638332,1335.7295738409996) translate(-1365.3150921638332,-1335.7295738409996)"><path fill="black" stroke="none" paint-order="stroke fill markers" d=" M 1351.7024227471666 1328.9232391326664 L 1365.3150921638332 1335.7295738409996 L 1351.7024227471666 1342.5359085493328 Z"/></g></g><g><g><rect fill="white" stroke="none" x="1400.9802860355" y="1404.3374277009998" width="141.90056099" height="21.23576429"/></g><text fill="black" stroke="none" font-family="sans-serif" font-size="11pt" font-style="normal" font-weight="normal" text-decoration="normal" x="1403.4305665305" y="1419.039110671" text-anchor="start" dominant-baseline="alphabetic">highLightOutputPorts</text></g><g><path fill="none" stroke="black" paint-order="fill stroke markers" d=" M 1381.6502954638333 1425.5731919909997 L 1559.4883037138331 1425.5731919909997" stroke-miterlimit="10" stroke-width="1.3612669416666667" stroke-dasharray=""/><g transform="translate(1562.2108375971666,1425.5731919909997) translate(-1562.2108375971666,-1425.5731919909997)"><path fill="black" stroke="none" paint-order="stroke fill markers" d=" M 1548.5981681805 1418.7668572826665 L 1562.2108375971666 1425.5731919909997 L 1548.5981681805 1432.379526699333 Z"/></g></g><g><g><rect fill="white" stroke="none" x="1597.8760314688332" y="1494.181045851" width="136.90056099" height="21.23576429"/></g><text fill="black" stroke="none" font-family="sans-serif" font-size="11pt" font-style="normal" font-weight="normal" text-decoration="normal" x="1600.3263119638332" y="1508.882728821" text-anchor="start" dominant-baseline="alphabetic">setHighlighted(false)</text></g><g><path fill="none" stroke="black" paint-order="fill stroke markers" d=" M 1578.5460408971667 1515.4168101409998 L 1751.3840491471665 1515.4168101409998" stroke-miterlimit="10" stroke-width="1.3612669416666667" stroke-dasharray=""/><g transform="translate(1754.1065830305,1515.4168101409998) translate(-1754.1065830305,-1515.4168101409998)"><path fill="black" stroke="none" paint-order="stroke fill markers" d=" M 1740.4939136138332 1508.6104754326666 L 1754.1065830305 1515.4168101409998 L 1740.4939136138332 1522.223144849333 Z"/></g></g><g><g><rect fill="white" stroke="none" x="1663.8760314688332" y="1539.919615091" width="4.90056099" height="21.23576429"/></g><text fill="black" stroke="none" font-family="sans-serif" font-size="11pt" font-style="normal" font-weight="normal" text-decoration="normal" x="1666.3263119638332" y="1554.621298061" text-anchor="start" dominant-baseline="alphabetic"></text></g><g><path fill="none" stroke="black" paint-order="fill stroke markers" d=" M 1754.1065830305 1561.1553793809999 L 1581.2685747805 1561.1553793809999" stroke-miterlimit="10" stroke-width="1.3612669416666667" stroke-dasharray="6.53408132"/><g transform="translate(1578.5460408971667,1561.1553793809999) translate(-1578.5460408971667,-1561.1553793809999)"><path fill="black" stroke="none" paint-order="stroke fill markers" d=" M 1592.1587103138334 1554.3490446726667 L 1578.5460408971667 1561.1553793809999 L 1592.1587103138334 1567.961714089333 Z"/></g></g><g><g><rect fill="white" stroke="none" x="1469.4802860355" y="1610.160989281" width="4.90056099" height="21.23576429"/></g><text fill="black" stroke="none" font-family="sans-serif" font-size="11pt" font-style="normal" font-weight="normal" text-decoration="normal" x="1471.9305665305" y="1624.862672251" text-anchor="start" dominant-baseline="alphabetic"></text></g><g><path fill="none" stroke="black" paint-order="fill stroke markers" d=" M 1562.2108375971666 1631.3967535709999 L 1384.3728293471668 1631.3967535709999" stroke-miterlimit="10" stroke-width="1.3612669416666667" stroke-dasharray="6.53408132"/><g transform="translate(1381.6502954638333,1631.3967535709999) translate(-1381.6502954638333,-1631.3967535709999)"><path fill="black" stroke="none" paint-order="stroke fill markers" d=" M 1395.2629648805 1624.5904188626666 L 1381.6502954638333 1631.3967535709999 L 1395.2629648805 1638.203088279333 Z"/></g></g><g><g><rect fill="white" stroke="none" x="1275.0845406021665" y="1680.402363471" width="4.90056099" height="21.23576429"/></g><text fill="black" stroke="none" font-family="sans-serif" font-size="11pt" font-style="normal" font-weight="normal" text-decoration="normal" x="1277.5348210971665" y="1695.104046441" text-anchor="start" dominant-baseline="alphabetic"></text></g><g><path fill="none" stroke="black" paint-order="fill stroke markers" d=" M 1365.3150921638332 1701.6381277609999 L 1192.4770839138334 1701.6381277609999" stroke-miterlimit="10" stroke-width="1.3612669416666667" stroke-dasharray="6.53408132"/><g transform="translate(1189.7545500305,1701.6381277609999) translate(-1189.7545500305,-1701.6381277609999)"><path fill="black" stroke="none" paint-order="stroke fill markers" d=" M 1203.3672194471667 1694.8317930526666 L 1189.7545500305 1701.6381277609999 L 1203.3672194471667 1708.444462469333 Z"/></g></g><g><g><rect fill="white" stroke="none" x="1083.1887951688334" y="1726.140932711" width="4.90056099" height="21.23576429"/></g><text fill="black" stroke="none" font-family="sans-serif" font-size="11pt" font-style="normal" font-weight="normal" text-decoration="normal" x="1085.6390756638334" y="1740.842615681" text-anchor="start" dominant-baseline="alphabetic"></text></g><g><path fill="none" stroke="black" paint-order="fill stroke markers" d=" M 1173.4193467305 1747.376697001 L 1000.5813384805 1747.376697001" stroke-miterlimit="10" stroke-width="1.3612669416666667" stroke-dasharray="6.53408132"/><g transform="translate(997.8588045971667,1747.376697001) translate(-997.8588045971667,-1747.376697001)"><path fill="black" stroke="none" paint-order="stroke fill markers" d=" M 1011.4714740138334 1740.5703622926667 L 997.8588045971667 1747.376697001 L 1011.4714740138334 1754.1830317093331 Z"/></g></g><g><g><rect fill="white" stroke="none" x="761.9839100771667" y="1771.879501951" width="4.90056099" height="21.23576429"/></g><text fill="black" stroke="none" font-family="sans-serif" font-size="11pt" font-style="normal" font-weight="normal" text-decoration="normal" x="764.4341905721667" y="1786.5811849210002" text-anchor="start" dominant-baseline="alphabetic"></text></g><g><path fill="none" stroke="black" paint-order="fill stroke markers" d=" M 981.5236012971666 1793.115266241 L 550.0673137305 1793.115266241" stroke-miterlimit="10" stroke-width="1.3612669416666667" stroke-dasharray="6.53408132"/><g transform="translate(547.3447798471667,1793.115266241) translate(-547.3447798471667,-1793.115266241)"><path fill="black" stroke="none" paint-order="stroke fill markers" d=" M 560.9574492638334 1786.3089315326667 L 547.3447798471667 1793.115266241 L 560.9574492638334 1799.9216009493332 Z"/></g></g><g><g><rect fill="white" stroke="none" x="566.6747704188333" y="1910.728730001" width="184.90056099" height="21.23576429"/></g><text fill="black" stroke="none" font-family="sans-serif" font-size="11pt" font-style="normal" font-weight="normal" text-decoration="normal" x="569.1250509138333" y="1925.4304129710001" text-anchor="start" dominant-baseline="alphabetic">connectOutputPort(outPort)</text></g><g><path fill="none" stroke="black" paint-order="fill stroke markers" d=" M 547.3447798471667 1931.964494291 L 768.1827880971666 1931.964494291" stroke-miterlimit="10" stroke-width="1.3612669416666667" stroke-dasharray=""/><g transform="translate(770.9053219804999,1931.964494291) translate(-770.9053219804999,-1931.964494291)"><path fill="black" stroke="none" paint-order="stroke fill markers" d=" M 757.2926525638333 1925.1581595826667 L 770.9053219804999 1931.964494291 L 757.2926525638333 1938.7708289993332 Z"/></g></g><g><g><rect fill="white" stroke="none" x="1266.4802860355" y="1956.467299241" width="130.90056099" height="21.23576429"/></g><text fill="black" stroke="none" font-family="sans-serif" font-size="11pt" font-style="normal" font-weight="normal" text-decoration="normal" x="1268.9305665305" y="1971.1689822110002" text-anchor="start" dominant-baseline="alphabetic">setConnected(true)</text></g><g><path fill="none" stroke="black" paint-order="fill stroke markers" d=" M 787.2405252805 1977.703063531 L 1873.8980738971666 1977.703063531" stroke-miterlimit="10" stroke-width="1.3612669416666667" stroke-dasharray=""/><g transform="translate(1876.6206077805,1977.703063531) translate(-1876.6206077805,-1977.703063531)"><path fill="black" stroke="none" paint-order="stroke fill markers" d=" M 1863.0079383638333 1970.8967288226668 L 1876.6206077805 1977.703063531 L 1863.0079383638333 1984.5093982393332 Z"/></g></g><g><g><rect fill="white" stroke="none" x="1329.4802860355" y="2002.2058684810002" width="4.90056099" height="21.23576429"/></g><text fill="black" stroke="none" font-family="sans-serif" font-size="11pt" font-style="normal" font-weight="normal" text-decoration="normal" x="1331.9305665305" y="2016.9075514510002" text-anchor="start" dominant-baseline="alphabetic"></text></g><g><path fill="none" stroke="black" paint-order="fill stroke markers" d=" M 1876.6206077805 2023.441632771 L 789.9630591638333 2023.441632771" stroke-miterlimit="10" stroke-width="1.3612669416666667" stroke-dasharray="6.53408132"/><g transform="translate(787.2405252805,2023.441632771) translate(-787.2405252805,-2023.441632771)"><path fill="black" stroke="none" paint-order="stroke fill markers" d=" M 800.8531946971667 2016.6352980626668 L 787.2405252805 2023.441632771 L 800.8531946971667 2030.2479674793333 Z"/></g></g><g><g><rect fill="white" stroke="none" x="806.5705158521667" y="2092.049486631" width="152.90056099" height="21.23576429"/></g><text fill="black" stroke="none" font-family="sans-serif" font-size="11pt" font-style="normal" font-weight="normal" text-decoration="normal" x="809.0207963471668" y="2106.751169601" text-anchor="start" dominant-baseline="alphabetic">addPowerSource(port)</text></g><g><path fill="none" stroke="black" paint-order="fill stroke markers" d=" M 787.2405252805 2113.2852509209997 L 852.5813384805 2113.2852509209997 L 852.5813384805 2129.620454221 L 789.9630591638333 2129.620454221" stroke-miterlimit="10" stroke-width="1.3612669416666667" stroke-dasharray=""/><g transform="translate(787.2405252805,2129.620454221) translate(-787.2405252805,-2129.620454221)"><path fill="black" stroke="none" paint-order="stroke fill markers" d=" M 800.8531946971667 2122.8141195126664 L 787.2405252805 2129.620454221 L 800.8531946971667 2136.4267889293333 Z"/></g></g><g><g><rect fill="white" stroke="none" x="806.5705158521667" y="2198.228308081" width="137.90056099" height="21.23576429"/></g><text fill="black" stroke="none" font-family="sans-serif" font-size="11pt" font-style="normal" font-weight="normal" text-decoration="normal" x="809.0207963471668" y="2212.929991051" text-anchor="start" dominant-baseline="alphabetic">addGndSource(port)</text></g><g><path fill="none" stroke="black" paint-order="fill stroke markers" d=" M 787.2405252805 2219.4640723709995 L 852.5813384805 2219.4640723709995 L 852.5813384805 2235.7992756709996 L 789.9630591638333 2235.7992756709996" stroke-miterlimit="10" stroke-width="1.3612669416666667" stroke-dasharray=""/><g transform="translate(787.2405252805,2235.7992756709996) translate(-787.2405252805,-2235.7992756709996)"><path fill="black" stroke="none" paint-order="stroke fill markers" d=" M 800.8531946971667 2228.992940962666 L 787.2405252805 2235.7992756709996 L 800.8531946971667 2242.605610379333 Z"/></g></g><g><g><rect fill="white" stroke="none" x="806.5705158521667" y="2328.9099344809997" width="138.90056099" height="21.23576429"/></g><text fill="black" stroke="none" font-family="sans-serif" font-size="11pt" font-style="normal" font-weight="normal" text-decoration="normal" x="809.0207963471668" y="2343.611617451" text-anchor="start" dominant-baseline="alphabetic">notifyIfStateChanged</text></g><g><path fill="none" stroke="black" paint-order="fill stroke markers" d=" M 787.2405252805 2350.1456987709994 L 852.5813384805 2350.1456987709994 L 852.5813384805 2366.4809020709995 L 789.9630591638333 2366.4809020709995" stroke-miterlimit="10" stroke-width="1.3612669416666667" stroke-dasharray=""/><g transform="translate(787.2405252805,2366.4809020709995) translate(-787.2405252805,-2366.4809020709995)"><path fill="black" stroke="none" paint-order="stroke fill markers" d=" M 800.8531946971667 2359.674567362666 L 787.2405252805 2366.4809020709995 L 800.8531946971667 2373.287236779333 Z"/></g></g><g><g><rect fill="white" stroke="none" x="656.6747704188333" y="2415.4865119709993" width="4.90056099" height="21.23576429"/></g><text fill="black" stroke="none" font-family="sans-serif" font-size="11pt" font-style="normal" font-weight="normal" text-decoration="normal" x="659.1250509138333" y="2430.1881949409994" text-anchor="start" dominant-baseline="alphabetic"></text></g><g><path fill="none" stroke="black" paint-order="fill stroke markers" d=" M 770.9053219804999 2436.7222762609995 L 550.0673137305 2436.7222762609995" stroke-miterlimit="10" stroke-width="1.3612669416666667" stroke-dasharray="6.53408132"/><g transform="translate(547.3447798471667,2436.7222762609995) translate(-547.3447798471667,-2436.7222762609995)"><path fill="black" stroke="none" paint-order="stroke fill markers" d=" M 560.9574492638334 2429.915941552666 L 547.3447798471667 2436.7222762609995 L 560.9574492638334 2443.528610969333 Z"/></g></g><g><g><rect fill="white" stroke="none" x="584.1747704188333" y="2461.225081210999" width="149.90056099" height="21.23576429"/></g><text fill="black" stroke="none" font-family="sans-serif" font-size="11pt" font-style="normal" font-weight="normal" text-decoration="normal" x="586.6250509138333" y="2475.9267641809993" text-anchor="start" dominant-baseline="alphabetic">isAnyInputConnected?</text></g><g><path fill="none" stroke="black" paint-order="fill stroke markers" d=" M 547.3447798471667 2482.4608455009993 L 768.1827880971666 2482.4608455009993" stroke-miterlimit="10" stroke-width="1.3612669416666667" stroke-dasharray=""/><g transform="translate(770.9053219804999,2482.4608455009993) translate(-770.9053219804999,-2482.4608455009993)"><path fill="black" stroke="none" paint-order="stroke fill markers" d=" M 757.2926525638333 2475.654510792666 L 770.9053219804999 2482.4608455009993 L 757.2926525638333 2489.2671802093328 Z"/></g></g><g><g><rect fill="white" stroke="none" x="656.6747704188333" y="2506.963650450999" width="4.90056099" height="21.23576429"/></g><text fill="black" stroke="none" font-family="sans-serif" font-size="11pt" font-style="normal" font-weight="normal" text-decoration="normal" x="659.1250509138333" y="2521.665333420999" text-anchor="start" dominant-baseline="alphabetic"></text></g><g><path fill="none" stroke="black" paint-order="fill stroke markers" d=" M 770.9053219804999 2528.199414740999 L 550.0673137305 2528.199414740999" stroke-miterlimit="10" stroke-width="1.3612669416666667" stroke-dasharray="6.53408132"/><g transform="translate(547.3447798471667,2528.199414740999) translate(-547.3447798471667,-2528.199414740999)"><path fill="black" stroke="none" paint-order="stroke fill markers" d=" M 560.9574492638334 2521.3930800326657 L 547.3447798471667 2528.199414740999 L 560.9574492638334 2535.0057494493326 Z"/></g></g><g><g><rect fill="white" stroke="none" x="577.6747704188333" y="2552.702219690999" width="162.90056099" height="21.23576429"/></g><text fill="black" stroke="none" font-family="sans-serif" font-size="11pt" font-style="normal" font-weight="normal" text-decoration="normal" x="580.1250509138333" y="2567.403902660999" text-anchor="start" dominant-baseline="alphabetic">isAnyOutputConnected?</text></g><g><path fill="none" stroke="black" paint-order="fill stroke markers" d=" M 547.3447798471667 2573.937983980999 L 768.1827880971666 2573.937983980999" stroke-miterlimit="10" stroke-width="1.3612669416666667" stroke-dasharray=""/><g transform="translate(770.9053219804999,2573.937983980999) translate(-770.9053219804999,-2573.937983980999)"><path fill="black" stroke="none" paint-order="stroke fill markers" d=" M 757.2926525638333 2567.1316492726655 L 770.9053219804999 2573.937983980999 L 757.2926525638333 2580.7443186893324 Z"/></g></g><g><g><rect fill="white" stroke="none" x="656.6747704188333" y="2598.4407889309987" width="4.90056099" height="21.23576429"/></g><text fill="black" stroke="none" font-family="sans-serif" font-size="11pt" font-style="normal" font-weight="normal" text-decoration="normal" x="659.1250509138333" y="2613.1424719009988" text-anchor="start" dominant-baseline="alphabetic"></text></g><g><path fill="none" stroke="black" paint-order="fill stroke markers" d=" M 770.9053219804999 2619.676553220999 L 550.0673137305 2619.676553220999" stroke-miterlimit="10" stroke-width="1.3612669416666667" stroke-dasharray="6.53408132"/><g transform="translate(547.3447798471667,2619.676553220999) translate(-547.3447798471667,-2619.676553220999)"><path fill="black" stroke="none" paint-order="stroke fill markers" d=" M 560.9574492638334 2612.8702185126654 L 547.3447798471667 2619.676553220999 L 560.9574492638334 2626.4828879293323 Z"/></g></g><g><g><rect fill="white" stroke="none" x="566.6747704188334" y="2688.284407080999" width="113.90056099" height="21.23576429"/></g><text fill="black" stroke="none" font-family="sans-serif" font-size="11pt" font-style="normal" font-weight="normal" text-decoration="normal" x="569.1250509138334" y="2702.986090050999" text-anchor="start" dominant-baseline="alphabetic">finishEditingWire</text></g><g><path fill="none" stroke="black" paint-order="fill stroke markers" d=" M 547.3447798471667 2709.5201713709985 L 612.6855930471667 2709.5201713709985 L 612.6855930471667 2725.8553746709986 L 550.0673137305 2725.8553746709986" stroke-miterlimit="10" stroke-width="1.3612669416666667" stroke-dasharray=""/><g transform="translate(547.3447798471667,2725.8553746709986) translate(-547.3447798471667,-2725.8553746709986)"><path fill="black" stroke="none" paint-order="stroke fill markers" d=" M 560.9574492638334 2719.049039962665 L 547.3447798471667 2725.8553746709986 L 560.9574492638334 2732.661709379332 Z"/></g></g><g><g><rect fill="white" stroke="none" x="599.9839100771667" y="2794.463228530998" width="328.90056099" height="21.23576429"/></g><text fill="black" stroke="none" font-family="sans-serif" font-size="11pt" font-style="normal" font-weight="normal" text-decoration="normal" x="602.4341905721667" y="2809.164911500998" text-anchor="start" dominant-baseline="alphabetic">notifyListeners  [onLookingForPortType](InputPort)</text></g><g><path fill="none" stroke="black" paint-order="fill stroke markers" d=" M 547.3447798471667 2815.6989928209982 L 978.8010674138333 2815.6989928209982" stroke-miterlimit="10" stroke-width="1.3612669416666667" stroke-dasharray=""/><g transform="translate(981.5236012971666,2815.6989928209982) translate(-981.5236012971666,-2815.6989928209982)"><path fill="black" stroke="none" paint-order="stroke fill markers" d=" M 967.9109318804999 2808.892658112665 L 981.5236012971666 2815.6989928209982 L 967.9109318804999 2822.5053275293317 Z"/></g></g><g><g><rect fill="white" stroke="none" x="1023.6887951688334" y="2840.201797770998" width="123.90056099" height="21.23576429"/></g><text fill="black" stroke="none" font-family="sans-serif" font-size="11pt" font-style="normal" font-weight="normal" text-decoration="normal" x="1026.1390756638334" y="2854.903480740998" text-anchor="start" dominant-baseline="alphabetic">highlightInputPorts</text></g><g><path fill="none" stroke="black" paint-order="fill stroke markers" d=" M 997.8588045971667 2861.437562060998 L 1170.6968128471665 2861.437562060998" stroke-miterlimit="10" stroke-width="1.3612669416666667" stroke-dasharray=""/><g transform="translate(1173.4193467305,2861.437562060998) translate(-1173.4193467305,-2861.437562060998)"><path fill="black" stroke="none" paint-order="stroke fill markers" d=" M 1159.8066773138332 2854.6312273526646 L 1173.4193467305 2861.437562060998 L 1159.8066773138332 2868.2438967693315 Z"/></g></g><g><g><rect fill="white" stroke="none" x="1215.5845406021665" y="2885.9403670109978" width="123.90056099" height="21.23576429"/></g><text fill="black" stroke="none" font-family="sans-serif" font-size="11pt" font-style="normal" font-weight="normal" text-decoration="normal" x="1218.0348210971665" y="2900.642049980998" text-anchor="start" dominant-baseline="alphabetic">highlightInputPorts</text></g><g><path fill="none" stroke="black" paint-order="fill stroke markers" d=" M 1189.7545500305 2907.176131300998 L 1362.5925582804998 2907.176131300998" stroke-miterlimit="10" stroke-width="1.3612669416666667" stroke-dasharray=""/><g transform="translate(1365.3150921638332,2907.176131300998) translate(-1365.3150921638332,-2907.176131300998)"><path fill="black" stroke="none" paint-order="stroke fill markers" d=" M 1351.7024227471666 2900.3697965926644 L 1365.3150921638332 2907.176131300998 L 1351.7024227471666 2913.9824660093313 Z"/></g></g><g><g><rect fill="white" stroke="none" x="1407.4802860355" y="2975.7839851609974" width="128.90056099" height="21.23576429"/></g><text fill="black" stroke="none" font-family="sans-serif" font-size="11pt" font-style="normal" font-weight="normal" text-decoration="normal" x="1409.9305665305" y="2990.4856681309975" text-anchor="start" dominant-baseline="alphabetic">highLightInputPorts</text></g><g><path fill="none" stroke="black" paint-order="fill stroke markers" d=" M 1381.6502954638333 2997.0197494509976 L 1559.4883037138331 2997.0197494509976" stroke-miterlimit="10" stroke-width="1.3612669416666667" stroke-dasharray=""/><g transform="translate(1562.2108375971666,2997.0197494509976) translate(-1562.2108375971666,-2997.0197494509976)"><path fill="black" stroke="none" paint-order="stroke fill markers" d=" M 1548.5981681805 2990.213414742664 L 1562.2108375971666 2997.0197494509976 L 1548.5981681805 3003.826084159331 Z"/></g></g><g><g><rect fill="white" stroke="none" x="1600.8760314688332" y="3065.627603310997" width="130.90056099" height="21.23576429"/></g><text fill="black" stroke="none" font-family="sans-serif" font-size="11pt" font-style="normal" font-weight="normal" text-decoration="normal" x="1603.3263119638332" y="3080.329286280997" text-anchor="start" dominant-baseline="alphabetic">setHighlighted(true)</text></g><g><path fill="none" stroke="black" paint-order="fill stroke markers" d=" M 1578.5460408971667 3086.863367600997 L 1751.3840491471665 3086.863367600997" stroke-miterlimit="10" stroke-width="1.3612669416666667" stroke-dasharray=""/><g transform="translate(1754.1065830305,3086.863367600997) translate(-1754.1065830305,-3086.863367600997)"><path fill="black" stroke="none" paint-order="stroke fill markers" d=" M 1740.4939136138332 3080.0570328926638 L 1754.1065830305 3086.863367600997 L 1740.4939136138332 3093.6697023093307 Z"/></g></g><g><g><rect fill="white" stroke="none" x="1663.8760314688332" y="3111.366172550997" width="4.90056099" height="21.23576429"/></g><text fill="black" stroke="none" font-family="sans-serif" font-size="11pt" font-style="normal" font-weight="normal" text-decoration="normal" x="1666.3263119638332" y="3126.067855520997" text-anchor="start" dominant-baseline="alphabetic"></text></g><g><path fill="none" stroke="black" paint-order="fill stroke markers" d=" M 1754.1065830305 3132.601936840997 L 1581.2685747805 3132.601936840997" stroke-miterlimit="10" stroke-width="1.3612669416666667" stroke-dasharray="6.53408132"/><g transform="translate(1578.5460408971667,3132.601936840997) translate(-1578.5460408971667,-3132.601936840997)"><path fill="black" stroke="none" paint-order="stroke fill markers" d=" M 1592.1587103138334 3125.7956021326636 L 1578.5460408971667 3132.601936840997 L 1592.1587103138334 3139.4082715493305 Z"/></g></g><g><g><rect fill="white" stroke="none" x="1469.4802860355" y="3181.607546740997" width="4.90056099" height="21.23576429"/></g><text fill="black" stroke="none" font-family="sans-serif" font-size="11pt" font-style="normal" font-weight="normal" text-decoration="normal" x="1471.9305665305" y="3196.309229710997" text-anchor="start" dominant-baseline="alphabetic"></text></g><g><path fill="none" stroke="black" paint-order="fill stroke markers" d=" M 1562.2108375971666 3202.843311030997 L 1384.3728293471668 3202.843311030997" stroke-miterlimit="10" stroke-width="1.3612669416666667" stroke-dasharray="6.53408132"/><g transform="translate(1381.6502954638333,3202.843311030997) translate(-1381.6502954638333,-3202.843311030997)"><path fill="black" stroke="none" paint-order="stroke fill markers" d=" M 1395.2629648805 3196.0369763226636 L 1381.6502954638333 3202.843311030997 L 1395.2629648805 3209.6496457393305 Z"/></g></g><g><g><rect fill="white" stroke="none" x="1275.0845406021665" y="3251.848920930997" width="4.90056099" height="21.23576429"/></g><text fill="black" stroke="none" font-family="sans-serif" font-size="11pt" font-style="normal" font-weight="normal" text-decoration="normal" x="1277.5348210971665" y="3266.550603900997" text-anchor="start" dominant-baseline="alphabetic"></text></g><g><path fill="none" stroke="black" paint-order="fill stroke markers" d=" M 1365.3150921638332 3273.084685220997 L 1192.4770839138334 3273.084685220997" stroke-miterlimit="10" stroke-width="1.3612669416666667" stroke-dasharray="6.53408132"/><g transform="translate(1189.7545500305,3273.084685220997) translate(-1189.7545500305,-3273.084685220997)"><path fill="black" stroke="none" paint-order="stroke fill markers" d=" M 1203.3672194471667 3266.2783505126636 L 1189.7545500305 3273.084685220997 L 1203.3672194471667 3279.8910199293305 Z"/></g></g><g><g><rect fill="white" stroke="none" x="1083.1887951688334" y="3297.5874901709967" width="4.90056099" height="21.23576429"/></g><text fill="black" stroke="none" font-family="sans-serif" font-size="11pt" font-style="normal" font-weight="normal" text-decoration="normal" x="1085.6390756638334" y="3312.289173140997" text-anchor="start" dominant-baseline="alphabetic"></text></g><g><path fill="none" stroke="black" paint-order="fill stroke markers" d=" M 1173.4193467305 3318.823254460997 L 1000.5813384805 3318.823254460997" stroke-miterlimit="10" stroke-width="1.3612669416666667" stroke-dasharray="6.53408132"/><g transform="translate(997.8588045971667,3318.823254460997) translate(-997.8588045971667,-3318.823254460997)"><path fill="black" stroke="none" paint-order="stroke fill markers" d=" M 1011.4714740138334 3312.0169197526634 L 997.8588045971667 3318.823254460997 L 1011.4714740138334 3325.6295891693303 Z"/></g></g><g><g><rect fill="white" stroke="none" x="761.9839100771667" y="3343.3260594109965" width="4.90056099" height="21.23576429"/></g><text fill="black" stroke="none" font-family="sans-serif" font-size="11pt" font-style="normal" font-weight="normal" text-decoration="normal" x="764.4341905721667" y="3358.0277423809966" text-anchor="start" dominant-baseline="alphabetic"></text></g><g><path fill="none" stroke="black" paint-order="fill stroke markers" d=" M 981.5236012971666 3364.5618237009967 L 550.0673137305 3364.5618237009967" stroke-miterlimit="10" stroke-width="1.3612669416666667" stroke-dasharray="6.53408132"/><g transform="translate(547.3447798471667,3364.5618237009967) translate(-547.3447798471667,-3364.5618237009967)"><path fill="black" stroke="none" paint-order="stroke fill markers" d=" M 560.9574492638334 3357.7554889926632 L 547.3447798471667 3364.5618237009967 L 560.9574492638334 3371.36815840933 Z"/></g></g><g><g><rect fill="white" stroke="none" x="309.25015639383327" y="3438.0702385509967" width="4.90056099" height="21.23576429"/></g><text fill="black" stroke="none" font-family="sans-serif" font-size="11pt" font-style="normal" font-weight="normal" text-decoration="normal" x="311.7004368888333" y="3452.771921520997" text-anchor="start" dominant-baseline="alphabetic"></text></g><g><path fill="none" stroke="black" paint-order="fill stroke markers" d=" M 531.0095765471666 3459.306002840997 L 95.11383111383333 3459.306002840997" stroke-miterlimit="10" stroke-width="1.3612669416666667" stroke-dasharray="6.53408132"/><g transform="translate(92.3912972305,3459.306002840997) translate(-92.3912972305,-3459.306002840997)"><path fill="black" stroke="none" paint-order="stroke fill markers" d=" M 106.00396664716666 3452.4996681326634 L 92.3912972305 3459.306002840997 L 106.00396664716666 3466.1123375493303 Z"/></g></g><g><g/><path fill="none" stroke="black" paint-order="fill stroke markers" d=" M 18.882882380500007 128.55804997099997 L 514.6743732471666 128.55804997099997 L 514.6743732471666 303.34472528099997 L 18.882882380500007 303.34472528099997 L 18.882882380500007 128.55804997099997 Z" stroke-miterlimit="10" stroke-width="2.3336004714285714" stroke-dasharray=""/><path fill="white" stroke="black" paint-order="fill stroke markers" d=" M 18.882882380500007 128.55804997099997 L 18.882882380500007 148.16029393099998 L 283.5532889805 148.16029393099998 L 293.3544109605 138.35917195099998 L 293.3544109605 128.55804997099997 L 18.882882380500007 128.55804997099997" stroke-miterlimit="10" stroke-width="2.3336004714285714" stroke-dasharray=""/><text fill="black" stroke="none" font-family="sans-serif" font-size="8.8pt" font-style="normal" font-weight="bold" text-decoration="normal" x="35.21808568050001" y="141.62621261099997" text-anchor="start" dominant-baseline="alphabetic">When component is added to workspace</text></g><g><g/><path fill="none" stroke="black" paint-order="fill stroke markers" d=" M 35.2180856805 172.66309888099997 L 498.3391699471667 172.66309888099997 L 498.3391699471667 278.841920331 L 35.2180856805 278.841920331 L 35.2180856805 172.66309888099997 Z" stroke-miterlimit="10" stroke-width="2.3336004714285714" stroke-dasharray=""/><path fill="white" stroke="black" paint-order="fill stroke markers" d=" M 35.2180856805 172.66309888099997 L 35.2180856805 192.26534284099998 L 91.8884922805 192.26534284099998 L 101.68961426050001 182.46422086099997 L 101.68961426050001 172.66309888099997 L 35.2180856805 172.66309888099997" stroke-miterlimit="10" stroke-width="2.3336004714285714" stroke-dasharray=""/><text fill="black" stroke="none" font-family="sans-serif" font-size="8.8pt" font-style="normal" font-weight="bold" text-decoration="normal" x="51.5532889805" y="185.73126152099996" text-anchor="start" dominant-baseline="alphabetic">loop</text><text fill="black" stroke="none" font-family="sans-serif" font-size="8.8pt" font-style="normal" font-weight="bold" text-decoration="normal" x="118.02481756050001" y="185.73126152099996" text-anchor="start" dominant-baseline="alphabetic">[ports]</text></g><g><g/><path fill="none" stroke="black" paint-order="fill stroke markers" d=" M 441.16595839716666 435.65987201099995 L 2052.5792187415 435.65987201099995 L 2052.5792187415 3413.567433600997 L 441.16595839716666 3413.567433600997 L 441.16595839716666 435.65987201099995 Z" stroke-miterlimit="10" stroke-width="2.3336004714285714" stroke-dasharray=""/><path fill="white" stroke="black" paint-order="fill stroke markers" d=" M 441.16595839716666 435.65987201099995 L 441.16595839716666 455.26211597099996 L 487.83636499716664 455.26211597099996 L 497.63748697716665 445.46099399099995 L 497.63748697716665 435.65987201099995 L 441.16595839716666 435.65987201099995" stroke-miterlimit="10" stroke-width="2.3336004714285714" stroke-dasharray=""/><text fill="black" stroke="none" font-family="sans-serif" font-size="8.8pt" font-style="normal" font-weight="bold" text-decoration="normal" x="457.50116169716665" y="448.728034651" text-anchor="start" dominant-baseline="alphabetic">alt</text><text fill="black" stroke="none" font-family="sans-serif" font-size="8.8pt" font-style="normal" font-weight="bold" text-decoration="normal" x="513.9726902771666" y="448.728034651" text-anchor="start" dominant-baseline="alphabetic">[isInput]</text><g><path fill="none" stroke="black" paint-order="fill stroke markers" d=" M 441.16595839716666 1866.623681091 L 2052.5792187415 1866.623681091" stroke-miterlimit="10" stroke-width="2.3336004714285714" stroke-dasharray="4.083800825"/></g><g/><text fill="black" stroke="none" font-family="sans-serif" font-size="8.8pt" font-style="normal" font-weight="bold" text-decoration="normal" x="513.9726902771666" y="1879.6918437309998" text-anchor="start" dominant-baseline="alphabetic">[isOutput]</text></g><g><g/><path fill="none" stroke="black" paint-order="fill stroke markers" d=" M 457.50116169716665 662.7191978809998 L 2036.2440154414999 662.7191978809998 L 2036.2440154414999 1842.1208761409998 L 457.50116169716665 1842.1208761409998 L 457.50116169716665 662.7191978809998 Z" stroke-miterlimit="10" stroke-width="2.3336004714285714" stroke-dasharray=""/><path fill="white" stroke="black" paint-order="fill stroke markers" d=" M 457.50116169716665 662.7191978809998 L 457.50116169716665 682.3214418409998 L 508.17156829716663 682.3214418409998 L 517.9726902771666 672.5203198609997 L 517.9726902771666 662.7191978809998 L 457.50116169716665 662.7191978809998" stroke-miterlimit="10" stroke-width="2.3336004714285714" stroke-dasharray=""/><text fill="black" stroke="none" font-family="sans-serif" font-size="8.8pt" font-style="normal" font-weight="bold" text-decoration="normal" x="473.83636499716664" y="675.7873605209998" text-anchor="start" dominant-baseline="alphabetic">opt</text><text fill="black" stroke="none" font-family="sans-serif" font-size="8.8pt" font-style="normal" font-weight="bold" text-decoration="normal" x="534.3078935771666" y="675.7873605209998" text-anchor="start" dominant-baseline="alphabetic">[both false? = canConnect]</text></g><g><g/><path fill="none" stroke="black" paint-order="fill stroke markers" d=" M 473.83636499716664 1072.7328007109995 L 1852.1178028304998 1072.7328007109995 L 1852.1178028304998 1817.618071191 L 473.83636499716664 1817.618071191 L 473.83636499716664 1072.7328007109995 Z" stroke-miterlimit="10" stroke-width="2.3336004714285714" stroke-dasharray=""/><path fill="white" stroke="black" paint-order="fill stroke markers" d=" M 473.83636499716664 1072.7328007109995 L 473.83636499716664 1092.3350446709994 L 520.5067715971666 1092.3350446709994 L 530.3078935771665 1082.5339226909996 L 530.3078935771665 1072.7328007109995 L 473.83636499716664 1072.7328007109995" stroke-miterlimit="10" stroke-width="2.3336004714285714" stroke-dasharray=""/><text fill="black" stroke="none" font-family="sans-serif" font-size="8.8pt" font-style="normal" font-weight="bold" text-decoration="normal" x="490.17156829716663" y="1085.8009633509994" text-anchor="start" dominant-baseline="alphabetic">alt</text><text fill="black" stroke="none" font-family="sans-serif" font-size="8.8pt" font-style="normal" font-weight="bold" text-decoration="normal" x="546.6430968771665" y="1085.8009633509994" text-anchor="start" dominant-baseline="alphabetic">[both true? = wire done]</text><g><path fill="none" stroke="black" paint-order="fill stroke markers" d=" M 473.83636499716664 1178.9116221609995 L 1852.1178028304998 1178.9116221609995" stroke-miterlimit="10" stroke-width="2.3336004714285714" stroke-dasharray="4.083800825"/></g></g><g/><g><g/><path fill="none" stroke="black" paint-order="fill stroke markers" d=" M 1308.1418806138333 1360.2323787909997 L 1835.7825995305 1360.2323787909997 L 1835.7825995305 1655.8995585209998 L 1308.1418806138333 1655.8995585209998 L 1308.1418806138333 1360.2323787909997 Z" stroke-miterlimit="10" stroke-width="2.3336004714285714" stroke-dasharray=""/><path fill="white" stroke="black" paint-order="fill stroke markers" d=" M 1308.1418806138333 1360.2323787909997 L 1308.1418806138333 1379.8346227509996 L 1364.8122872138333 1379.8346227509996 L 1374.6134091938334 1370.0335007709998 L 1374.6134091938334 1360.2323787909997 L 1308.1418806138333 1360.2323787909997" stroke-miterlimit="10" stroke-width="2.3336004714285714" stroke-dasharray=""/><text fill="black" stroke="none" font-family="sans-serif" font-size="8.8pt" font-style="normal" font-weight="bold" text-decoration="normal" x="1324.4770839138334" y="1373.3005414309996" text-anchor="start" dominant-baseline="alphabetic">loop</text><text fill="black" stroke="none" font-family="sans-serif" font-size="8.8pt" font-style="normal" font-weight="bold" text-decoration="normal" x="1390.9486124938335" y="1373.3005414309996" text-anchor="start" dominant-baseline="alphabetic">[componentViews]</text></g><g><g/><path fill="none" stroke="black" paint-order="fill stroke markers" d=" M 1505.0376260471667 1450.0759969409999 L 1819.4473962304999 1450.0759969409999 L 1819.4473962304999 1585.6581843309998 L 1505.0376260471667 1585.6581843309998 L 1505.0376260471667 1450.0759969409999 Z" stroke-miterlimit="10" stroke-width="2.3336004714285714" stroke-dasharray=""/><path fill="white" stroke="black" paint-order="fill stroke markers" d=" M 1505.0376260471667 1450.0759969409999 L 1505.0376260471667 1469.6782409009998 L 1561.7080326471666 1469.6782409009998 L 1571.5091546271667 1459.877118921 L 1571.5091546271667 1450.0759969409999 L 1505.0376260471667 1450.0759969409999" stroke-miterlimit="10" stroke-width="2.3336004714285714" stroke-dasharray=""/><text fill="black" stroke="none" font-family="sans-serif" font-size="8.8pt" font-style="normal" font-weight="bold" text-decoration="normal" x="1521.3728293471668" y="1463.1441595809997" text-anchor="start" dominant-baseline="alphabetic">loop</text><text fill="black" stroke="none" font-family="sans-serif" font-size="8.8pt" font-style="normal" font-weight="bold" text-decoration="normal" x="1587.8443579271668" y="1463.1441595809997" text-anchor="start" dominant-baseline="alphabetic">[portViews]</text></g><g/><g><g/><path fill="none" stroke="black" paint-order="fill stroke markers" d=" M 721.8997120805 2047.944437721 L 965.1883979971667 2047.944437721 L 965.1883979971667 2260.3020806209997 L 721.8997120805 2260.3020806209997 L 721.8997120805 2047.944437721 Z" stroke-miterlimit="10" stroke-width="2.3336004714285714" stroke-dasharray=""/><path fill="white" stroke="black" paint-order="fill stroke markers" d=" M 721.8997120805 2047.944437721 L 721.8997120805 2067.546681681 L 768.5701186805 2067.546681681 L 778.3712406604999 2057.745559701 L 778.3712406604999 2047.944437721 L 721.8997120805 2047.944437721" stroke-miterlimit="10" stroke-width="2.3336004714285714" stroke-dasharray=""/><text fill="black" stroke="none" font-family="sans-serif" font-size="8.8pt" font-style="normal" font-weight="bold" text-decoration="normal" x="738.2349153805" y="2061.012600361" text-anchor="start" dominant-baseline="alphabetic">alt</text><text fill="black" stroke="none" font-family="sans-serif" font-size="8.8pt" font-style="normal" font-weight="bold" text-decoration="normal" x="794.7064439604999" y="2061.012600361" text-anchor="start" dominant-baseline="alphabetic">[isHigh]</text><g><path fill="none" stroke="black" paint-order="fill stroke markers" d=" M 721.8997120805 2154.1232591709995 L 965.1883979971667 2154.1232591709995" stroke-miterlimit="10" stroke-width="2.3336004714285714" stroke-dasharray="4.083800825"/></g><g/><text fill="black" stroke="none" font-family="sans-serif" font-size="8.8pt" font-style="normal" font-weight="bold" text-decoration="normal" x="794.7064439604999" y="2167.1914218109996" text-anchor="start" dominant-baseline="alphabetic">[isLow]</text></g><g/><g><g/><path fill="none" stroke="black" paint-order="fill stroke markers" d=" M 721.8997120805 2284.8048855709994 L 951.1883979971667 2284.8048855709994 L 951.1883979971667 2390.9837070209996 L 721.8997120805 2390.9837070209996 L 721.8997120805 2284.8048855709994 Z" stroke-miterlimit="10" stroke-width="2.3336004714285714" stroke-dasharray=""/><path fill="white" stroke="black" paint-order="fill stroke markers" d=" M 721.8997120805 2284.8048855709994 L 721.8997120805 2304.4071295309996 L 912.5701186805 2304.4071295309996 L 922.3712406604999 2294.6060075509995 L 922.3712406604999 2284.8048855709994 L 721.8997120805 2284.8048855709994" stroke-miterlimit="10" stroke-width="2.3336004714285714" stroke-dasharray=""/><text fill="black" stroke="none" font-family="sans-serif" font-size="8.8pt" font-style="normal" font-weight="bold" text-decoration="normal" x="738.2349153805" y="2297.8730482109995" text-anchor="start" dominant-baseline="alphabetic">update Logic state of circuit</text></g><g><g/><path fill="none" stroke="black" paint-order="fill stroke markers" d=" M 473.83636499716664 2644.1793581709985 L 1852.1178028304998 2644.1793581709985 L 1852.1178028304998 3389.064628650997 L 473.83636499716664 3389.064628650997 L 473.83636499716664 2644.1793581709985 Z" stroke-miterlimit="10" stroke-width="2.3336004714285714" stroke-dasharray=""/><path fill="white" stroke="black" paint-order="fill stroke markers" d=" M 473.83636499716664 2644.1793581709985 L 473.83636499716664 2663.7816021309986 L 520.5067715971666 2663.7816021309986 L 530.3078935771665 2653.9804801509986 L 530.3078935771665 2644.1793581709985 L 473.83636499716664 2644.1793581709985" stroke-miterlimit="10" stroke-width="2.3336004714285714" stroke-dasharray=""/><text fill="black" stroke="none" font-family="sans-serif" font-size="8.8pt" font-style="normal" font-weight="bold" text-decoration="normal" x="490.17156829716663" y="2657.2475208109986" text-anchor="start" dominant-baseline="alphabetic">alt</text><text fill="black" stroke="none" font-family="sans-serif" font-size="8.8pt" font-style="normal" font-weight="bold" text-decoration="normal" x="546.6430968771665" y="2657.2475208109986" text-anchor="start" dominant-baseline="alphabetic">[both true? = wire done]</text><g><path fill="none" stroke="black" paint-order="fill stroke markers" d=" M 473.83636499716664 2750.3581796209983 L 1852.1178028304998 2750.3581796209983" stroke-miterlimit="10" stroke-width="2.3336004714285714" stroke-dasharray="4.083800825"/></g></g><g/><g><g/><path fill="none" stroke="black" paint-order="fill stroke markers" d=" M 1308.1418806138333 2931.6789362509976 L 1835.7825995305 2931.6789362509976 L 1835.7825995305 3227.346115980997 L 1308.1418806138333 3227.346115980997 L 1308.1418806138333 2931.6789362509976 Z" stroke-miterlimit="10" stroke-width="2.3336004714285714" stroke-dasharray=""/><path fill="white" stroke="black" paint-order="fill stroke markers" d=" M 1308.1418806138333 2931.6789362509976 L 1308.1418806138333 2951.2811802109977 L 1364.8122872138333 2951.2811802109977 L 1374.6134091938334 2941.4800582309977 L 1374.6134091938334 2931.6789362509976 L 1308.1418806138333 2931.6789362509976" stroke-miterlimit="10" stroke-width="2.3336004714285714" stroke-dasharray=""/><text fill="black" stroke="none" font-family="sans-serif" font-size="8.8pt" font-style="normal" font-weight="bold" text-decoration="normal" x="1324.4770839138334" y="2944.7470988909977" text-anchor="start" dominant-baseline="alphabetic">loop</text><text fill="black" stroke="none" font-family="sans-serif" font-size="8.8pt" font-style="normal" font-weight="bold" text-decoration="normal" x="1390.9486124938335" y="2944.7470988909977" text-anchor="start" dominant-baseline="alphabetic">[componentViews]</text></g><g><g/><path fill="none" stroke="black" paint-order="fill stroke markers" d=" M 1505.0376260471667 3021.5225544009973 L 1819.4473962304999 3021.5225544009973 L 1819.4473962304999 3157.104741790997 L 1505.0376260471667 3157.104741790997 L 1505.0376260471667 3021.5225544009973 Z" stroke-miterlimit="10" stroke-width="2.3336004714285714" stroke-dasharray=""/><path fill="white" stroke="black" paint-order="fill stroke markers" d=" M 1505.0376260471667 3021.5225544009973 L 1505.0376260471667 3041.1247983609974 L 1561.7080326471666 3041.1247983609974 L 1571.5091546271667 3031.3236763809973 L 1571.5091546271667 3021.5225544009973 L 1505.0376260471667 3021.5225544009973" stroke-miterlimit="10" stroke-width="2.3336004714285714" stroke-dasharray=""/><text fill="black" stroke="none" font-family="sans-serif" font-size="8.8pt" font-style="normal" font-weight="bold" text-decoration="normal" x="1521.3728293471668" y="3034.5907170409973" text-anchor="start" dominant-baseline="alphabetic">loop</text><text fill="black" stroke="none" font-family="sans-serif" font-size="8.8pt" font-style="normal" font-weight="bold" text-decoration="normal" x="1587.8443579271668" y="3034.5907170409973" text-anchor="start" dominant-baseline="alphabetic">[portViews]</text></g></g><g/><g/><g/><g/><g/><g/><g/><g/><g/><g/></g></svg>