<svg version="1.1" xmlns="http://www.w3.org/2000/svg" xmlns:xlink="http://www.w3.org/1999/xlink" width="2042" height="3882"><defs/><g><g/><g/><g/><g/><g/><g/><g/><g/><g/><g/><g/><g/><g/><g/><g/><g/><g/><g/><g/><g/><g/><g/><g/><g/><g/><g/><g/><g/><g/><g/><g/><g/><g/><g/><g/><g/><g/><g/><g/><g/><g/><g/><g/><g/><g/><g/><g/><g/><g/><g/><g/><g/><g/><g/><g/><g/><g/><g><rect fill="white" stroke="none" x="0" y="0" width="2042" height="3882"/></g><g><text fill="black" stroke="none" font-family="sans-serif" font-size="16.5pt" font-style="normal" font-weight="normal" text-decoration="normal" x="829.4070252051588" y="24.50280495" text-anchor="start" dominant-baseline="alphabetic">What happens when you click on a port</text></g><g/><g><path fill="none" stroke="black" paint-order="fill stroke markers" d=" M 92.3912972305 95.887643371 L 92.3912972305 3882.387768310996" stroke-miterlimit="10" stroke-width="1.3612669416666667" stroke-dasharray="12.565541,5.445067766666667"/><path fill="none" stroke="black" paint-order="fill stroke markers" d=" M 539.1771781971667 95.887643371 L 539.1771781971667 3882.387768310996" stroke-miterlimit="10" stroke-width="1.3612669416666667" stroke-dasharray="12.565541,5.445067766666667"/><path fill="none" stroke="black" paint-order="fill stroke markers" d=" M 779.0729236305 95.887643371 L 779.0729236305 3882.387768310996" stroke-miterlimit="10" stroke-width="1.3612669416666667" stroke-dasharray="12.565541,5.445067766666667"/><path fill="none" stroke="black" paint-order="fill stroke markers" d=" M 989.6912029471666 95.887643371 L 989.6912029471666 3882.387768310996" stroke-miterlimit="10" stroke-width="1.3612669416666667" stroke-dasharray="12.565541,5.445067766666667"/><path fill="none" stroke="black" paint-order="fill stroke markers" d=" M 1181.5869483805 95.887643371 L 1181.5869483805 3882.387768310996" stroke-miterlimit="10" stroke-width="1.3612669416666667" stroke-dasharray="12.565541,5.445067766666667"/><path fill="none" stroke="black" paint-order="fill stroke markers" d=" M 1373.4826938138333 95.887643371 L 1373.4826938138333 3882.387768310996" stroke-miterlimit="10" stroke-width="1.3612669416666667" stroke-dasharray="12.565541,5.445067766666667"/><path fill="none" stroke="black" paint-order="fill stroke markers" d=" M 1570.3784392471666 95.887643371 L 1570.3784392471666 3882.387768310996" stroke-miterlimit="10" stroke-width="1.3612669416666667" stroke-dasharray="12.565541,5.445067766666667"/><path fill="none" stroke="black" paint-order="fill stroke markers" d=" M 1762.2741846805 95.887643371 L 1762.2741846805 3882.387768310996" stroke-miterlimit="10" stroke-width="1.3612669416666667" stroke-dasharray="12.565541,5.445067766666667"/><path fill="none" stroke="black" paint-order="fill stroke markers" d=" M 1912.1699301138333 95.887643371 L 1912.1699301138333 3882.387768310996" stroke-miterlimit="10" stroke-width="1.3612669416666667" stroke-dasharray="12.565541,5.445067766666667"/></g><g><path fill="none" stroke="none"/><g><path fill="white" stroke="black" paint-order="fill stroke markers" d=" M 8.167601649999995 51.782594461 L 176.614992811 51.782594461 L 176.614992811 95.887643371 L 8.167601649999995 95.887643371 L 8.167601649999995 51.782594461 Z" stroke-miterlimit="10" stroke-width="2.613632528" stroke-dasharray=""/></g><g><g/><text fill="black" stroke="none" font-family="sans-serif" font-size="11pt" font-style="normal" font-weight="normal" text-decoration="normal" x="25.8912972305" y="79.55244007099999" text-anchor="start" dominant-baseline="alphabetic">WokspaceController</text></g><path fill="none" stroke="none"/><g><path fill="white" stroke="black" paint-order="fill stroke markers" d=" M 456.45348261666663 51.782594461 L 621.9008737776667 51.782594461 L 621.9008737776667 95.887643371 L 456.45348261666663 95.887643371 L 456.45348261666663 51.782594461 Z" stroke-miterlimit="10" stroke-width="2.613632528" stroke-dasharray=""/></g><g><g/><text fill="black" stroke="none" font-family="sans-serif" font-size="11pt" font-style="normal" font-weight="normal" text-decoration="normal" x="474.17717819716665" y="79.55244007099999" text-anchor="start" dominant-baseline="alphabetic">ConnectionManager</text></g><path fill="none" stroke="none"/><g><path fill="white" stroke="black" paint-order="fill stroke markers" d=" M 745.84922805 51.782594461 L 812.296619211 51.782594461 L 812.296619211 95.887643371 L 745.84922805 95.887643371 L 745.84922805 51.782594461 Z" stroke-miterlimit="10" stroke-width="2.613632528" stroke-dasharray=""/></g><g><g/><text fill="black" stroke="none" font-family="sans-serif" font-size="11pt" font-style="normal" font-weight="normal" text-decoration="normal" x="763.5729236305" y="79.55244007099999" text-anchor="start" dominant-baseline="alphabetic">Wire</text></g><path fill="none" stroke="none"/><g><path fill="white" stroke="black" paint-order="fill stroke markers" d=" M 953.4675073666666 51.782594461 L 1025.9148985276665 51.782594461 L 1025.9148985276665 95.887643371 L 953.4675073666666 95.887643371 L 953.4675073666666 51.782594461 Z" stroke-miterlimit="10" stroke-width="2.613632528" stroke-dasharray=""/></g><g><g/><text fill="black" stroke="none" font-family="sans-serif" font-size="11pt" font-style="normal" font-weight="normal" text-decoration="normal" x="971.1912029471666" y="79.55244007099999" text-anchor="start" dominant-baseline="alphabetic">Event</text></g><path fill="none" stroke="none"/><g><path fill="white" stroke="black" paint-order="fill stroke markers" d=" M 1110.8632528 51.782594461 L 1252.310643961 51.782594461 L 1252.310643961 95.887643371 L 1110.8632528 95.887643371 L 1110.8632528 51.782594461 Z" stroke-miterlimit="10" stroke-width="2.613632528" stroke-dasharray=""/></g><g><g/><text fill="black" stroke="none" font-family="sans-serif" font-size="11pt" font-style="normal" font-weight="normal" text-decoration="normal" x="1128.5869483805" y="79.55244007099999" text-anchor="start" dominant-baseline="alphabetic">WorkspaceView</text></g><path fill="none" stroke="none"/><g><path fill="white" stroke="black" paint-order="fill stroke markers" d=" M 1319.2589982333334 51.782594461 L 1427.7063893943334 51.782594461 L 1427.7063893943334 95.887643371 L 1319.2589982333334 95.887643371 L 1319.2589982333334 51.782594461 Z" stroke-miterlimit="10" stroke-width="2.613632528" stroke-dasharray=""/></g><g><g/><text fill="black" stroke="none" font-family="sans-serif" font-size="11pt" font-style="normal" font-weight="normal" text-decoration="normal" x="1336.9826938138333" y="79.55244007099999" text-anchor="start" dominant-baseline="alphabetic">CircuitView</text></g><path fill="none" stroke="none"/><g><path fill="white" stroke="black" paint-order="fill stroke markers" d=" M 1499.1547436666667 51.782594461 L 1641.6021348276668 51.782594461 L 1641.6021348276668 95.887643371 L 1499.1547436666667 95.887643371 L 1499.1547436666667 51.782594461 Z" stroke-miterlimit="10" stroke-width="2.613632528" stroke-dasharray=""/></g><g><g/><text fill="black" stroke="none" font-family="sans-serif" font-size="11pt" font-style="normal" font-weight="normal" text-decoration="normal" x="1516.8784392471666" y="79.55244007099999" text-anchor="start" dominant-baseline="alphabetic">ComponentView</text></g><path fill="none" stroke="none"/><g><path fill="white" stroke="black" paint-order="fill stroke markers" d=" M 1715.5504891 51.782594461 L 1808.997880261 51.782594461 L 1808.997880261 95.887643371 L 1715.5504891 95.887643371 L 1715.5504891 51.782594461 Z" stroke-miterlimit="10" stroke-width="2.613632528" stroke-dasharray=""/></g><g><g/><text fill="black" stroke="none" font-family="sans-serif" font-size="11pt" font-style="normal" font-weight="normal" text-decoration="normal" x="1733.2741846805" y="79.55244007099999" text-anchor="start" dominant-baseline="alphabetic">PortView</text></g><path fill="none" stroke="none"/><g><path fill="white" stroke="black" paint-order="fill stroke markers" d=" M 1880.9462345333334 51.782594461 L 1943.3936256943334 51.782594461 L 1943.3936256943334 95.887643371 L 1880.9462345333334 95.887643371 L 1880.9462345333334 51.782594461 Z" stroke-miterlimit="10" stroke-width="2.613632528" stroke-dasharray=""/></g><g><g/><text fill="black" stroke="none" font-family="sans-serif" font-size="11pt" font-style="normal" font-weight="normal" text-decoration="normal" x="1898.6699301138333" y="79.55244007099999" text-anchor="start" dominant-baseline="alphabetic">Port</text></g></g><g><path fill="white" stroke="black" paint-order="fill stroke markers" d=" M 531.0095765471666 411.15706706099996 L 547.3447798471667 411.15706706099996 L 547.3447798471667 3825.214556760996 L 531.0095765471666 3825.214556760996 L 531.0095765471666 411.15706706099996" stroke-miterlimit="10" stroke-width="1.3612669416666667" stroke-dasharray=""/><path fill="white" stroke="black" paint-order="fill stroke markers" d=" M 770.9053219804999 501.00068521099996 L 787.2405252805 501.00068521099996 L 787.2405252805 546.739254451 L 770.9053219804999 546.739254451 L 770.9053219804999 501.00068521099996" stroke-miterlimit="10" stroke-width="1.3612669416666667" stroke-dasharray=""/><path fill="white" stroke="black" paint-order="fill stroke markers" d=" M 1904.0023284638332 592.4778236909999 L 1920.3375317638333 592.4778236909999 L 1920.3375317638333 638.2163929309999 L 1904.0023284638332 638.2163929309999 L 1904.0023284638332 592.4778236909999" stroke-miterlimit="10" stroke-width="1.3612669416666667" stroke-dasharray=""/><path fill="white" stroke="black" paint-order="fill stroke markers" d=" M 770.9053219804999 728.0600110809997 L 787.2405252805 728.0600110809997 L 787.2405252805 865.2757188009996 L 770.9053219804999 865.2757188009996 L 770.9053219804999 728.0600110809997" stroke-miterlimit="10" stroke-width="1.3612669416666667" stroke-dasharray=""/><path fill="white" stroke="black" paint-order="fill stroke markers" d=" M 1904.0023284638332 773.7985803209997 L 1920.3375317638333 773.7985803209997 L 1920.3375317638333 819.5371495609996 L 1904.0023284638332 819.5371495609996 L 1904.0023284638332 773.7985803209997" stroke-miterlimit="10" stroke-width="1.3612669416666667" stroke-dasharray=""/><path fill="white" stroke="black" paint-order="fill stroke markers" d=" M 770.9053219804999 935.5170929909996 L 787.2405252805 935.5170929909996 L 787.2405252805 981.2556622309995 L 770.9053219804999 981.2556622309995 L 770.9053219804999 935.5170929909996" stroke-miterlimit="10" stroke-width="1.3612669416666667" stroke-dasharray=""/><path fill="white" stroke="black" paint-order="fill stroke markers" d=" M 770.9053219804999 1026.9942314709995 L 787.2405252805 1026.9942314709995 L 787.2405252805 1072.7328007109995 L 770.9053219804999 1072.7328007109995 L 770.9053219804999 1026.9942314709995" stroke-miterlimit="10" stroke-width="1.3612669416666667" stroke-dasharray=""/><path fill="white" stroke="black" paint-order="fill stroke markers" d=" M 981.5236012971666 1268.7552403109996 L 997.8588045971667 1268.7552403109996 L 997.8588045971667 2000.5723481510004 L 981.5236012971666 2000.5723481510004 L 981.5236012971666 1268.7552403109996" stroke-miterlimit="10" stroke-width="1.3612669416666667" stroke-dasharray=""/><path fill="white" stroke="black" paint-order="fill stroke markers" d=" M 1173.4193467305 1314.4938095509997 L 1189.7545500305 1314.4938095509997 L 1189.7545500305 1954.8337789110003 L 1173.4193467305 1954.8337789110003 L 1173.4193467305 1314.4938095509997" stroke-miterlimit="10" stroke-width="1.3612669416666667" stroke-dasharray=""/><path fill="white" stroke="black" paint-order="fill stroke markers" d=" M 1365.3150921638332 1360.2323787909997 L 1381.6502954638333 1360.2323787909997 L 1381.6502954638333 1909.0952096710002 L 1365.3150921638332 1909.0952096710002 L 1365.3150921638332 1360.2323787909997" stroke-miterlimit="10" stroke-width="1.3612669416666667" stroke-dasharray=""/><path fill="white" stroke="black" paint-order="fill stroke markers" d=" M 1562.2108375971666 1450.0759969409999 L 1578.5460408971667 1450.0759969409999 L 1578.5460408971667 1838.8538354810003 L 1562.2108375971666 1838.8538354810003 L 1562.2108375971666 1450.0759969409999" stroke-miterlimit="10" stroke-width="1.3612669416666667" stroke-dasharray=""/><path fill="white" stroke="black" paint-order="fill stroke markers" d=" M 1754.1065830305 1539.919615091 L 1770.4417863305 1539.919615091 L 1770.4417863305 1768.6124612910003 L 1754.1065830305 1768.6124612910003 L 1754.1065830305 1539.919615091" stroke-miterlimit="10" stroke-width="1.3612669416666667" stroke-dasharray=""/><path fill="white" stroke="black" paint-order="fill stroke markers" d=" M 1904.0023284638332 1585.658184331 L 1920.3375317638333 1585.658184331 L 1920.3375317638333 1631.396753571 L 1904.0023284638332 1631.396753571 L 1904.0023284638332 1585.658184331" stroke-miterlimit="10" stroke-width="1.3612669416666667" stroke-dasharray=""/><path fill="white" stroke="black" paint-order="fill stroke markers" d=" M 1904.0023284638332 1677.1353228110002 L 1920.3375317638333 1677.1353228110002 L 1920.3375317638333 1722.8738920510002 L 1904.0023284638332 1722.8738920510002 L 1904.0023284638332 1677.1353228110002" stroke-miterlimit="10" stroke-width="1.3612669416666667" stroke-dasharray=""/><path fill="white" stroke="black" paint-order="fill stroke markers" d=" M 770.9053219804999 2114.918771251 L 787.2405252805 2114.918771251 L 787.2405252805 2619.6765532209993 L 770.9053219804999 2619.6765532209993 L 770.9053219804999 2114.918771251" stroke-miterlimit="10" stroke-width="1.3612669416666667" stroke-dasharray=""/><path fill="white" stroke="black" paint-order="fill stroke markers" d=" M 1904.0023284638332 2160.657340491 L 1920.3375317638333 2160.657340491 L 1920.3375317638333 2206.395909731 L 1904.0023284638332 2206.395909731 L 1904.0023284638332 2160.657340491" stroke-miterlimit="10" stroke-width="1.3612669416666667" stroke-dasharray=""/><path fill="white" stroke="black" paint-order="fill stroke markers" d=" M 770.9053219804999 2665.415122460999 L 787.2405252805 2665.415122460999 L 787.2405252805 2711.153691700999 L 770.9053219804999 2711.153691700999 L 770.9053219804999 2665.415122460999" stroke-miterlimit="10" stroke-width="1.3612669416666667" stroke-dasharray=""/><path fill="white" stroke="black" paint-order="fill stroke markers" d=" M 770.9053219804999 2756.8922609409988 L 787.2405252805 2756.8922609409988 L 787.2405252805 2802.6308301809986 L 770.9053219804999 2802.6308301809986 L 770.9053219804999 2756.8922609409988" stroke-miterlimit="10" stroke-width="1.3612669416666667" stroke-dasharray=""/><path fill="white" stroke="black" paint-order="fill stroke markers" d=" M 981.5236012971666 2998.653269780998 L 997.8588045971667 2998.653269780998 L 997.8588045971667 3730.470377620996 L 981.5236012971666 3730.470377620996 L 981.5236012971666 2998.653269780998" stroke-miterlimit="10" stroke-width="1.3612669416666667" stroke-dasharray=""/><path fill="white" stroke="black" paint-order="fill stroke markers" d=" M 1173.4193467305 3044.391839020998 L 1189.7545500305 3044.391839020998 L 1189.7545500305 3684.731808380996 L 1173.4193467305 3684.731808380996 L 1173.4193467305 3044.391839020998" stroke-miterlimit="10" stroke-width="1.3612669416666667" stroke-dasharray=""/><path fill="white" stroke="black" paint-order="fill stroke markers" d=" M 1365.3150921638332 3090.1304082609977 L 1381.6502954638333 3090.1304082609977 L 1381.6502954638333 3638.993239140996 L 1365.3150921638332 3638.993239140996 L 1365.3150921638332 3090.1304082609977" stroke-miterlimit="10" stroke-width="1.3612669416666667" stroke-dasharray=""/><path fill="white" stroke="black" paint-order="fill stroke markers" d=" M 1562.2108375971666 3179.9740264109973 L 1578.5460408971667 3179.9740264109973 L 1578.5460408971667 3568.751864950996 L 1562.2108375971666 3568.751864950996 L 1562.2108375971666 3179.9740264109973" stroke-miterlimit="10" stroke-width="1.3612669416666667" stroke-dasharray=""/><path fill="white" stroke="black" paint-order="fill stroke markers" d=" M 1754.1065830305 3269.817644560997 L 1770.4417863305 3269.817644560997 L 1770.4417863305 3498.510490760996 L 1754.1065830305 3498.510490760996 L 1754.1065830305 3269.817644560997" stroke-miterlimit="10" stroke-width="1.3612669416666667" stroke-dasharray=""/><path fill="white" stroke="black" paint-order="fill stroke markers" d=" M 1904.0023284638332 3315.556213800997 L 1920.3375317638333 3315.556213800997 L 1920.3375317638333 3361.2947830409967 L 1904.0023284638332 3361.2947830409967 L 1904.0023284638332 3315.556213800997" stroke-miterlimit="10" stroke-width="1.3612669416666667" stroke-dasharray=""/><path fill="white" stroke="black" paint-order="fill stroke markers" d=" M 1904.0023284638332 3407.0333522809965 L 1920.3375317638333 3407.0333522809965 L 1920.3375317638333 3452.7719215209963 L 1904.0023284638332 3452.7719215209963 L 1904.0023284638332 3407.0333522809965" stroke-miterlimit="10" stroke-width="1.3612669416666667" stroke-dasharray=""/><g><g><rect fill="white" stroke="none" x="111.72128780216666" y="216.768147791" width="380.90056099" height="21.23576429"/></g><text fill="black" stroke="none" font-family="sans-serif" font-size="11pt" font-style="normal" font-weight="normal" text-decoration="normal" x="114.17156829716666" y="231.46983076099997" text-anchor="start" dominant-baseline="alphabetic">bind(onMouseClicked, connectionManager.connectToPort)</text></g><g><path fill="none" stroke="black" paint-order="fill stroke markers" d=" M 92.3912972305 238.00391208099998 L 157.7321104305 238.00391208099998 L 157.7321104305 254.33911538099997 L 95.11383111383333 254.33911538099997" stroke-miterlimit="10" stroke-width="1.3612669416666667" stroke-dasharray=""/><g transform="translate(92.3912972305,254.33911538099997) translate(-92.3912972305,-254.33911538099997)"><path fill="black" stroke="none" paint-order="stroke fill markers" d=" M 106.00396664716666 247.53278067266663 L 92.3912972305 254.33911538099997 L 106.00396664716666 261.1454500893333 Z"/></g></g><path fill="white" stroke="black" paint-order="fill stroke markers" d=" M 92.3912972305 346.63301402599996 L 100.5588988805 346.63301402599996 M 100.5588988805 327.84753023099995 L 266.59578515050003 327.84753023099995 L 281.2974681205 342.54921320099993 L 281.2974681205 365.41849782099996 L 100.5588988805 365.41849782099996 L 100.5588988805 327.84753023099995 M 266.59578515050003 327.84753023099995 L 266.59578515050003 342.54921320099993 L 281.2974681205 342.54921320099993" stroke-miterlimit="10" stroke-width="1.3612669416666667" stroke-dasharray=""/><g><text fill="black" stroke="none" font-family="sans-serif" font-size="11pt" font-style="normal" font-weight="normal" text-decoration="normal" x="123.42818350049998" y="350.7168148509999" text-anchor="start" dominant-baseline="alphabetic">User Clicks On Port!</text></g><g><g><rect fill="white" stroke="none" x="262.25015639383327" y="389.92130277099994" width="98.90056099" height="21.23576429"/></g><text fill="black" stroke="none" font-family="sans-serif" font-size="11pt" font-style="normal" font-weight="normal" text-decoration="normal" x="264.7004368888333" y="404.6229857409999" text-anchor="start" dominant-baseline="alphabetic">connectToPort</text></g><g><path fill="none" stroke="black" paint-order="fill stroke markers" d=" M 92.3912972305 411.15706706099996 L 528.2870426638333 411.15706706099996" stroke-miterlimit="10" stroke-width="1.3612669416666667" stroke-dasharray=""/><g transform="translate(531.0095765471666,411.15706706099996) translate(-531.0095765471666,-411.15706706099996)"><path fill="black" stroke="none" paint-order="stroke fill markers" d=" M 517.3969071304999 404.3507323526666 L 531.0095765471666 411.15706706099996 L 517.3969071304999 417.9634017693333 Z"/></g></g><g><g><rect fill="white" stroke="none" x="584.1747704188333" y="479.76492092099994" width="149.90056099" height="21.23576429"/></g><text fill="black" stroke="none" font-family="sans-serif" font-size="11pt" font-style="normal" font-weight="normal" text-decoration="normal" x="586.6250509138333" y="494.4666038909999" text-anchor="start" dominant-baseline="alphabetic">isAnyInputConnected?</text></g><g><path fill="none" stroke="black" paint-order="fill stroke markers" d=" M 547.3447798471667 501.00068521099996 L 768.1827880971666 501.00068521099996" stroke-miterlimit="10" stroke-width="1.3612669416666667" stroke-dasharray=""/><g transform="translate(770.9053219804999,501.00068521099996) translate(-770.9053219804999,-501.00068521099996)"><path fill="black" stroke="none" paint-order="stroke fill markers" d=" M 757.2926525638333 494.1943505026666 L 770.9053219804999 501.00068521099996 L 757.2926525638333 507.8070199193333 Z"/></g></g><g><g><rect fill="white" stroke="none" x="656.6747704188333" y="525.503490161" width="4.90056099" height="21.23576429"/></g><text fill="black" stroke="none" font-family="sans-serif" font-size="11pt" font-style="normal" font-weight="normal" text-decoration="normal" x="659.1250509138333" y="540.2051731309999" text-anchor="start" dominant-baseline="alphabetic"></text></g><g><path fill="none" stroke="black" paint-order="fill stroke markers" d=" M 770.9053219804999 546.739254451 L 550.0673137305 546.739254451" stroke-miterlimit="10" stroke-width="1.3612669416666667" stroke-dasharray="6.53408132"/><g transform="translate(547.3447798471667,546.739254451) translate(-547.3447798471667,-546.739254451)"><path fill="black" stroke="none" paint-order="stroke fill markers" d=" M 560.9574492638334 539.9329197426666 L 547.3447798471667 546.739254451 L 560.9574492638334 553.5455891593333 Z"/></g></g><g><g><rect fill="white" stroke="none" x="1178.2232736605" y="571.2420594009999" width="94.90056099" height="21.23576429"/></g><text fill="black" stroke="none" font-family="sans-serif" font-size="11pt" font-style="normal" font-weight="normal" text-decoration="normal" x="1180.6735541555" y="585.9437423709999" text-anchor="start" dominant-baseline="alphabetic">isConnected?</text></g><g><path fill="none" stroke="black" paint-order="fill stroke markers" d=" M 547.3447798471667 592.4778236909999 L 1901.2797945804998 592.4778236909999" stroke-miterlimit="10" stroke-width="1.3612669416666667" stroke-dasharray=""/><g transform="translate(1904.0023284638332,592.4778236909999) translate(-1904.0023284638332,-592.4778236909999)"><path fill="black" stroke="none" paint-order="stroke fill markers" d=" M 1890.3896590471666 585.6714889826666 L 1904.0023284638332 592.4778236909999 L 1890.3896590471666 599.2841583993333 Z"/></g></g><g><g><rect fill="white" stroke="none" x="1223.2232736605" y="616.9806286409998" width="4.90056099" height="21.23576429"/></g><text fill="black" stroke="none" font-family="sans-serif" font-size="11pt" font-style="normal" font-weight="normal" text-decoration="normal" x="1225.6735541555" y="631.6823116109998" text-anchor="start" dominant-baseline="alphabetic"></text></g><g><path fill="none" stroke="black" paint-order="fill stroke markers" d=" M 1904.0023284638332 638.2163929309999 L 550.0673137305 638.2163929309999" stroke-miterlimit="10" stroke-width="1.3612669416666667" stroke-dasharray="6.53408132"/><g transform="translate(547.3447798471667,638.2163929309999) translate(-547.3447798471667,-638.2163929309999)"><path fill="black" stroke="none" paint-order="stroke fill markers" d=" M 560.9574492638334 631.4100582226665 L 547.3447798471667 638.2163929309999 L 560.9574492638334 645.0227276393332 Z"/></g></g><g><g><rect fill="white" stroke="none" x="601.6747704188333" y="706.8242467909997" width="114.90056099" height="21.23576429"/></g><text fill="black" stroke="none" font-family="sans-serif" font-size="11pt" font-style="normal" font-weight="normal" text-decoration="normal" x="604.1250509138333" y="721.5259297609997" text-anchor="start" dominant-baseline="alphabetic">connectInputPort</text></g><g><path fill="none" stroke="black" paint-order="fill stroke markers" d=" M 547.3447798471667 728.0600110809997 L 768.1827880971666 728.0600110809997" stroke-miterlimit="10" stroke-width="1.3612669416666667" stroke-dasharray=""/><g transform="translate(770.9053219804999,728.0600110809997) translate(-770.9053219804999,-728.0600110809997)"><path fill="black" stroke="none" paint-order="stroke fill markers" d=" M 757.2926525638333 721.2536763726664 L 770.9053219804999 728.0600110809997 L 757.2926525638333 734.8663457893331 Z"/></g></g><g><g><rect fill="white" stroke="none" x="1276.1711463771665" y="752.5628160309997" width="138.90056099" height="21.23576429"/></g><text fill="black" stroke="none" font-family="sans-serif" font-size="11pt" font-style="normal" font-weight="normal" text-decoration="normal" x="1278.6214268721665" y="767.2644990009996" text-anchor="start" dominant-baseline="alphabetic">setStateSource(this)</text></g><g><path fill="none" stroke="black" paint-order="fill stroke markers" d=" M 787.2405252805 773.7985803209997 L 1901.2797945804998 773.7985803209997" stroke-miterlimit="10" stroke-width="1.3612669416666667" stroke-dasharray=""/><g transform="translate(1904.0023284638332,773.7985803209997) translate(-1904.0023284638332,-773.7985803209997)"><path fill="black" stroke="none" paint-order="stroke fill markers" d=" M 1890.3896590471666 766.9922456126664 L 1904.0023284638332 773.7985803209997 L 1890.3896590471666 780.604915029333 Z"/></g></g><g><g><rect fill="white" stroke="none" x="1343.1711463771665" y="798.3013852709996" width="4.90056099" height="21.23576429"/></g><text fill="black" stroke="none" font-family="sans-serif" font-size="11pt" font-style="normal" font-weight="normal" text-decoration="normal" x="1345.6214268721665" y="813.0030682409996" text-anchor="start" dominant-baseline="alphabetic"></text></g><g><path fill="none" stroke="black" paint-order="fill stroke markers" d=" M 1904.0023284638332 819.5371495609996 L 789.9630591638333 819.5371495609996" stroke-miterlimit="10" stroke-width="1.3612669416666667" stroke-dasharray="6.53408132"/><g transform="translate(787.2405252805,819.5371495609996) translate(-787.2405252805,-819.5371495609996)"><path fill="black" stroke="none" paint-order="stroke fill markers" d=" M 800.8531946971667 812.7308148526663 L 787.2405252805 819.5371495609996 L 800.8531946971667 826.343484269333 Z"/></g></g><g><g><rect fill="white" stroke="none" x="656.6747704188333" y="844.0399545109996" width="4.90056099" height="21.23576429"/></g><text fill="black" stroke="none" font-family="sans-serif" font-size="11pt" font-style="normal" font-weight="normal" text-decoration="normal" x="659.1250509138333" y="858.7416374809995" text-anchor="start" dominant-baseline="alphabetic"></text></g><g><path fill="none" stroke="black" paint-order="fill stroke markers" d=" M 770.9053219804999 865.2757188009996 L 550.0673137305 865.2757188009996" stroke-miterlimit="10" stroke-width="1.3612669416666667" stroke-dasharray="6.53408132"/><g transform="translate(547.3447798471667,865.2757188009996) translate(-547.3447798471667,-865.2757188009996)"><path fill="black" stroke="none" paint-order="stroke fill markers" d=" M 560.9574492638334 858.4693840926662 L 547.3447798471667 865.2757188009996 L 560.9574492638334 872.0820535093329 Z"/></g></g><g><g><rect fill="white" stroke="none" x="584.1747704188333" y="914.2813287009996" width="149.90056099" height="21.23576429"/></g><text fill="black" stroke="none" font-family="sans-serif" font-size="11pt" font-style="normal" font-weight="normal" text-decoration="normal" x="586.6250509138333" y="928.9830116709995" text-anchor="start" dominant-baseline="alphabetic">isAnyInputConnected?</text></g><g><path fill="none" stroke="black" paint-order="fill stroke markers" d=" M 547.3447798471667 935.5170929909996 L 768.1827880971666 935.5170929909996" stroke-miterlimit="10" stroke-width="1.3612669416666667" stroke-dasharray=""/><g transform="translate(770.9053219804999,935.5170929909996) translate(-770.9053219804999,-935.5170929909996)"><path fill="black" stroke="none" paint-order="stroke fill markers" d=" M 757.2926525638333 928.7107582826662 L 770.9053219804999 935.5170929909996 L 757.2926525638333 942.3234276993329 Z"/></g></g><g><g><rect fill="white" stroke="none" x="656.6747704188333" y="960.0198979409995" width="4.90056099" height="21.23576429"/></g><text fill="black" stroke="none" font-family="sans-serif" font-size="11pt" font-style="normal" font-weight="normal" text-decoration="normal" x="659.1250509138333" y="974.7215809109995" text-anchor="start" dominant-baseline="alphabetic"></text></g><g><path fill="none" stroke="black" paint-order="fill stroke markers" d=" M 770.9053219804999 981.2556622309995 L 550.0673137305 981.2556622309995" stroke-miterlimit="10" stroke-width="1.3612669416666667" stroke-dasharray="6.53408132"/><g transform="translate(547.3447798471667,981.2556622309995) translate(-547.3447798471667,-981.2556622309995)"><path fill="black" stroke="none" paint-order="stroke fill markers" d=" M 560.9574492638334 974.4493275226662 L 547.3447798471667 981.2556622309995 L 560.9574492638334 988.0619969393329 Z"/></g></g><g><g><rect fill="white" stroke="none" x="577.6747704188333" y="1005.7584671809994" width="162.90056099" height="21.23576429"/></g><text fill="black" stroke="none" font-family="sans-serif" font-size="11pt" font-style="normal" font-weight="normal" text-decoration="normal" x="580.1250509138333" y="1020.4601501509994" text-anchor="start" dominant-baseline="alphabetic">isAnyOutputConnected?</text></g><g><path fill="none" stroke="black" paint-order="fill stroke markers" d=" M 547.3447798471667 1026.9942314709995 L 768.1827880971666 1026.9942314709995" stroke-miterlimit="10" stroke-width="1.3612669416666667" stroke-dasharray=""/><g transform="translate(770.9053219804999,1026.9942314709995) translate(-770.9053219804999,-1026.9942314709995)"><path fill="black" stroke="none" paint-order="stroke fill markers" d=" M 757.2926525638333 1020.1878967626661 L 770.9053219804999 1026.9942314709995 L 757.2926525638333 1033.8005661793327 Z"/></g></g><g><g><rect fill="white" stroke="none" x="656.6747704188333" y="1051.4970364209996" width="4.90056099" height="21.23576429"/></g><text fill="black" stroke="none" font-family="sans-serif" font-size="11pt" font-style="normal" font-weight="normal" text-decoration="normal" x="659.1250509138333" y="1066.1987193909997" text-anchor="start" dominant-baseline="alphabetic"></text></g><g><path fill="none" stroke="black" paint-order="fill stroke markers" d=" M 770.9053219804999 1072.7328007109995 L 550.0673137305 1072.7328007109995" stroke-miterlimit="10" stroke-width="1.3612669416666667" stroke-dasharray="6.53408132"/><g transform="translate(547.3447798471667,1072.7328007109995) translate(-547.3447798471667,-1072.7328007109995)"><path fill="black" stroke="none" paint-order="stroke fill markers" d=" M 560.9574492638334 1065.9264660026663 L 547.3447798471667 1072.7328007109995 L 560.9574492638334 1079.5391354193328 Z"/></g></g><g><g><rect fill="white" stroke="none" x="566.6747704188334" y="1141.3406545709995" width="113.90056099" height="21.23576429"/></g><text fill="black" stroke="none" font-family="sans-serif" font-size="11pt" font-style="normal" font-weight="normal" text-decoration="normal" x="569.1250509138334" y="1156.0423375409996" text-anchor="start" dominant-baseline="alphabetic">finishEditingWire</text></g><g><path fill="none" stroke="black" paint-order="fill stroke markers" d=" M 547.3447798471667 1162.5764188609994 L 612.6855930471667 1162.5764188609994 L 612.6855930471667 1178.9116221609995 L 550.0673137305 1178.9116221609995" stroke-miterlimit="10" stroke-width="1.3612669416666667" stroke-dasharray=""/><g transform="translate(547.3447798471667,1178.9116221609995) translate(-547.3447798471667,-1178.9116221609995)"><path fill="black" stroke="none" paint-order="stroke fill markers" d=" M 560.9574492638334 1172.1052874526663 L 547.3447798471667 1178.9116221609995 L 560.9574492638334 1185.7179568693327 Z"/></g></g><g><g><rect fill="white" stroke="none" x="593.4839100771667" y="1247.5194760209997" width="341.90056099" height="21.23576429"/></g><text fill="black" stroke="none" font-family="sans-serif" font-size="11pt" font-style="normal" font-weight="normal" text-decoration="normal" x="595.9341905721667" y="1262.2211589909998" text-anchor="start" dominant-baseline="alphabetic">notifyListeners  [onLookingForPortType](OutputPort)</text></g><g><path fill="none" stroke="black" paint-order="fill stroke markers" d=" M 547.3447798471667 1268.7552403109996 L 978.8010674138333 1268.7552403109996" stroke-miterlimit="10" stroke-width="1.3612669416666667" stroke-dasharray=""/><g transform="translate(981.5236012971666,1268.7552403109996) translate(-981.5236012971666,-1268.7552403109996)"><path fill="black" stroke="none" paint-order="stroke fill markers" d=" M 967.9109318804999 1261.9489056026664 L 981.5236012971666 1268.7552403109996 L 967.9109318804999 1275.5615750193328 Z"/></g></g><g><g><rect fill="white" stroke="none" x="1017.1887951688334" y="1293.2580452609998" width="136.90056099" height="21.23576429"/></g><text fill="black" stroke="none" font-family="sans-serif" font-size="11pt" font-style="normal" font-weight="normal" text-decoration="normal" x="1019.6390756638334" y="1307.9597282309999" text-anchor="start" dominant-baseline="alphabetic">highlightOutputPorts</text></g><g><path fill="none" stroke="black" paint-order="fill stroke markers" d=" M 997.8588045971667 1314.4938095509997 L 1170.6968128471665 1314.4938095509997" stroke-miterlimit="10" stroke-width="1.3612669416666667" stroke-dasharray=""/><g transform="translate(1173.4193467305,1314.4938095509997) translate(-1173.4193467305,-1314.4938095509997)"><path fill="black" stroke="none" paint-order="stroke fill markers" d=" M 1159.8066773138332 1307.6874748426665 L 1173.4193467305 1314.4938095509997 L 1159.8066773138332 1321.300144259333 Z"/></g></g><g><g><rect fill="white" stroke="none" x="1209.0845406021665" y="1338.9966145009998" width="136.90056099" height="21.23576429"/></g><text fill="black" stroke="none" font-family="sans-serif" font-size="11pt" font-style="normal" font-weight="normal" text-decoration="normal" x="1211.5348210971665" y="1353.698297471" text-anchor="start" dominant-baseline="alphabetic">highlightOutputPorts</text></g><g><path fill="none" stroke="black" paint-order="fill stroke markers" d=" M 1189.7545500305 1360.2323787909997 L 1362.5925582804998 1360.2323787909997" stroke-miterlimit="10" stroke-width="1.3612669416666667" stroke-dasharray=""/><g transform="translate(1365.3150921638332,1360.2323787909997) translate(-1365.3150921638332,-1360.2323787909997)"><path fill="black" stroke="none" paint-order="stroke fill markers" d=" M 1351.7024227471666 1353.4260440826665 L 1365.3150921638332 1360.2323787909997 L 1351.7024227471666 1367.038713499333 Z"/></g></g><g><g><rect fill="white" stroke="none" x="1400.9802860355" y="1428.840232651" width="141.90056099" height="21.23576429"/></g><text fill="black" stroke="none" font-family="sans-serif" font-size="11pt" font-style="normal" font-weight="normal" text-decoration="normal" x="1403.4305665305" y="1443.541915621" text-anchor="start" dominant-baseline="alphabetic">highLightOutputPorts</text></g><g><path fill="none" stroke="black" paint-order="fill stroke markers" d=" M 1381.6502954638333 1450.0759969409999 L 1559.4883037138331 1450.0759969409999" stroke-miterlimit="10" stroke-width="1.3612669416666667" stroke-dasharray=""/><g transform="translate(1562.2108375971666,1450.0759969409999) translate(-1562.2108375971666,-1450.0759969409999)"><path fill="black" stroke="none" paint-order="stroke fill markers" d=" M 1548.5981681805 1443.2696622326666 L 1562.2108375971666 1450.0759969409999 L 1548.5981681805 1456.882331649333 Z"/></g></g><g><g><rect fill="white" stroke="none" x="1597.8760314688332" y="1518.683850801" width="136.90056099" height="21.23576429"/></g><text fill="black" stroke="none" font-family="sans-serif" font-size="11pt" font-style="normal" font-weight="normal" text-decoration="normal" x="1600.3263119638332" y="1533.3855337710002" text-anchor="start" dominant-baseline="alphabetic">setHighlighted(false)</text></g><g><path fill="none" stroke="black" paint-order="fill stroke markers" d=" M 1578.5460408971667 1539.919615091 L 1751.3840491471665 1539.919615091" stroke-miterlimit="10" stroke-width="1.3612669416666667" stroke-dasharray=""/><g transform="translate(1754.1065830305,1539.919615091) translate(-1754.1065830305,-1539.919615091)"><path fill="black" stroke="none" paint-order="stroke fill markers" d=" M 1740.4939136138332 1533.1132803826667 L 1754.1065830305 1539.919615091 L 1740.4939136138332 1546.7259497993332 Z"/></g></g><g><g><rect fill="white" stroke="none" x="1789.7717769021667" y="1564.4224200410001" width="94.90056099" height="21.23576429"/></g><text fill="black" stroke="none" font-family="sans-serif" font-size="11pt" font-style="normal" font-weight="normal" text-decoration="normal" x="1792.2220573971667" y="1579.1241030110002" text-anchor="start" dominant-baseline="alphabetic">isConnected?</text></g><g><path fill="none" stroke="black" paint-order="fill stroke markers" d=" M 1770.4417863305 1585.658184331 L 1901.2797945804998 1585.658184331" stroke-miterlimit="10" stroke-width="1.3612669416666667" stroke-dasharray=""/><g transform="translate(1904.0023284638332,1585.658184331) translate(-1904.0023284638332,-1585.658184331)"><path fill="black" stroke="none" paint-order="stroke fill markers" d=" M 1890.3896590471666 1578.8518496226668 L 1904.0023284638332 1585.658184331 L 1890.3896590471666 1592.4645190393333 Z"/></g></g><g><g><rect fill="white" stroke="none" x="1834.7717769021667" y="1610.1609892810002" width="4.90056099" height="21.23576429"/></g><text fill="black" stroke="none" font-family="sans-serif" font-size="11pt" font-style="normal" font-weight="normal" text-decoration="normal" x="1837.2220573971667" y="1624.8626722510003" text-anchor="start" dominant-baseline="alphabetic"></text></g><g><path fill="none" stroke="black" paint-order="fill stroke markers" d=" M 1904.0023284638332 1631.396753571 L 1773.1643202138334 1631.396753571" stroke-miterlimit="10" stroke-width="1.3612669416666667" stroke-dasharray="6.53408132"/><g transform="translate(1770.4417863305,1631.396753571) translate(-1770.4417863305,-1631.396753571)"><path fill="black" stroke="none" paint-order="stroke fill markers" d=" M 1784.0544557471667 1624.5904188626669 L 1770.4417863305 1631.396753571 L 1784.0544557471667 1638.2030882793333 Z"/></g></g><g><g><rect fill="white" stroke="none" x="1789.7717769021667" y="1655.8995585210002" width="94.90056099" height="21.23576429"/></g><text fill="black" stroke="none" font-family="sans-serif" font-size="11pt" font-style="normal" font-weight="normal" text-decoration="normal" x="1792.2220573971667" y="1670.6012414910003" text-anchor="start" dominant-baseline="alphabetic">isHighlighted?</text></g><g><path fill="none" stroke="black" paint-order="fill stroke markers" d=" M 1770.4417863305 1677.1353228110002 L 1901.2797945804998 1677.1353228110002" stroke-miterlimit="10" stroke-width="1.3612669416666667" stroke-dasharray=""/><g transform="translate(1904.0023284638332,1677.1353228110002) translate(-1904.0023284638332,-1677.1353228110002)"><path fill="black" stroke="none" paint-order="stroke fill markers" d=" M 1890.3896590471666 1670.328988102667 L 1904.0023284638332 1677.1353228110002 L 1890.3896590471666 1683.9416575193334 Z"/></g></g><g><g><rect fill="white" stroke="none" x="1834.7717769021667" y="1701.6381277610003" width="4.90056099" height="21.23576429"/></g><text fill="black" stroke="none" font-family="sans-serif" font-size="11pt" font-style="normal" font-weight="normal" text-decoration="normal" x="1837.2220573971667" y="1716.3398107310004" text-anchor="start" dominant-baseline="alphabetic"></text></g><g><path fill="none" stroke="black" paint-order="fill stroke markers" d=" M 1904.0023284638332 1722.8738920510002 L 1773.1643202138334 1722.8738920510002" stroke-miterlimit="10" stroke-width="1.3612669416666667" stroke-dasharray="6.53408132"/><g transform="translate(1770.4417863305,1722.8738920510002) translate(-1770.4417863305,-1722.8738920510002)"><path fill="black" stroke="none" paint-order="stroke fill markers" d=" M 1784.0544557471667 1716.067557342667 L 1770.4417863305 1722.8738920510002 L 1784.0544557471667 1729.6802267593334 Z"/></g></g><g><g><rect fill="white" stroke="none" x="1663.8760314688332" y="1747.3766970010004" width="4.90056099" height="21.23576429"/></g><text fill="black" stroke="none" font-family="sans-serif" font-size="11pt" font-style="normal" font-weight="normal" text-decoration="normal" x="1666.3263119638332" y="1762.0783799710005" text-anchor="start" dominant-baseline="alphabetic"></text></g><g><path fill="none" stroke="black" paint-order="fill stroke markers" d=" M 1754.1065830305 1768.6124612910003 L 1581.2685747805 1768.6124612910003" stroke-miterlimit="10" stroke-width="1.3612669416666667" stroke-dasharray="6.53408132"/><g transform="translate(1578.5460408971667,1768.6124612910003) translate(-1578.5460408971667,-1768.6124612910003)"><path fill="black" stroke="none" paint-order="stroke fill markers" d=" M 1592.1587103138334 1761.806126582667 L 1578.5460408971667 1768.6124612910003 L 1592.1587103138334 1775.4187959993335 Z"/></g></g><g><g><rect fill="white" stroke="none" x="1469.4802860355" y="1817.6180711910004" width="4.90056099" height="21.23576429"/></g><text fill="black" stroke="none" font-family="sans-serif" font-size="11pt" font-style="normal" font-weight="normal" text-decoration="normal" x="1471.9305665305" y="1832.3197541610004" text-anchor="start" dominant-baseline="alphabetic"></text></g><g><path fill="none" stroke="black" paint-order="fill stroke markers" d=" M 1562.2108375971666 1838.8538354810003 L 1384.3728293471668 1838.8538354810003" stroke-miterlimit="10" stroke-width="1.3612669416666667" stroke-dasharray="6.53408132"/><g transform="translate(1381.6502954638333,1838.8538354810003) translate(-1381.6502954638333,-1838.8538354810003)"><path fill="black" stroke="none" paint-order="stroke fill markers" d=" M 1395.2629648805 1832.047500772667 L 1381.6502954638333 1838.8538354810003 L 1395.2629648805 1845.6601701893335 Z"/></g></g><g><g><rect fill="white" stroke="none" x="1275.0845406021665" y="1887.8594453810003" width="4.90056099" height="21.23576429"/></g><text fill="black" stroke="none" font-family="sans-serif" font-size="11pt" font-style="normal" font-weight="normal" text-decoration="normal" x="1277.5348210971665" y="1902.5611283510004" text-anchor="start" dominant-baseline="alphabetic"></text></g><g><path fill="none" stroke="black" paint-order="fill stroke markers" d=" M 1365.3150921638332 1909.0952096710002 L 1192.4770839138334 1909.0952096710002" stroke-miterlimit="10" stroke-width="1.3612669416666667" stroke-dasharray="6.53408132"/><g transform="translate(1189.7545500305,1909.0952096710002) translate(-1189.7545500305,-1909.0952096710002)"><path fill="black" stroke="none" paint-order="stroke fill markers" d=" M 1203.3672194471667 1902.288874962667 L 1189.7545500305 1909.0952096710002 L 1203.3672194471667 1915.9015443793335 Z"/></g></g><g><g><rect fill="white" stroke="none" x="1083.1887951688334" y="1933.5980146210004" width="4.90056099" height="21.23576429"/></g><text fill="black" stroke="none" font-family="sans-serif" font-size="11pt" font-style="normal" font-weight="normal" text-decoration="normal" x="1085.6390756638334" y="1948.2996975910005" text-anchor="start" dominant-baseline="alphabetic"></text></g><g><path fill="none" stroke="black" paint-order="fill stroke markers" d=" M 1173.4193467305 1954.8337789110003 L 1000.5813384805 1954.8337789110003" stroke-miterlimit="10" stroke-width="1.3612669416666667" stroke-dasharray="6.53408132"/><g transform="translate(997.8588045971667,1954.8337789110003) translate(-997.8588045971667,-1954.8337789110003)"><path fill="black" stroke="none" paint-order="stroke fill markers" d=" M 1011.4714740138334 1948.027444202667 L 997.8588045971667 1954.8337789110003 L 1011.4714740138334 1961.6401136193335 Z"/></g></g><g><g><rect fill="white" stroke="none" x="761.9839100771667" y="1979.3365838610005" width="4.90056099" height="21.23576429"/></g><text fill="black" stroke="none" font-family="sans-serif" font-size="11pt" font-style="normal" font-weight="normal" text-decoration="normal" x="764.4341905721667" y="1994.0382668310006" text-anchor="start" dominant-baseline="alphabetic"></text></g><g><path fill="none" stroke="black" paint-order="fill stroke markers" d=" M 981.5236012971666 2000.5723481510004 L 550.0673137305 2000.5723481510004" stroke-miterlimit="10" stroke-width="1.3612669416666667" stroke-dasharray="6.53408132"/><g transform="translate(547.3447798471667,2000.5723481510004) translate(-547.3447798471667,-2000.5723481510004)"><path fill="black" stroke="none" paint-order="stroke fill markers" d=" M 560.9574492638334 1993.7660134426671 L 547.3447798471667 2000.5723481510004 L 560.9574492638334 2007.3786828593336 Z"/></g></g><g><g><rect fill="white" stroke="none" x="566.6747704188333" y="2093.683006961" width="184.90056099" height="21.23576429"/></g><text fill="black" stroke="none" font-family="sans-serif" font-size="11pt" font-style="normal" font-weight="normal" text-decoration="normal" x="569.1250509138333" y="2108.384689931" text-anchor="start" dominant-baseline="alphabetic">connectOutputPort(outPort)</text></g><g><path fill="none" stroke="black" paint-order="fill stroke markers" d=" M 547.3447798471667 2114.918771251 L 768.1827880971666 2114.918771251" stroke-miterlimit="10" stroke-width="1.3612669416666667" stroke-dasharray=""/><g transform="translate(770.9053219804999,2114.918771251) translate(-770.9053219804999,-2114.918771251)"><path fill="black" stroke="none" paint-order="stroke fill markers" d=" M 757.2926525638333 2108.1124365426667 L 770.9053219804999 2114.918771251 L 757.2926525638333 2121.7251059593336 Z"/></g></g><g><g><rect fill="white" stroke="none" x="1280.1711463771665" y="2139.421576201" width="130.90056099" height="21.23576429"/></g><text fill="black" stroke="none" font-family="sans-serif" font-size="11pt" font-style="normal" font-weight="normal" text-decoration="normal" x="1282.6214268721665" y="2154.123259171" text-anchor="start" dominant-baseline="alphabetic">setConnected(true)</text></g><g><path fill="none" stroke="black" paint-order="fill stroke markers" d=" M 787.2405252805 2160.657340491 L 1901.2797945804998 2160.657340491" stroke-miterlimit="10" stroke-width="1.3612669416666667" stroke-dasharray=""/><g transform="translate(1904.0023284638332,2160.657340491) translate(-1904.0023284638332,-2160.657340491)"><path fill="black" stroke="none" paint-order="stroke fill markers" d=" M 1890.3896590471666 2153.8510057826666 L 1904.0023284638332 2160.657340491 L 1890.3896590471666 2167.4636751993335 Z"/></g></g><g><g><rect fill="white" stroke="none" x="1343.1711463771665" y="2185.1601454409997" width="4.90056099" height="21.23576429"/></g><text fill="black" stroke="none" font-family="sans-serif" font-size="11pt" font-style="normal" font-weight="normal" text-decoration="normal" x="1345.6214268721665" y="2199.861828411" text-anchor="start" dominant-baseline="alphabetic"></text></g><g><path fill="none" stroke="black" paint-order="fill stroke markers" d=" M 1904.0023284638332 2206.395909731 L 789.9630591638333 2206.395909731" stroke-miterlimit="10" stroke-width="1.3612669416666667" stroke-dasharray="6.53408132"/><g transform="translate(787.2405252805,2206.395909731) translate(-787.2405252805,-2206.395909731)"><path fill="black" stroke="none" paint-order="stroke fill markers" d=" M 800.8531946971667 2199.5895750226664 L 787.2405252805 2206.395909731 L 800.8531946971667 2213.2022444393333 Z"/></g></g><g><g><rect fill="white" stroke="none" x="806.5705158521667" y="2275.003763591" width="152.90056099" height="21.23576429"/></g><text fill="black" stroke="none" font-family="sans-serif" font-size="11pt" font-style="normal" font-weight="normal" text-decoration="normal" x="809.0207963471668" y="2289.705446561" text-anchor="start" dominant-baseline="alphabetic">addPowerSource(port)</text></g><g><path fill="none" stroke="black" paint-order="fill stroke markers" d=" M 787.2405252805 2296.2395278809995 L 852.5813384805 2296.2395278809995 L 852.5813384805 2312.5747311809996 L 789.9630591638333 2312.5747311809996" stroke-miterlimit="10" stroke-width="1.3612669416666667" stroke-dasharray=""/><g transform="translate(787.2405252805,2312.5747311809996) translate(-787.2405252805,-2312.5747311809996)"><path fill="black" stroke="none" paint-order="stroke fill markers" d=" M 800.8531946971667 2305.768396472666 L 787.2405252805 2312.5747311809996 L 800.8531946971667 2319.381065889333 Z"/></g></g><g><g><rect fill="white" stroke="none" x="806.5705158521667" y="2381.1825850409996" width="137.90056099" height="21.23576429"/></g><text fill="black" stroke="none" font-family="sans-serif" font-size="11pt" font-style="normal" font-weight="normal" text-decoration="normal" x="809.0207963471668" y="2395.8842680109997" text-anchor="start" dominant-baseline="alphabetic">addGndSource(port)</text></g><g><path fill="none" stroke="black" paint-order="fill stroke markers" d=" M 787.2405252805 2402.4183493309993 L 852.5813384805 2402.4183493309993 L 852.5813384805 2418.7535526309994 L 789.9630591638333 2418.7535526309994" stroke-miterlimit="10" stroke-width="1.3612669416666667" stroke-dasharray=""/><g transform="translate(787.2405252805,2418.7535526309994) translate(-787.2405252805,-2418.7535526309994)"><path fill="black" stroke="none" paint-order="stroke fill markers" d=" M 800.8531946971667 2411.947217922666 L 787.2405252805 2418.7535526309994 L 800.8531946971667 2425.559887339333 Z"/></g></g><g><g><rect fill="white" stroke="none" x="806.5705158521667" y="2511.8642114409995" width="138.90056099" height="21.23576429"/></g><text fill="black" stroke="none" font-family="sans-serif" font-size="11pt" font-style="normal" font-weight="normal" text-decoration="normal" x="809.0207963471668" y="2526.5658944109996" text-anchor="start" dominant-baseline="alphabetic">notifyIfStateChanged</text></g><g><path fill="none" stroke="black" paint-order="fill stroke markers" d=" M 787.2405252805 2533.099975730999 L 852.5813384805 2533.099975730999 L 852.5813384805 2549.4351790309993 L 789.9630591638333 2549.4351790309993" stroke-miterlimit="10" stroke-width="1.3612669416666667" stroke-dasharray=""/><g transform="translate(787.2405252805,2549.4351790309993) translate(-787.2405252805,-2549.4351790309993)"><path fill="black" stroke="none" paint-order="stroke fill markers" d=" M 800.8531946971667 2542.628844322666 L 787.2405252805 2549.4351790309993 L 800.8531946971667 2556.2415137393327 Z"/></g></g><g><g><rect fill="white" stroke="none" x="656.6747704188333" y="2598.440788930999" width="4.90056099" height="21.23576429"/></g><text fill="black" stroke="none" font-family="sans-serif" font-size="11pt" font-style="normal" font-weight="normal" text-decoration="normal" x="659.1250509138333" y="2613.142471900999" text-anchor="start" dominant-baseline="alphabetic"></text></g><g><path fill="none" stroke="black" paint-order="fill stroke markers" d=" M 770.9053219804999 2619.6765532209993 L 550.0673137305 2619.6765532209993" stroke-miterlimit="10" stroke-width="1.3612669416666667" stroke-dasharray="6.53408132"/><g transform="translate(547.3447798471667,2619.6765532209993) translate(-547.3447798471667,-2619.6765532209993)"><path fill="black" stroke="none" paint-order="stroke fill markers" d=" M 560.9574492638334 2612.870218512666 L 547.3447798471667 2619.6765532209993 L 560.9574492638334 2626.4828879293327 Z"/></g></g><g><g><rect fill="white" stroke="none" x="584.1747704188333" y="2644.179358170999" width="149.90056099" height="21.23576429"/></g><text fill="black" stroke="none" font-family="sans-serif" font-size="11pt" font-style="normal" font-weight="normal" text-decoration="normal" x="586.6250509138333" y="2658.881041140999" text-anchor="start" dominant-baseline="alphabetic">isAnyInputConnected?</text></g><g><path fill="none" stroke="black" paint-order="fill stroke markers" d=" M 547.3447798471667 2665.415122460999 L 768.1827880971666 2665.415122460999" stroke-miterlimit="10" stroke-width="1.3612669416666667" stroke-dasharray=""/><g transform="translate(770.9053219804999,2665.415122460999) translate(-770.9053219804999,-2665.415122460999)"><path fill="black" stroke="none" paint-order="stroke fill markers" d=" M 757.2926525638333 2658.6087877526656 L 770.9053219804999 2665.415122460999 L 757.2926525638333 2672.2214571693326 Z"/></g></g><g><g><rect fill="white" stroke="none" x="656.6747704188333" y="2689.917927410999" width="4.90056099" height="21.23576429"/></g><text fill="black" stroke="none" font-family="sans-serif" font-size="11pt" font-style="normal" font-weight="normal" text-decoration="normal" x="659.1250509138333" y="2704.619610380999" text-anchor="start" dominant-baseline="alphabetic"></text></g><g><path fill="none" stroke="black" paint-order="fill stroke markers" d=" M 770.9053219804999 2711.153691700999 L 550.0673137305 2711.153691700999" stroke-miterlimit="10" stroke-width="1.3612669416666667" stroke-dasharray="6.53408132"/><g transform="translate(547.3447798471667,2711.153691700999) translate(-547.3447798471667,-2711.153691700999)"><path fill="black" stroke="none" paint-order="stroke fill markers" d=" M 560.9574492638334 2704.3473569926655 L 547.3447798471667 2711.153691700999 L 560.9574492638334 2717.9600264093324 Z"/></g></g><g><g><rect fill="white" stroke="none" x="577.6747704188333" y="2735.6564966509986" width="162.90056099" height="21.23576429"/></g><text fill="black" stroke="none" font-family="sans-serif" font-size="11pt" font-style="normal" font-weight="normal" text-decoration="normal" x="580.1250509138333" y="2750.3581796209987" text-anchor="start" dominant-baseline="alphabetic">isAnyOutputConnected?</text></g><g><path fill="none" stroke="black" paint-order="fill stroke markers" d=" M 547.3447798471667 2756.8922609409988 L 768.1827880971666 2756.8922609409988" stroke-miterlimit="10" stroke-width="1.3612669416666667" stroke-dasharray=""/><g transform="translate(770.9053219804999,2756.8922609409988) translate(-770.9053219804999,-2756.8922609409988)"><path fill="black" stroke="none" paint-order="stroke fill markers" d=" M 757.2926525638333 2750.0859262326653 L 770.9053219804999 2756.8922609409988 L 757.2926525638333 2763.698595649332 Z"/></g></g><g><g><rect fill="white" stroke="none" x="656.6747704188333" y="2781.3950658909985" width="4.90056099" height="21.23576429"/></g><text fill="black" stroke="none" font-family="sans-serif" font-size="11pt" font-style="normal" font-weight="normal" text-decoration="normal" x="659.1250509138333" y="2796.0967488609986" text-anchor="start" dominant-baseline="alphabetic"></text></g><g><path fill="none" stroke="black" paint-order="fill stroke markers" d=" M 770.9053219804999 2802.6308301809986 L 550.0673137305 2802.6308301809986" stroke-miterlimit="10" stroke-width="1.3612669416666667" stroke-dasharray="6.53408132"/><g transform="translate(547.3447798471667,2802.6308301809986) translate(-547.3447798471667,-2802.6308301809986)"><path fill="black" stroke="none" paint-order="stroke fill markers" d=" M 560.9574492638334 2795.824495472665 L 547.3447798471667 2802.6308301809986 L 560.9574492638334 2809.437164889332 Z"/></g></g><g><g><rect fill="white" stroke="none" x="566.6747704188334" y="2871.2386840409986" width="113.90056099" height="21.23576429"/></g><text fill="black" stroke="none" font-family="sans-serif" font-size="11pt" font-style="normal" font-weight="normal" text-decoration="normal" x="569.1250509138334" y="2885.9403670109987" text-anchor="start" dominant-baseline="alphabetic">finishEditingWire</text></g><g><path fill="none" stroke="black" paint-order="fill stroke markers" d=" M 547.3447798471667 2892.4744483309983 L 612.6855930471667 2892.4744483309983 L 612.6855930471667 2908.8096516309984 L 550.0673137305 2908.8096516309984" stroke-miterlimit="10" stroke-width="1.3612669416666667" stroke-dasharray=""/><g transform="translate(547.3447798471667,2908.8096516309984) translate(-547.3447798471667,-2908.8096516309984)"><path fill="black" stroke="none" paint-order="stroke fill markers" d=" M 560.9574492638334 2902.003316922665 L 547.3447798471667 2908.8096516309984 L 560.9574492638334 2915.615986339332 Z"/></g></g><g><g><rect fill="white" stroke="none" x="599.9839100771667" y="2977.417505490998" width="328.90056099" height="21.23576429"/></g><text fill="black" stroke="none" font-family="sans-serif" font-size="11pt" font-style="normal" font-weight="normal" text-decoration="normal" x="602.4341905721667" y="2992.119188460998" text-anchor="start" dominant-baseline="alphabetic">notifyListeners  [onLookingForPortType](InputPort)</text></g><g><path fill="none" stroke="black" paint-order="fill stroke markers" d=" M 547.3447798471667 2998.653269780998 L 978.8010674138333 2998.653269780998" stroke-miterlimit="10" stroke-width="1.3612669416666667" stroke-dasharray=""/><g transform="translate(981.5236012971666,2998.653269780998) translate(-981.5236012971666,-2998.653269780998)"><path fill="black" stroke="none" paint-order="stroke fill markers" d=" M 967.9109318804999 2991.8469350726646 L 981.5236012971666 2998.653269780998 L 967.9109318804999 3005.4596044893315 Z"/></g></g><g><g><rect fill="white" stroke="none" x="1023.6887951688334" y="3023.1560747309977" width="123.90056099" height="21.23576429"/></g><text fill="black" stroke="none" font-family="sans-serif" font-size="11pt" font-style="normal" font-weight="normal" text-decoration="normal" x="1026.1390756638334" y="3037.857757700998" text-anchor="start" dominant-baseline="alphabetic">highlightInputPorts</text></g><g><path fill="none" stroke="black" paint-order="fill stroke markers" d=" M 997.8588045971667 3044.391839020998 L 1170.6968128471665 3044.391839020998" stroke-miterlimit="10" stroke-width="1.3612669416666667" stroke-dasharray=""/><g transform="translate(1173.4193467305,3044.391839020998) translate(-1173.4193467305,-3044.391839020998)"><path fill="black" stroke="none" paint-order="stroke fill markers" d=" M 1159.8066773138332 3037.5855043126644 L 1173.4193467305 3044.391839020998 L 1159.8066773138332 3051.1981737293313 Z"/></g></g><g><g><rect fill="white" stroke="none" x="1215.5845406021665" y="3068.8946439709975" width="123.90056099" height="21.23576429"/></g><text fill="black" stroke="none" font-family="sans-serif" font-size="11pt" font-style="normal" font-weight="normal" text-decoration="normal" x="1218.0348210971665" y="3083.5963269409976" text-anchor="start" dominant-baseline="alphabetic">highlightInputPorts</text></g><g><path fill="none" stroke="black" paint-order="fill stroke markers" d=" M 1189.7545500305 3090.1304082609977 L 1362.5925582804998 3090.1304082609977" stroke-miterlimit="10" stroke-width="1.3612669416666667" stroke-dasharray=""/><g transform="translate(1365.3150921638332,3090.1304082609977) translate(-1365.3150921638332,-3090.1304082609977)"><path fill="black" stroke="none" paint-order="stroke fill markers" d=" M 1351.7024227471666 3083.3240735526642 L 1365.3150921638332 3090.1304082609977 L 1351.7024227471666 3096.936742969331 Z"/></g></g><g><g><rect fill="white" stroke="none" x="1407.4802860355" y="3158.738262120997" width="128.90056099" height="21.23576429"/></g><text fill="black" stroke="none" font-family="sans-serif" font-size="11pt" font-style="normal" font-weight="normal" text-decoration="normal" x="1409.9305665305" y="3173.4399450909973" text-anchor="start" dominant-baseline="alphabetic">highLightInputPorts</text></g><g><path fill="none" stroke="black" paint-order="fill stroke markers" d=" M 1381.6502954638333 3179.9740264109973 L 1559.4883037138331 3179.9740264109973" stroke-miterlimit="10" stroke-width="1.3612669416666667" stroke-dasharray=""/><g transform="translate(1562.2108375971666,3179.9740264109973) translate(-1562.2108375971666,-3179.9740264109973)"><path fill="black" stroke="none" paint-order="stroke fill markers" d=" M 1548.5981681805 3173.167691702664 L 1562.2108375971666 3179.9740264109973 L 1548.5981681805 3186.780361119331 Z"/></g></g><g><g><rect fill="white" stroke="none" x="1600.8760314688332" y="3248.581880270997" width="130.90056099" height="21.23576429"/></g><text fill="black" stroke="none" font-family="sans-serif" font-size="11pt" font-style="normal" font-weight="normal" text-decoration="normal" x="1603.3263119638332" y="3263.283563240997" text-anchor="start" dominant-baseline="alphabetic">setHighlighted(true)</text></g><g><path fill="none" stroke="black" paint-order="fill stroke markers" d=" M 1578.5460408971667 3269.817644560997 L 1751.3840491471665 3269.817644560997" stroke-miterlimit="10" stroke-width="1.3612669416666667" stroke-dasharray=""/><g transform="translate(1754.1065830305,3269.817644560997) translate(-1754.1065830305,-3269.817644560997)"><path fill="black" stroke="none" paint-order="stroke fill markers" d=" M 1740.4939136138332 3263.0113098526635 L 1754.1065830305 3269.817644560997 L 1740.4939136138332 3276.6239792693304 Z"/></g></g><g><g><rect fill="white" stroke="none" x="1789.7717769021667" y="3294.3204495109967" width="94.90056099" height="21.23576429"/></g><text fill="black" stroke="none" font-family="sans-serif" font-size="11pt" font-style="normal" font-weight="normal" text-decoration="normal" x="1792.2220573971667" y="3309.022132480997" text-anchor="start" dominant-baseline="alphabetic">isConnected?</text></g><g><path fill="none" stroke="black" paint-order="fill stroke markers" d=" M 1770.4417863305 3315.556213800997 L 1901.2797945804998 3315.556213800997" stroke-miterlimit="10" stroke-width="1.3612669416666667" stroke-dasharray=""/><g transform="translate(1904.0023284638332,3315.556213800997) translate(-1904.0023284638332,-3315.556213800997)"><path fill="black" stroke="none" paint-order="stroke fill markers" d=" M 1890.3896590471666 3308.7498790926634 L 1904.0023284638332 3315.556213800997 L 1890.3896590471666 3322.3625485093303 Z"/></g></g><g><g><rect fill="white" stroke="none" x="1834.7717769021667" y="3340.0590187509965" width="4.90056099" height="21.23576429"/></g><text fill="black" stroke="none" font-family="sans-serif" font-size="11pt" font-style="normal" font-weight="normal" text-decoration="normal" x="1837.2220573971667" y="3354.7607017209966" text-anchor="start" dominant-baseline="alphabetic"></text></g><g><path fill="none" stroke="black" paint-order="fill stroke markers" d=" M 1904.0023284638332 3361.2947830409967 L 1773.1643202138334 3361.2947830409967" stroke-miterlimit="10" stroke-width="1.3612669416666667" stroke-dasharray="6.53408132"/><g transform="translate(1770.4417863305,3361.2947830409967) translate(-1770.4417863305,-3361.2947830409967)"><path fill="black" stroke="none" paint-order="stroke fill markers" d=" M 1784.0544557471667 3354.488448332663 L 1770.4417863305 3361.2947830409967 L 1784.0544557471667 3368.10111774933 Z"/></g></g><g><g><rect fill="white" stroke="none" x="1789.7717769021667" y="3385.7975879909964" width="94.90056099" height="21.23576429"/></g><text fill="black" stroke="none" font-family="sans-serif" font-size="11pt" font-style="normal" font-weight="normal" text-decoration="normal" x="1792.2220573971667" y="3400.4992709609965" text-anchor="start" dominant-baseline="alphabetic">isHighlighted?</text></g><g><path fill="none" stroke="black" paint-order="fill stroke markers" d=" M 1770.4417863305 3407.0333522809965 L 1901.2797945804998 3407.0333522809965" stroke-miterlimit="10" stroke-width="1.3612669416666667" stroke-dasharray=""/><g transform="translate(1904.0023284638332,3407.0333522809965) translate(-1904.0023284638332,-3407.0333522809965)"><path fill="black" stroke="none" paint-order="stroke fill markers" d=" M 1890.3896590471666 3400.227017572663 L 1904.0023284638332 3407.0333522809965 L 1890.3896590471666 3413.83968698933 Z"/></g></g><g><g><rect fill="white" stroke="none" x="1834.7717769021667" y="3431.536157230996" width="4.90056099" height="21.23576429"/></g><text fill="black" stroke="none" font-family="sans-serif" font-size="11pt" font-style="normal" font-weight="normal" text-decoration="normal" x="1837.2220573971667" y="3446.2378402009963" text-anchor="start" dominant-baseline="alphabetic"></text></g><g><path fill="none" stroke="black" paint-order="fill stroke markers" d=" M 1904.0023284638332 3452.7719215209963 L 1773.1643202138334 3452.7719215209963" stroke-miterlimit="10" stroke-width="1.3612669416666667" stroke-dasharray="6.53408132"/><g transform="translate(1770.4417863305,3452.7719215209963) translate(-1770.4417863305,-3452.7719215209963)"><path fill="black" stroke="none" paint-order="stroke fill markers" d=" M 1784.0544557471667 3445.965586812663 L 1770.4417863305 3452.7719215209963 L 1784.0544557471667 3459.57825622933 Z"/></g></g><g><g><rect fill="white" stroke="none" x="1663.8760314688332" y="3477.274726470996" width="4.90056099" height="21.23576429"/></g><text fill="black" stroke="none" font-family="sans-serif" font-size="11pt" font-style="normal" font-weight="normal" text-decoration="normal" x="1666.3263119638332" y="3491.976409440996" text-anchor="start" dominant-baseline="alphabetic"></text></g><g><path fill="none" stroke="black" paint-order="fill stroke markers" d=" M 1754.1065830305 3498.510490760996 L 1581.2685747805 3498.510490760996" stroke-miterlimit="10" stroke-width="1.3612669416666667" stroke-dasharray="6.53408132"/><g transform="translate(1578.5460408971667,3498.510490760996) translate(-1578.5460408971667,-3498.510490760996)"><path fill="black" stroke="none" paint-order="stroke fill markers" d=" M 1592.1587103138334 3491.7041560526627 L 1578.5460408971667 3498.510490760996 L 1592.1587103138334 3505.3168254693296 Z"/></g></g><g><g><rect fill="white" stroke="none" x="1469.4802860355" y="3547.516100660996" width="4.90056099" height="21.23576429"/></g><text fill="black" stroke="none" font-family="sans-serif" font-size="11pt" font-style="normal" font-weight="normal" text-decoration="normal" x="1471.9305665305" y="3562.217783630996" text-anchor="start" dominant-baseline="alphabetic"></text></g><g><path fill="none" stroke="black" paint-order="fill stroke markers" d=" M 1562.2108375971666 3568.751864950996 L 1384.3728293471668 3568.751864950996" stroke-miterlimit="10" stroke-width="1.3612669416666667" stroke-dasharray="6.53408132"/><g transform="translate(1381.6502954638333,3568.751864950996) translate(-1381.6502954638333,-3568.751864950996)"><path fill="black" stroke="none" paint-order="stroke fill markers" d=" M 1395.2629648805 3561.9455302426627 L 1381.6502954638333 3568.751864950996 L 1395.2629648805 3575.5581996593296 Z"/></g></g><g><g><rect fill="white" stroke="none" x="1275.0845406021665" y="3617.757474850996" width="4.90056099" height="21.23576429"/></g><text fill="black" stroke="none" font-family="sans-serif" font-size="11pt" font-style="normal" font-weight="normal" text-decoration="normal" x="1277.5348210971665" y="3632.459157820996" text-anchor="start" dominant-baseline="alphabetic"></text></g><g><path fill="none" stroke="black" paint-order="fill stroke markers" d=" M 1365.3150921638332 3638.993239140996 L 1192.4770839138334 3638.993239140996" stroke-miterlimit="10" stroke-width="1.3612669416666667" stroke-dasharray="6.53408132"/><g transform="translate(1189.7545500305,3638.993239140996) translate(-1189.7545500305,-3638.993239140996)"><path fill="black" stroke="none" paint-order="stroke fill markers" d=" M 1203.3672194471667 3632.1869044326627 L 1189.7545500305 3638.993239140996 L 1203.3672194471667 3645.7995738493296 Z"/></g></g><g><g><rect fill="white" stroke="none" x="1083.1887951688334" y="3663.496044090996" width="4.90056099" height="21.23576429"/></g><text fill="black" stroke="none" font-family="sans-serif" font-size="11pt" font-style="normal" font-weight="normal" text-decoration="normal" x="1085.6390756638334" y="3678.197727060996" text-anchor="start" dominant-baseline="alphabetic"></text></g><g><path fill="none" stroke="black" paint-order="fill stroke markers" d=" M 1173.4193467305 3684.731808380996 L 1000.5813384805 3684.731808380996" stroke-miterlimit="10" stroke-width="1.3612669416666667" stroke-dasharray="6.53408132"/><g transform="translate(997.8588045971667,3684.731808380996) translate(-997.8588045971667,-3684.731808380996)"><path fill="black" stroke="none" paint-order="stroke fill markers" d=" M 1011.4714740138334 3677.9254736726625 L 997.8588045971667 3684.731808380996 L 1011.4714740138334 3691.5381430893294 Z"/></g></g><g><g><rect fill="white" stroke="none" x="761.9839100771667" y="3709.2346133309957" width="4.90056099" height="21.23576429"/></g><text fill="black" stroke="none" font-family="sans-serif" font-size="11pt" font-style="normal" font-weight="normal" text-decoration="normal" x="764.4341905721667" y="3723.9362963009958" text-anchor="start" dominant-baseline="alphabetic"></text></g><g><path fill="none" stroke="black" paint-order="fill stroke markers" d=" M 981.5236012971666 3730.470377620996 L 550.0673137305 3730.470377620996" stroke-miterlimit="10" stroke-width="1.3612669416666667" stroke-dasharray="6.53408132"/><g transform="translate(547.3447798471667,3730.470377620996) translate(-547.3447798471667,-3730.470377620996)"><path fill="black" stroke="none" paint-order="stroke fill markers" d=" M 560.9574492638334 3723.6640429126624 L 547.3447798471667 3730.470377620996 L 560.9574492638334 3737.2767123293293 Z"/></g></g><g><g><rect fill="white" stroke="none" x="309.25015639383327" y="3803.978792470996" width="4.90056099" height="21.23576429"/></g><text fill="black" stroke="none" font-family="sans-serif" font-size="11pt" font-style="normal" font-weight="normal" text-decoration="normal" x="311.7004368888333" y="3818.680475440996" text-anchor="start" dominant-baseline="alphabetic"></text></g><g><path fill="none" stroke="black" paint-order="fill stroke markers" d=" M 531.0095765471666 3825.214556760996 L 95.11383111383333 3825.214556760996" stroke-miterlimit="10" stroke-width="1.3612669416666667" stroke-dasharray="6.53408132"/><g transform="translate(92.3912972305,3825.214556760996) translate(-92.3912972305,-3825.214556760996)"><path fill="black" stroke="none" paint-order="stroke fill markers" d=" M 106.00396664716666 3818.4082220526625 L 92.3912972305 3825.214556760996 L 106.00396664716666 3832.0208914693294 Z"/></g></g><g><g/><path fill="none" stroke="black" paint-order="fill stroke markers" d=" M 18.882882380500007 128.55804997099997 L 514.6743732471666 128.55804997099997 L 514.6743732471666 303.34472528099997 L 18.882882380500007 303.34472528099997 L 18.882882380500007 128.55804997099997 Z" stroke-miterlimit="10" stroke-width="2.3336004714285714" stroke-dasharray=""/><path fill="white" stroke="black" paint-order="fill stroke markers" d=" M 18.882882380500007 128.55804997099997 L 18.882882380500007 148.16029393099998 L 283.5532889805 148.16029393099998 L 293.3544109605 138.35917195099998 L 293.3544109605 128.55804997099997 L 18.882882380500007 128.55804997099997" stroke-miterlimit="10" stroke-width="2.3336004714285714" stroke-dasharray=""/><text fill="black" stroke="none" font-family="sans-serif" font-size="8.8pt" font-style="normal" font-weight="bold" text-decoration="normal" x="35.21808568050001" y="141.62621261099997" text-anchor="start" dominant-baseline="alphabetic">When component is added to workspace</text></g><g><g/><path fill="none" stroke="black" paint-order="fill stroke markers" d=" M 35.2180856805 172.66309888099997 L 498.3391699471667 172.66309888099997 L 498.3391699471667 278.841920331 L 35.2180856805 278.841920331 L 35.2180856805 172.66309888099997 Z" stroke-miterlimit="10" stroke-width="2.3336004714285714" stroke-dasharray=""/><path fill="white" stroke="black" paint-order="fill stroke markers" d=" M 35.2180856805 172.66309888099997 L 35.2180856805 192.26534284099998 L 91.8884922805 192.26534284099998 L 101.68961426050001 182.46422086099997 L 101.68961426050001 172.66309888099997 L 35.2180856805 172.66309888099997" stroke-miterlimit="10" stroke-width="2.3336004714285714" stroke-dasharray=""/><text fill="black" stroke="none" font-family="sans-serif" font-size="8.8pt" font-style="normal" font-weight="bold" text-decoration="normal" x="51.5532889805" y="185.73126152099996" text-anchor="start" dominant-baseline="alphabetic">loop</text><text fill="black" stroke="none" font-family="sans-serif" font-size="8.8pt" font-style="normal" font-weight="bold" text-decoration="normal" x="118.02481756050001" y="185.73126152099996" text-anchor="start" dominant-baseline="alphabetic">[ports]</text></g><g><g/><path fill="none" stroke="black" paint-order="fill stroke markers" d=" M 457.50116169716665 435.65987201099995 L 2018.3487515638333 435.65987201099995 L 2018.3487515638333 3779.475987520996 L 457.50116169716665 3779.475987520996 L 457.50116169716665 435.65987201099995 Z" stroke-miterlimit="10" stroke-width="2.3336004714285714" stroke-dasharray=""/><path fill="white" stroke="black" paint-order="fill stroke markers" d=" M 457.50116169716665 435.65987201099995 L 457.50116169716665 455.26211597099996 L 504.17156829716663 455.26211597099996 L 513.9726902771666 445.46099399099995 L 513.9726902771666 435.65987201099995 L 457.50116169716665 435.65987201099995" stroke-miterlimit="10" stroke-width="2.3336004714285714" stroke-dasharray=""/><text fill="black" stroke="none" font-family="sans-serif" font-size="8.8pt" font-style="normal" font-weight="bold" text-decoration="normal" x="473.83636499716664" y="448.728034651" text-anchor="start" dominant-baseline="alphabetic">alt</text><text fill="black" stroke="none" font-family="sans-serif" font-size="8.8pt" font-style="normal" font-weight="bold" text-decoration="normal" x="530.3078935771666" y="448.728034651" text-anchor="start" dominant-baseline="alphabetic">[isInput]</text><g><path fill="none" stroke="black" paint-order="fill stroke markers" d=" M 457.50116169716665 2049.577958051 L 2018.3487515638333 2049.577958051" stroke-miterlimit="10" stroke-width="2.3336004714285714" stroke-dasharray="4.083800825"/></g><g/><text fill="black" stroke="none" font-family="sans-serif" font-size="8.8pt" font-style="normal" font-weight="bold" text-decoration="normal" x="530.3078935771666" y="2062.6461206910003" text-anchor="start" dominant-baseline="alphabetic">[isOutput]</text></g><g><g/><path fill="none" stroke="black" paint-order="fill stroke markers" d=" M 473.83636499716664 662.7191978809998 L 1969.3431416638332 662.7191978809998 L 1969.3431416638332 889.7785237509996 L 473.83636499716664 889.7785237509996 L 473.83636499716664 662.7191978809998 Z" stroke-miterlimit="10" stroke-width="2.3336004714285714" stroke-dasharray=""/><path fill="white" stroke="black" paint-order="fill stroke markers" d=" M 473.83636499716664 662.7191978809998 L 473.83636499716664 682.3214418409998 L 524.5067715971666 682.3214418409998 L 534.3078935771665 672.5203198609997 L 534.3078935771665 662.7191978809998 L 473.83636499716664 662.7191978809998" stroke-miterlimit="10" stroke-width="2.3336004714285714" stroke-dasharray=""/><text fill="black" stroke="none" font-family="sans-serif" font-size="8.8pt" font-style="normal" font-weight="bold" text-decoration="normal" x="490.17156829716663" y="675.7873605209998" text-anchor="start" dominant-baseline="alphabetic">opt</text><text fill="black" stroke="none" font-family="sans-serif" font-size="8.8pt" font-style="normal" font-weight="bold" text-decoration="normal" x="550.6430968771665" y="675.7873605209998" text-anchor="start" dominant-baseline="alphabetic">[both false? = canConnect]</text></g><g><g/><path fill="none" stroke="black" paint-order="fill stroke markers" d=" M 473.83636499716664 1097.2356056609997 L 2002.0135482638334 1097.2356056609997 L 2002.0135482638334 2025.0751531010003 L 473.83636499716664 2025.0751531010003 L 473.83636499716664 1097.2356056609997 Z" stroke-miterlimit="10" stroke-width="2.3336004714285714" stroke-dasharray=""/><path fill="white" stroke="black" paint-order="fill stroke markers" d=" M 473.83636499716664 1097.2356056609997 L 473.83636499716664 1116.8378496209996 L 520.5067715971666 1116.8378496209996 L 530.3078935771665 1107.0367276409997 L 530.3078935771665 1097.2356056609997 L 473.83636499716664 1097.2356056609997" stroke-miterlimit="10" stroke-width="2.3336004714285714" stroke-dasharray=""/><text fill="black" stroke="none" font-family="sans-serif" font-size="8.8pt" font-style="normal" font-weight="bold" text-decoration="normal" x="490.17156829716663" y="1110.3037683009995" text-anchor="start" dominant-baseline="alphabetic">alt</text><text fill="black" stroke="none" font-family="sans-serif" font-size="8.8pt" font-style="normal" font-weight="bold" text-decoration="normal" x="546.6430968771665" y="1110.3037683009995" text-anchor="start" dominant-baseline="alphabetic">[both true? = wire done]</text><g><path fill="none" stroke="black" paint-order="fill stroke markers" d=" M 473.83636499716664 1203.4144271109997 L 2002.0135482638334 1203.4144271109997" stroke-miterlimit="10" stroke-width="2.3336004714285714" stroke-dasharray="4.083800825"/></g></g><g/><g><g/><path fill="none" stroke="black" paint-order="fill stroke markers" d=" M 1308.1418806138333 1384.735183741 L 1985.6783449638333 1384.735183741 L 1985.6783449638333 1863.3566404310002 L 1308.1418806138333 1863.3566404310002 L 1308.1418806138333 1384.735183741 Z" stroke-miterlimit="10" stroke-width="2.3336004714285714" stroke-dasharray=""/><path fill="white" stroke="black" paint-order="fill stroke markers" d=" M 1308.1418806138333 1384.735183741 L 1308.1418806138333 1404.3374277009998 L 1364.8122872138333 1404.3374277009998 L 1374.6134091938334 1394.536305721 L 1374.6134091938334 1384.735183741 L 1308.1418806138333 1384.735183741" stroke-miterlimit="10" stroke-width="2.3336004714285714" stroke-dasharray=""/><text fill="black" stroke="none" font-family="sans-serif" font-size="8.8pt" font-style="normal" font-weight="bold" text-decoration="normal" x="1324.4770839138334" y="1397.8033463809998" text-anchor="start" dominant-baseline="alphabetic">loop</text><text fill="black" stroke="none" font-family="sans-serif" font-size="8.8pt" font-style="normal" font-weight="bold" text-decoration="normal" x="1390.9486124938335" y="1397.8033463809998" text-anchor="start" dominant-baseline="alphabetic">[componentViews]</text></g><g><g/><path fill="none" stroke="black" paint-order="fill stroke markers" d=" M 1505.0376260471667 1474.578801891 L 1969.3431416638332 1474.578801891 L 1969.3431416638332 1793.1152662410002 L 1505.0376260471667 1793.1152662410002 L 1505.0376260471667 1474.578801891 Z" stroke-miterlimit="10" stroke-width="2.3336004714285714" stroke-dasharray=""/><path fill="white" stroke="black" paint-order="fill stroke markers" d=" M 1505.0376260471667 1474.578801891 L 1505.0376260471667 1494.181045851 L 1561.7080326471666 1494.181045851 L 1571.5091546271667 1484.379923871 L 1571.5091546271667 1474.578801891 L 1505.0376260471667 1474.578801891" stroke-miterlimit="10" stroke-width="2.3336004714285714" stroke-dasharray=""/><text fill="black" stroke="none" font-family="sans-serif" font-size="8.8pt" font-style="normal" font-weight="bold" text-decoration="normal" x="1521.3728293471668" y="1487.6469645309999" text-anchor="start" dominant-baseline="alphabetic">loop</text><text fill="black" stroke="none" font-family="sans-serif" font-size="8.8pt" font-style="normal" font-weight="bold" text-decoration="normal" x="1587.8443579271668" y="1487.6469645309999" text-anchor="start" dominant-baseline="alphabetic">[portViews]</text></g><g/><g><g/><path fill="none" stroke="black" paint-order="fill stroke markers" d=" M 721.8997120805 2230.8987146809995 L 965.1883979971667 2230.8987146809995 L 965.1883979971667 2443.2563575809995 L 721.8997120805 2443.2563575809995 L 721.8997120805 2230.8987146809995 Z" stroke-miterlimit="10" stroke-width="2.3336004714285714" stroke-dasharray=""/><path fill="white" stroke="black" paint-order="fill stroke markers" d=" M 721.8997120805 2230.8987146809995 L 721.8997120805 2250.5009586409997 L 768.5701186805 2250.5009586409997 L 778.3712406604999 2240.6998366609996 L 778.3712406604999 2230.8987146809995 L 721.8997120805 2230.8987146809995" stroke-miterlimit="10" stroke-width="2.3336004714285714" stroke-dasharray=""/><text fill="black" stroke="none" font-family="sans-serif" font-size="8.8pt" font-style="normal" font-weight="bold" text-decoration="normal" x="738.2349153805" y="2243.9668773209996" text-anchor="start" dominant-baseline="alphabetic">alt</text><text fill="black" stroke="none" font-family="sans-serif" font-size="8.8pt" font-style="normal" font-weight="bold" text-decoration="normal" x="794.7064439604999" y="2243.9668773209996" text-anchor="start" dominant-baseline="alphabetic">[isHigh]</text><g><path fill="none" stroke="black" paint-order="fill stroke markers" d=" M 721.8997120805 2337.0775361309993 L 965.1883979971667 2337.0775361309993" stroke-miterlimit="10" stroke-width="2.3336004714285714" stroke-dasharray="4.083800825"/></g><g/><text fill="black" stroke="none" font-family="sans-serif" font-size="8.8pt" font-style="normal" font-weight="bold" text-decoration="normal" x="794.7064439604999" y="2350.1456987709994" text-anchor="start" dominant-baseline="alphabetic">[isLow]</text></g><g/><g><g/><path fill="none" stroke="black" paint-order="fill stroke markers" d=" M 721.8997120805 2467.759162530999 L 951.1883979971667 2467.759162530999 L 951.1883979971667 2573.9379839809994 L 721.8997120805 2573.9379839809994 L 721.8997120805 2467.759162530999 Z" stroke-miterlimit="10" stroke-width="2.3336004714285714" stroke-dasharray=""/><path fill="white" stroke="black" paint-order="fill stroke markers" d=" M 721.8997120805 2467.759162530999 L 721.8997120805 2487.3614064909993 L 912.5701186805 2487.3614064909993 L 922.3712406604999 2477.5602845109993 L 922.3712406604999 2467.759162530999 L 721.8997120805 2467.759162530999" stroke-miterlimit="10" stroke-width="2.3336004714285714" stroke-dasharray=""/><text fill="black" stroke="none" font-family="sans-serif" font-size="8.8pt" font-style="normal" font-weight="bold" text-decoration="normal" x="738.2349153805" y="2480.8273251709993" text-anchor="start" dominant-baseline="alphabetic">update Logic state of circuit</text></g><g><g/><path fill="none" stroke="black" paint-order="fill stroke markers" d=" M 473.83636499716664 2827.1336351309983 L 2002.0135482638334 2827.1336351309983 L 2002.0135482638334 3754.973182570996 L 473.83636499716664 3754.973182570996 L 473.83636499716664 2827.1336351309983 Z" stroke-miterlimit="10" stroke-width="2.3336004714285714" stroke-dasharray=""/><path fill="white" stroke="black" paint-order="fill stroke markers" d=" M 473.83636499716664 2827.1336351309983 L 473.83636499716664 2846.7358790909984 L 520.5067715971666 2846.7358790909984 L 530.3078935771665 2836.9347571109984 L 530.3078935771665 2827.1336351309983 L 473.83636499716664 2827.1336351309983" stroke-miterlimit="10" stroke-width="2.3336004714285714" stroke-dasharray=""/><text fill="black" stroke="none" font-family="sans-serif" font-size="8.8pt" font-style="normal" font-weight="bold" text-decoration="normal" x="490.17156829716663" y="2840.2017977709984" text-anchor="start" dominant-baseline="alphabetic">alt</text><text fill="black" stroke="none" font-family="sans-serif" font-size="8.8pt" font-style="normal" font-weight="bold" text-decoration="normal" x="546.6430968771665" y="2840.2017977709984" text-anchor="start" dominant-baseline="alphabetic">[both true? = wire done]</text><g><path fill="none" stroke="black" paint-order="fill stroke markers" d=" M 473.83636499716664 2933.312456580998 L 2002.0135482638334 2933.312456580998" stroke-miterlimit="10" stroke-width="2.3336004714285714" stroke-dasharray="4.083800825"/></g></g><g/><g><g/><path fill="none" stroke="black" paint-order="fill stroke markers" d=" M 1308.1418806138333 3114.6332132109974 L 1985.6783449638333 3114.6332132109974 L 1985.6783449638333 3593.2546699009963 L 1308.1418806138333 3593.2546699009963 L 1308.1418806138333 3114.6332132109974 Z" stroke-miterlimit="10" stroke-width="2.3336004714285714" stroke-dasharray=""/><path fill="white" stroke="black" paint-order="fill stroke markers" d=" M 1308.1418806138333 3114.6332132109974 L 1308.1418806138333 3134.2354571709975 L 1364.8122872138333 3134.2354571709975 L 1374.6134091938334 3124.4343351909974 L 1374.6134091938334 3114.6332132109974 L 1308.1418806138333 3114.6332132109974" stroke-miterlimit="10" stroke-width="2.3336004714285714" stroke-dasharray=""/><text fill="black" stroke="none" font-family="sans-serif" font-size="8.8pt" font-style="normal" font-weight="bold" text-decoration="normal" x="1324.4770839138334" y="3127.7013758509975" text-anchor="start" dominant-baseline="alphabetic">loop</text><text fill="black" stroke="none" font-family="sans-serif" font-size="8.8pt" font-style="normal" font-weight="bold" text-decoration="normal" x="1390.9486124938335" y="3127.7013758509975" text-anchor="start" dominant-baseline="alphabetic">[componentViews]</text></g><g><g/><path fill="none" stroke="black" paint-order="fill stroke markers" d=" M 1505.0376260471667 3204.476831360997 L 1969.3431416638332 3204.476831360997 L 1969.3431416638332 3523.0132957109963 L 1505.0376260471667 3523.0132957109963 L 1505.0376260471667 3204.476831360997 Z" stroke-miterlimit="10" stroke-width="2.3336004714285714" stroke-dasharray=""/><path fill="white" stroke="black" paint-order="fill stroke markers" d=" M 1505.0376260471667 3204.476831360997 L 1505.0376260471667 3224.079075320997 L 1561.7080326471666 3224.079075320997 L 1571.5091546271667 3214.277953340997 L 1571.5091546271667 3204.476831360997 L 1505.0376260471667 3204.476831360997" stroke-miterlimit="10" stroke-width="2.3336004714285714" stroke-dasharray=""/><text fill="black" stroke="none" font-family="sans-serif" font-size="8.8pt" font-style="normal" font-weight="bold" text-decoration="normal" x="1521.3728293471668" y="3217.544994000997" text-anchor="start" dominant-baseline="alphabetic">loop</text><text fill="black" stroke="none" font-family="sans-serif" font-size="8.8pt" font-style="normal" font-weight="bold" text-decoration="normal" x="1587.8443579271668" y="3217.544994000997" text-anchor="start" dominant-baseline="alphabetic">[portViews]</text></g></g><g/><g/><g/><g/><g/><g/><g/><g/><g/></g></svg>