<svg xmlns="http://www.w3.org/2000/svg" width="100" height="50">
    <path class="wire-preview" d="M 72 25 L 95.085706 25"/>
    <path class="wire-preview" d="M 29.043478 25 L 5.0434781 25"/>
    <path  class="component-body" fill="#EEEC" stroke="black" stroke-width="2" d="M 28.96875 2.59375 L 28.96875 5 L 28.96875 45 L 28.96875 47.40625 L 31.125 46.34375 L 72.15625 26.34375 L 75 25 L 72.15625 23.65625 L 31.125,3.65625 L 28.96875,2.59375 z"/>

    <g x="40" y="20">
        <path d="M54.109480000000005 22.478479999999998c0 -0.56816 -0.19444 -1.0914400000000002 -0.5196000000000001 -1.5080000000000002V17.42404c0.47956000000000004 -0.146 0.8295600000000001 -0.59236 0.8295600000000001 -1.11904c0 -0.64492 -0.52468 -1.1695600000000002 -1.1695600000000002 -1.1695600000000002c-0.64492 0 -1.1695600000000002 0.52464 -1.1695600000000002 1.1695600000000002c0 0.52668 0.35000000000000003 0.973 0.8295600000000001 1.11904v2.9451600000000004c-0.36788 -0.21996 -0.7976000000000001 -0.3468 -1.25652 -0.3468c-0.4422 0 -0.8570399999999999 0.11804 -1.21584 0.3234V17.42404c0.47956000000000004 -0.146 0.8295600000000001 -0.59236 0.8295600000000001 -1.11904c0 -0.64492 -0.52468 -1.1695600000000002 -1.1695600000000002 -1.1695600000000002c-0.64492 0 -1.1695600000000002 0.52464 -1.1695600000000002 1.1695600000000002c0 0.52668 0.35000000000000003 0.973 0.8295600000000001 1.11904v3.4946800000000002c-0.34988 0.42448 -0.56028 0.968 -0.56028 1.55976v3.4208c-0.3884 -0.858 -0.93716 -1.6481999999999999 -1.6314 -2.3341600000000002c-1.48544 -1.46768 -3.4491199999999997 -2.27596 -5.52928 -2.27596c-1.67972 0 -3.25888 0.65412 -4.44664 1.84184c-1.18772 1.18772 -1.84184 2.7669200000000003 -1.84184 4.4466c0 1.7089599999999998 0.8452 3.22416 2.1394800000000003 4.1498L35.1438 33.6664c-0.12096 0.08548 -0.17268 0.23940000000000003 -0.12784 0.38060000000000005c0.04484 0.14116 0.17592 0.23707999999999999 0.32404000000000005 0.23707999999999999h14.08184c1.48724 0 2.659 -0.42188000000000003 3.48272 -1.25392c1.20804 -1.2201600000000001 1.2056 -2.86744 1.20488 -2.9336V22.478479999999998zM52.76032 16.305c0 -0.26996 0.21964 -0.48956000000000005 0.48956000000000005 -0.48956000000000005c0.26996 0 0.48956000000000005 0.21960000000000002 0.48956000000000005 0.48956000000000005s-0.21964 0.48956000000000005 -0.48956000000000005 0.48956000000000005C52.979960000000005 16.7946 52.76032 16.57496 52.76032 16.305zM49.608000000000004 16.305c0 -0.26996 0.21960000000000002 -0.48956000000000005 0.48956000000000005 -0.48956000000000005c0.26992 0 0.48956000000000005 0.21960000000000002 0.48956000000000005 0.48956000000000005s-0.21964 0.48956000000000005 -0.48956000000000005 0.48956000000000005C49.827600000000004 16.7946 49.608000000000004 16.57496 49.608000000000004 16.305zM36.42816 27.5776c0 -1.4980799999999999 0.58336 -2.90648 1.6426800000000001 -3.9657999999999998c1.05928 -1.0592400000000002 2.46772 -1.64264 3.9657999999999998 -1.64264c3.86356 0 7.022279999999999 3.0474400000000004 7.15624 6.8441600000000005l-4.54112 1.3656000000000001c0.22012 -0.5058400000000001 0.34224 -1.06368 0.34224 -1.64956c0 -1.86684 -1.51876 -3.3856 -3.3856 -3.3856c-0.7416400000000001 0 -1.4388800000000002 0.2888 -1.9632800000000001 0.8131999999999999c-0.5244 0.5244 -0.8131999999999999 1.22164 -0.8131999999999999 1.96324c0 1.26232 1.02692 2.28924 2.28916 2.28924c1.04732 -0.00004 1.8993600000000002 -0.8521200000000001 1.8993600000000002 -1.8993600000000002c0 -0.8754000000000001 -0.7121599999999999 -1.58756 -1.58748 -1.58756c-0.35740000000000005 0 -0.6934 0.13916 -0.94612 0.39192c-0.25272 0.25272 -0.39192 0.58876 -0.39188 0.94608c0 0.62768 0.51068 1.1384 1.13832 1.1384c0.18776 0 0.34 -0.15224000000000001 0.34 -0.34c0 -0.18776 -0.15224000000000001 -0.34 -0.34 -0.34c-0.25272 0 -0.45832 -0.20564000000000002 -0.45832 -0.45844c-0.00004 -0.17572 0.0684 -0.34092 0.19268000000000002 -0.46524000000000004c0.12432 -0.12428000000000002 0.28956 -0.19272 0.46531999999999996 -0.19272c0.5004 0 0.9074800000000001 0.40712000000000004 0.9074800000000001 0.90756c0 0.6723600000000001 -0.54704 1.21932 -1.2194 1.21936c-0.88728 0 -1.60916 -0.7219199999999999 -1.60916 -1.60924c0 -0.56 0.21803999999999998 -1.08644 0.61404 -1.48244c0.39596 -0.39592 0.92244 -0.61404 1.48244 -0.61404c1.4918799999999999 0 2.7056 1.2137200000000001 2.7056 2.7056c0 1.91176 -1.55528 3.46708 -3.4670400000000003 3.46708C38.4104 31.9964 36.42816 30.01412 36.42816 27.5776zM52.41596 32.557159999999996c-0.69116 0.69464 -1.69852 1.04688 -2.9941199999999997 1.04688H36.41028l2.0598400000000003 -1.45564c0.01616 -0.011399999999999999 0.03072 -0.0242 0.0442 -0.03772c0.6994 0.3614 1.49256 0.56576 2.3326 0.56576c1.345 0 2.54264 -0.6437600000000001 3.3007999999999997 -1.6392c0.01528 -0.0024 0.03056 -0.00588 0.045759999999999995 -0.010440000000000001l5.44168 -1.6363999999999999c0.14372000000000001 -0.0432 0.24208 -0.17552 0.24208 -0.32560000000000006V22.478479999999998c0 -0.9793200000000001 0.79676 -1.77608 1.77612 -1.77608c0.9793600000000001 0 1.77612 0.79676 1.77612 1.77608l0.00004 7.62064C53.429559999999995 30.1134 53.42508 31.54296 52.41596 32.557159999999996z"/>
    </g>


    <inport name="input" x="29.5" y="25" />
    <outport name="output" x="72" y="25" />
</svg>