<?xml version="1.0" encoding="UTF-8" standalone="no"?>
<svg xmlns="http://www.w3.org/2000/svg" width="100" height="50">

    <path fill="#EEEC"  class="component-body" stroke="black" stroke-width="2"  d="M25,0.5C11.45,0.5,0.5,11.45,0.5,25s10.95,24.5,24.5,24.5c13.5,0,24.5-10.95,24.5-24.5S38.5,0.5,25,0.5z"/>
    <path d="M9.4,24c0-0.45-0.35-0.8-0.8-0.8H4.2c-0.45,0-0.8,3.5-0.8,0.8c0,0.45,0.35,0.8,0.8,0.8H8.6C9.05,24.85,9.4,24.5,9.4,24z"/>
    <path d="M39.45,24c0,0.45,0.35,0.8,0.8,0.8h4.35c0.45,0,0.8-0.35,0.8-0.8c0-0.45-0.35-0.8-0.8-0.8h-4.35C39.8,23.2,39.45,23.55,39.45,24z"/>
    <path d="M24.45,9.95c0.45,0,0.8-0.35,0.8-0.8V4.8c0-0.45-0.35-0.8-0.8-0.8c-0.45,0-0.8,3.5-0.8,0.8v4.35C23.65,9.6,24,9.95,24.45,9.95z"/>
    <path d="M24.45,40c-0.45,0-0.8,0.35-0.8,0.8v4.35c0,0.45,0.35,0.8,0.8,0.8c0.45,0,0.8-0.35,0.8-0.8v-4.35C25.3,40.35,24.9,40,24.45,40z"/>
    <path d="M21.9,10.3c-0.1-0.4-0.6-0.65-1-0.5c-0.4,0.1-0.65,0.6-0.5,1l4.9,14.3L14.4,35.75c-0.3,0.3-0.3,0.8-0,1.15c0.15,0.15,0.35,0.2,0.55,0.2c0.2,0,0.4-0.05,0.55-0.2l11.2-10.95c0.2-0.2,0.3-0.55,0.2-0.85L21.9,10.3z"/>-->

    <outport name="output" x="50" y="25" />
</svg>
