<?xml version="1.0" encoding="UTF-8" standalone="no"?>
<svg xmlns="http://www.w3.org/2000/svg" width="100" height="50">

    <path iswire="false" d="M50.0,1.0C22.9,1.0,1.0,22.9,1.0,50.0s21.9,49.0,49.0,49.0c27.0,.0,49.0-21.9,49.0-49.0S77.0,1.0,50.0,1.0z M50.0,94.1C25.6,94.1,5.9,74.3,5.9,50.0C5.9,25.6,25.6,5.9,50.0,5.9c24.3,.0,44.1,19.7,44.1,44.1C94.1,74.3,74.3,94.1,50.0,94.1z"/>
    <path iswire="false" d="M18.8,48.0c0-.9-.7-1.6-1.6-1.6H8.4c-.9,0-1.6,7-1.6,1.6c.0,.9,.7,1.6,1.6,1.6H17.2C18.1,49.7,18.8,49.0,18.8,48.0z"/>
    <path iswire="false" d="M78.9,48.0c.0,.9,.7,1.6,1.6,1.6h8.7c.9,.0,1.6-.7,1.6-1.6c0-.9-.7-1.6-1.6-1.6h-8.7C79.6,46.4,78.9,47.1,78.9,48.0z"/>
    <path iswire="false" d="M48.9,19.9c.9,.0,1.6-.7,1.6-1.6V9.6c0-.9-.7-1.6-1.6-1.6c-.9,0-1.6,7-1.6,1.6v8.7C47.3,19.2,48.0,19.9,48.9,19.9z"/>
    <path iswire="false" d="M48.9,80.0c-.9,0-1.6,.7-1.6,1.6v8.7c.0,.9,.7,1.6,1.6,1.6c.9,.0,1.6-.7,1.6-1.6v-8.7C50.6,80.7,49.8,80.0,48.9,80.0z"/>
    <path iswire="false" d="M43.8,20.6c-.2-.8-1.2-1.3-2.0-1.0c-.8,.2-1.3,1.2-1.0,2.0l9.8,28.6L28.8,71.5c-.6,.6-.6,1.6-.0,2.3c.3,.3,.7,.4,1.1,.4c.4,.0,.8-.1,1.1-.4l22.4-21.9c.4-.4,.6-1.1,.4-1.7L43.8,20.6z"/>-->

    <outport name="output" x="100" y="50" />
</svg>
