<svg xmlns="http://www.w3.org/2000/svg" width="100" height="50">
  <path class="wire-preview" d="M79 25H95M30 25H5"/>
  <path class="component-body" fill="#EEEC" stroke="black" stroke-width="2" d="M30 0 H65 V45 H30 V0z"/>
  <path d="M44.85 36.85C44.65 37.9 45.75 40.05 47.95 40.15 50.6 40.2 52.3 38.2 51.5 34.85L47.55 16.6C47.05 14.4 47.45 13.25 47.7 12.5 48.35 10.65 50.05 9.85 50.45 10.45 50.65 10.8 51.25 12.4 49.65 15.3 48.4 17.55 42.55 20.5 42.1 25.75 41.75 30.3 46.55 33.7 50.65 32.35 53.4 31.5 54.85 27.3 53.15 25.15 48.65 19.5 41.45 28.15 48.4 30.55 47.65 29.95 47.15 29.5 47.05 28.95 46.1 23.45 54.35 24.9 52.15 30.1 51.25 32.25 47.55 32.65 45.45 30.75 43.7 29.15 42.9 26.05 44.85 23.85 47.5 20.85 50.65 18.15 51.5 14.05 52.45 9.2 49.25 5.4 47.2 10.2 46.55 11.8 46.3 13.4 46.95 16.5L50.9 35.15C51.15 36.5 51 38.35 49.75 39.2 49.1 39.6 46.95 39.9 46.4 38.9"/>
  <inport name="input" x="29.043478" y="25" />
</svg>
