<svg xmlns="http://www.w3.org/2000/svg" width="100" height="50">
  <path class="wire-preview" d="M79 25H95M30 15H5M30 35H5"/>
  <g fill-rule="evenodd">
    <path fill="#EEEC" class="component-body" stroke="black" stroke-width="2"  d="M24.25 42.000005c-1.597374 2.6444-2.25 3-2.25 3h-3.65625l2-2.4375S26 35.562451 26 25c0-10.562451-5.65625-17.5625-5.65625-17.5625l-2-2.4375H22c.78125.9375 1.421875 1.65625 2.21875 3C26.091469 11.099815 29 17.026646 29 25c0 7.95065-2.896697 13.879425-4.75 17.000005z"/>
    <path fill="#EEEC" class="component-body" stroke="black" stroke-width="2"  d="M24.09375 5l2 2.4375S31.75 14.437549 31.75 25s-5.65625 17.5625-5.65625 17.5625l-2 2.4375H41.25c2.408076.000001 7.689699.024514 13.625-2.40625s12.536536-7.343266 17.6875-16.875L71.25 25l1.3125-.71875C62.259387 5.21559 46.006574 5 41.25 5H24.09375z"/>
  </g>
  <path  d="M79 25a4 4 0 1 1-8 0 4 4 0 1 1 8 0z"/>


  <inport name="input1" x="32" y="15" />
  <inport name="input2" x="32" y="35" />
  <outport name="output" x="78.333332" y="25" />
</svg>
